<svg class="marks" width="395" height="234" viewBox="0 0 395 234" version="1.1" xmlns="http://www.w3.org/2000/svg" xmlns:xlink="http://www.w3.org/1999/xlink"><g transform="translate(39,11)"><g class="mark-group role-frame root"><g transform="translate(0,0)"><path class="background" d="M0.5,0.5h350v200h-350Z" style="fill: none; stroke: #ddd;"></path><g><g class="mark-group role-axis"><g transform="translate(0.5,200.5)"><path class="background" d="M0,0h0v0h0Z" style="pointer-events: none; fill: none;"></path><g><g class="mark-rule role-axis-grid" style="pointer-events: none;"><line transform="translate(0,-200)" x2="0" y2="200" style="fill: none; stroke: #ddd; stroke-width: 1; opacity: 1;"></line><line transform="translate(43,-200)" x2="0" y2="200" style="fill: none; stroke: #ddd; stroke-width: 1; opacity: 1;"></line><line transform="translate(87,-200)" x2="0" y2="200" style="fill: none; stroke: #ddd; stroke-width: 1; opacity: 1;"></line><line transform="translate(131,-200)" x2="0" y2="200" style="fill: none; stroke: #ddd; stroke-width: 1; opacity: 1;"></line><line transform="translate(175,-200)" x2="0" y2="200" style="fill: none; stroke: #ddd; stroke-width: 1; opacity: 1;"></line><line transform="translate(218,-200)" x2="0" y2="200" style="fill: none; stroke: #ddd; stroke-width: 1; opacity: 1;"></line><line transform="translate(262,-200)" x2="0" y2="200" style="fill: none; stroke: #ddd; stroke-width: 1; opacity: 1;"></line><line transform="translate(306,-200)" x2="0" y2="200" style="fill: none; stroke: #ddd; stroke-width: 1; opacity: 1;"></line></g></g></g></g><g class="mark-group role-axis"><g transform="translate(0.5,0.5)"><path class="background" d="M0,0h0v0h0Z" style="pointer-events: none; fill: none;"></path><g><g class="mark-rule role-axis-grid" style="pointer-events: none;"><line transform="translate(0,200)" x2="350" y2="0" style="fill: none; stroke: #ddd; stroke-width: 1; opacity: 1;"></line><line transform="translate(0,160)" x2="350" y2="0" style="fill: none; stroke: #ddd; stroke-width: 1; opacity: 1;"></line><line transform="translate(0,120)" x2="350" y2="0" style="fill: none; stroke: #ddd; stroke-width: 1; opacity: 1;"></line><line transform="translate(0,80)" x2="350" y2="0" style="fill: none; stroke: #ddd; stroke-width: 1; opacity: 1;"></line><line transform="translate(0,40)" x2="350" y2="0" style="fill: none; stroke: #ddd; stroke-width: 1; opacity: 1;"></line><line transform="translate(0,0)" x2="350" y2="0" style="fill: none; stroke: #ddd; stroke-width: 1; opacity: 1;"></line></g></g></g></g><g class="mark-line role-mark layer_0_marks"><path d="M218.42992684042065,31.73999999999998L215.0691586648377,31.72L211.7083904892547,31.560000000000002L208.34762231367168,31.78L205.0068587105624,31.840000000000003L198.28532235939645,31.840000000000003L191.56378600823044,31.73999999999998L184.84224965706449,31.960000000000008L178.1207133058985,32L171.3991769547325,32.079999999999984L164.67764060356652,32.360000000000014L157.95610425240054,32.73999999999998L151.23456790123456,32.58000000000001L144.4930269775949,32.66L137.77149062642889,32.98000000000002L131.0499542752629,33.5L124.32841792409694,33.73999999999998L120.96764974851395,33.640000000000015L114.24611339734797,33.44L107.52457704618199,33.66L100.80304069501601,34.03999999999999L94.08150434385003,34.16L87.35996799268403,34.380000000000024L80.63843164151805,34.69999999999999L74.39700502972107,34.879999999999995L67.19535893918611,34.81999999999999L60.47382258802012,35.03999999999999L53.75228623685414,35.56L47.03074988568815,35.81999999999999L40.30921353452218,35.97999999999999L33.58767718335619,36.31999999999999L26.886145404663925,36.82000000000002L20.164609053497944,37.099999999999994L13.443072702331962,37.74000000000001L6.721536351165981,37.66L0,38.17999999999998" style="fill: none; stroke: #aec7e8; stroke-width: 2;"></path></g><g class="mark-line role-mark layer_1_marks"><path d="M218.42992684042065,26.659999999999997L215.0691586648377,26.659999999999997L211.7083904892547,26.400000000000006L208.34762231367168,26.19999999999999L205.0068587105624,26.25999999999999L198.28532235939645,27.039999999999992L191.56378600823044,27.039999999999992L184.84224965706449,28.620000000000005L178.1207133058985,28.28L171.3991769547325,28.620000000000005L164.67764060356652,28.140000000000015L157.95610425240054,27.919999999999987L151.23456790123456,29.72L144.4930269775949,29.78L137.77149062642889,30.24000000000001L131.0499542752629,32.24000000000001L124.32841792409694,32.58000000000001L120.96764974851395,32.58000000000001L114.24611339734797,32.879999999999995L107.52457704618199,32.47999999999999L100.80304069501601,32.879999999999995L94.08150434385003,33.079999999999984L87.35996799268403,33.34L80.63843164151805,32.69999999999999L74.39700502972107,33.18000000000001L67.19535893918611,33.139999999999986L60.47382258802012,33.68000000000001L53.75228623685414,33.18000000000001L47.03074988568815,33.47999999999999L40.30921353452218,33.03999999999999L33.58767718335619,33L26.886145404663925,33.099999999999994L20.164609053497944,32.53999999999999L13.443072702331962,31.539999999999992L6.721536351165981,30.659999999999997L0,30.439999999999998" style="fill: none; stroke: #ffbb78; stroke-width: 2;"></path></g><g class="mark-line role-mark layer_2_marks"><path d="M218.42992684042065,32.84L215.0691586648377,32.84L211.7083904892547,32.84L208.34762231367168,32.84L205.0068587105624,32.84L198.28532235939645,35.81999999999999L191.56378600823044,35.81999999999999L184.84224965706449,35.81999999999999L178.1207133058985,36.359999999999985L171.3991769547325,36.359999999999985L164.67764060356652,34.380000000000024L157.95610425240054,31.73999999999998L151.23456790123456,31.73999999999998L144.4930269775949,34.91999999999999L137.77149062642889,33.84L131.0499542752629,31.24000000000001L124.32841792409694,31.24000000000001L120.96764974851395,31.24000000000001L114.24611339734797,31.24000000000001L107.52457704618199,31.73999999999998L100.80304069501601,31.73999999999998L94.08150434385003,31.73999999999998L87.35996799268403,31.73999999999998L80.63843164151805,31.73999999999998L74.39700502972107,38.69999999999999L67.19535893918611,41.94L60.47382258802012,41.26000000000002L53.75228623685414,41.26000000000002L47.03074988568815,41.26000000000002L40.30921353452218,31.379999999999995L33.58767718335619,31.379999999999995L26.886145404663925,32.66L20.164609053497944,32.66L13.443072702331962,32.66L6.721536351165981,33.34L0,33.34" style="fill: none; stroke: #9467bd; stroke-width: 4;"></path></g><g class="mark-rule role-mark layer_3_marks"><line transform="translate(0,40)" x2="350" y2="0" style="fill: none; stroke: #2ca02c; stroke-width: 1; stroke-dasharray: 4,2;"></line></g><g class="mark-text role-mark layer_4_marks"><text text-anchor="end" transform="translate(350,197)" style="font-family: sans-serif; font-size: 16px; fill: #2ca02c;">80.00%</text></g><g class="mark-text role-mark layer_5_marks"><text text-anchor="end" transform="translate(350,15)" style="font-family: sans-serif; font-size: 16px; fill: #9467bd;">83.58%</text></g><g class="mark-group role-axis"><g transform="translate(0.5,200.5)"><path class="background" d="M0,0h0v0h0Z" style="pointer-events: none; fill: none;"></path><g><g class="mark-rule role-axis-tick" style="pointer-events: none;"><line transform="translate(0,0)" x2="0" y2="5" style="fill: none; stroke: #888; stroke-width: 1; opacity: 1;"></line><line transform="translate(43,0)" x2="0" y2="5" style="fill: none; stroke: #888; stroke-width: 1; opacity: 1;"></line><line transform="translate(87,0)" x2="0" y2="5" style="fill: none; stroke: #888; stroke-width: 1; opacity: 1;"></line><line transform="translate(131,0)" x2="0" y2="5" style="fill: none; stroke: #888; stroke-width: 1; opacity: 1;"></line><line transform="translate(175,0)" x2="0" y2="5" style="fill: none; stroke: #888; stroke-width: 1; opacity: 1;"></line><line transform="translate(218,0)" x2="0" y2="5" style="fill: none; stroke: #888; stroke-width: 1; opacity: 1;"></line><line transform="translate(262,0)" x2="0" y2="5" style="fill: none; stroke: #888; stroke-width: 1; opacity: 1;"></line><line transform="translate(306,0)" x2="0" y2="5" style="fill: none; stroke: #888; stroke-width: 1; opacity: 1;"></line></g><g class="mark-text role-axis-label" style="pointer-events: none;"><text text-anchor="start" transform="translate(0,15)" style="font-family: sans-serif; font-size: 10px; fill: #000; opacity: 1;">2018</text><text text-anchor="middle" transform="translate(43.18987197073617,15)" style="font-family: sans-serif; font-size: 10px; fill: #000; opacity: 1;">April</text><text text-anchor="middle" transform="translate(86.87985825331505,15)" style="font-family: sans-serif; font-size: 10px; fill: #000; opacity: 1;">July</text><text text-anchor="middle" transform="translate(131.0499542752629,15)" style="font-family: sans-serif; font-size: 10px; fill: #000; opacity: 1;">October</text><text text-anchor="middle" transform="translate(175.24005486968449,15)" style="font-family: sans-serif; font-size: 10px; fill: #000; opacity: 1;">2019</text><text text-anchor="middle" transform="translate(218.42992684042065,15)" style="font-family: sans-serif; font-size: 10px; fill: #000; opacity: 1;">April</text><text text-anchor="middle" transform="translate(262.11991312299955,15)" style="font-family: sans-serif; font-size: 10px; fill: #000; opacity: 1;">July</text><text text-anchor="middle" transform="translate(306.2900091449474,15)" style="font-family: sans-serif; font-size: 10px; fill: #000; opacity: 1;">October</text></g><g class="mark-rule role-axis-domain" style="pointer-events: none;"><line transform="translate(0,0)" x2="350" y2="0" style="fill: none; stroke: #888; stroke-width: 1; opacity: 1;"></line></g></g></g></g><g class="mark-group role-axis"><g transform="translate(0.5,0.5)"><path class="background" d="M0,0h0v0h0Z" style="pointer-events: none; fill: none;"></path><g><g class="mark-rule role-axis-tick" style="pointer-events: none;"><line transform="translate(0,200)" x2="-5" y2="0" style="fill: none; stroke: #888; stroke-width: 1; opacity: 1;"></line><line transform="translate(0,160)" x2="-5" y2="0" style="fill: none; stroke: #888; stroke-width: 1; opacity: 1;"></line><line transform="translate(0,120)" x2="-5" y2="0" style="fill: none; stroke: #888; stroke-width: 1; opacity: 1;"></line><line transform="translate(0,80)" x2="-5" y2="0" style="fill: none; stroke: #888; stroke-width: 1; opacity: 1;"></line><line transform="translate(0,40)" x2="-5" y2="0" style="fill: none; stroke: #888; stroke-width: 1; opacity: 1;"></line><line transform="translate(0,0)" x2="-5" y2="0" style="fill: none; stroke: #888; stroke-width: 1; opacity: 1;"></line></g><g class="mark-text role-axis-label" style="pointer-events: none;"><text text-anchor="end" transform="translate(-7,203)" style="font-family: sans-serif; font-size: 10px; fill: #000; opacity: 1;">0%</text><text text-anchor="end" transform="translate(-7,163)" style="font-family: sans-serif; font-size: 10px; fill: #000; opacity: 1;">20%</text><text text-anchor="end" transform="translate(-7,123)" style="font-family: sans-serif; font-size: 10px; fill: #000; opacity: 1;">40%</text><text text-anchor="end" transform="translate(-7,83)" style="font-family: sans-serif; font-size: 10px; fill: #000; opacity: 1;">60%</text><text text-anchor="end" transform="translate(-7,43)" style="font-family: sans-serif; font-size: 10px; fill: #000; opacity: 1;">80%</text><text text-anchor="end" transform="translate(-7,3)" style="font-family: sans-serif; font-size: 10px; fill: #000; opacity: 1;">100%</text></g><g class="mark-rule role-axis-domain" style="pointer-events: none;"><line transform="translate(0,200)" x2="0" y2="-200" style="fill: none; stroke: #888; stroke-width: 1; opacity: 1;"></line></g></g></g></g></g></g></g></g></svg>