<svg class="marks" width="397" height="234" viewBox="0 0 397 234" version="1.1" xmlns="http://www.w3.org/2000/svg" xmlns:xlink="http://www.w3.org/1999/xlink"><g transform="translate(41,11)"><g class="mark-group role-frame root"><g transform="translate(0,0)"><path class="background" d="M0.5,0.5h350v200h-350Z" style="fill: none; stroke: #ddd;"></path><g><g class="mark-group role-axis"><g transform="translate(0.5,200.5)"><path class="background" d="M0,0h0v0h0Z" style="pointer-events: none; fill: none;"></path><g><g class="mark-rule role-axis-grid" style="pointer-events: none;"><line transform="translate(0,-200)" x2="0" y2="200" style="fill: none; stroke: #ddd; stroke-width: 1; opacity: 1;"></line><line transform="translate(43,-200)" x2="0" y2="200" style="fill: none; stroke: #ddd; stroke-width: 1; opacity: 1;"></line><line transform="translate(87,-200)" x2="0" y2="200" style="fill: none; stroke: #ddd; stroke-width: 1; opacity: 1;"></line><line transform="translate(131,-200)" x2="0" y2="200" style="fill: none; stroke: #ddd; stroke-width: 1; opacity: 1;"></line><line transform="translate(175,-200)" x2="0" y2="200" style="fill: none; stroke: #ddd; stroke-width: 1; opacity: 1;"></line><line transform="translate(218,-200)" x2="0" y2="200" style="fill: none; stroke: #ddd; stroke-width: 1; opacity: 1;"></line><line transform="translate(262,-200)" x2="0" y2="200" style="fill: none; stroke: #ddd; stroke-width: 1; opacity: 1;"></line><line transform="translate(306,-200)" x2="0" y2="200" style="fill: none; stroke: #ddd; stroke-width: 1; opacity: 1;"></line></g></g></g></g><g class="mark-group role-axis"><g transform="translate(0.5,0.5)"><path class="background" d="M0,0h0v0h0Z" style="pointer-events: none; fill: none;"></path><g><g class="mark-rule role-axis-grid" style="pointer-events: none;"><line transform="translate(0,200)" x2="350" y2="0" style="fill: none; stroke: #ddd; stroke-width: 1; opacity: 1;"></line><line transform="translate(0,160)" x2="350" y2="0" style="fill: none; stroke: #ddd; stroke-width: 1; opacity: 1;"></line><line transform="translate(0,120)" x2="350" y2="0" style="fill: none; stroke: #ddd; stroke-width: 1; opacity: 1;"></line><line transform="translate(0,80)" x2="350" y2="0" style="fill: none; stroke: #ddd; stroke-width: 1; opacity: 1;"></line><line transform="translate(0,40)" x2="350" y2="0" style="fill: none; stroke: #ddd; stroke-width: 1; opacity: 1;"></line><line transform="translate(0,0)" x2="350" y2="0" style="fill: none; stroke: #ddd; stroke-width: 1; opacity: 1;"></line></g></g></g></g><g class="mark-line role-mark layer_0_marks"><path d="M228.51223136716965,60.47999999999999L225.15146319158666,60.44L221.79069501600364,60.379999999999995L218.42992684042065,60.22L215.0691586648377,60.25999999999999L211.7083904892547,60.16L208.34762231367168,60.20000000000002L205.0068587105624,60.120000000000005L198.28532235939645,60.139999999999986L191.56378600823044,59.94L184.84224965706449,60.359999999999985L178.1207133058985,60.24000000000001L171.3991769547325,60.03999999999999L164.67764060356652,60.34L157.95610425240054,60.47999999999999L151.23456790123456,60.68000000000001L144.4930269775949,60.84L137.77149062642889,61.400000000000006L131.0499542752629,61.91999999999999L124.32841792409694,62.02000000000001L120.96764974851395,62.139999999999986L114.24611339734797,62.22L107.52457704618199,62.420000000000016L100.80304069501601,62.46000000000001L94.08150434385003,62.78L87.35996799268403,62.97999999999999L80.63843164151805,63.78L74.39700502972107,64.08000000000001L67.19535893918611,64.26000000000002L60.47382258802012,64.48000000000002L53.75228623685414,64.82000000000002L47.03074988568815,65.04000000000002L40.30921353452218,65.56L33.58767718335619,65.82L26.886145404663925,66.08000000000001L20.164609053497944,66.18L13.443072702331962,66.96000000000001L6.721536351165981,66.35999999999999L0,66.12" style="fill: none; stroke: #aec7e8; stroke-width: 2;"></path></g><g class="mark-line role-mark layer_1_marks"><path d="M228.51223136716965,48.31999999999999L225.15146319158666,48.379999999999995L221.79069501600364,48.31999999999999L218.42992684042065,48.01999999999998L215.0691586648377,47.94L211.7083904892547,48.22L208.34762231367168,48.23999999999998L205.0068587105624,48.30000000000001L198.28532235939645,48.079999999999984L191.56378600823044,48.10000000000002L184.84224965706449,48.120000000000005L178.1207133058985,47.75999999999999L171.3991769547325,47.03999999999999L164.67764060356652,47.25999999999999L157.95610425240054,47.66L151.23456790123456,48.19999999999999L144.4930269775949,48.120000000000005L137.77149062642889,48.41999999999999L131.0499542752629,48.23999999999998L124.32841792409694,48.66L120.96764974851395,48.879999999999995L114.24611339734797,49.56L107.52457704618199,49.84L100.80304069501601,49.879999999999995L94.08150434385003,51.41999999999999L87.35996799268403,51.41999999999999L80.63843164151805,51.620000000000005L74.39700502972107,53.03999999999999L67.19535893918611,53.19999999999999L60.47382258802012,53.22L53.75228623685414,53.379999999999995L47.03074988568815,53.22L40.30921353452218,53.80000000000001L33.58767718335619,53.80000000000001L26.886145404663925,54.079999999999984L20.164609053497944,54.25999999999999L13.443072702331962,55.120000000000005L6.721536351165981,55.76000000000002L0,55.420000000000016" style="fill: none; stroke: #ffbb78; stroke-width: 2;"></path></g><g class="mark-line role-mark layer_2_marks"><path d="M228.51223136716965,42.72L225.15146319158666,42.900000000000006L221.79069501600364,42.359999999999985L218.42992684042065,40.41999999999999L215.0691586648377,39.860000000000014L211.7083904892547,40L208.34762231367168,40.69999999999999L205.0068587105624,40.69999999999999L198.28532235939645,42.79999999999998L191.56378600823044,43.5L184.84224965706449,43.97999999999999L178.1207133058985,43.72L171.3991769547325,41.579999999999984L164.67764060356652,43.01999999999998L157.95610425240054,44.84L151.23456790123456,45.879999999999995L144.4930269775949,48.19999999999999L137.77149062642889,47.10000000000002L131.0499542752629,48.18000000000001L124.32841792409694,50L120.96764974851395,50.18000000000001L114.24611339734797,51.44L107.52457704618199,51.620000000000005L100.80304069501601,51.41999999999999L94.08150434385003,52.66L87.35996799268403,52.859999999999985L80.63843164151805,53.900000000000006L74.39700502972107,55.51999999999998L67.19535893918611,55.31999999999999L60.47382258802012,54.599999999999994L53.75228623685414,53.72L47.03074988568815,54.03999999999999L40.30921353452218,54.54000000000002L33.58767718335619,54.360000000000014L26.886145404663925,54.360000000000014L20.164609053497944,55.360000000000014L13.443072702331962,54.68000000000001L6.721536351165981,55.68000000000001L0,53.98000000000002" style="fill: none; stroke: #9467bd; stroke-width: 4;"></path></g><g class="mark-rule role-mark layer_3_marks"><line transform="translate(0,52)" x2="350" y2="0" style="fill: none; stroke: #2ca02c; stroke-width: 1; stroke-dasharray: 4,2;"></line></g><g class="mark-text role-mark layer_4_marks"><text text-anchor="end" transform="translate(350,197)" style="font-family: sans-serif; font-size: 16px; fill: #2ca02c;">74.00%</text></g><g class="mark-text role-mark layer_5_marks"><text text-anchor="end" transform="translate(350,15)" style="font-family: sans-serif; font-size: 16px; fill: #9467bd;">78.64%</text></g><g class="mark-group role-axis"><g transform="translate(0.5,200.5)"><path class="background" d="M0,0h0v0h0Z" style="pointer-events: none; fill: none;"></path><g><g class="mark-rule role-axis-tick" style="pointer-events: none;"><line transform="translate(0,0)" x2="0" y2="5" style="fill: none; stroke: #888; stroke-width: 1; opacity: 1;"></line><line transform="translate(43,0)" x2="0" y2="5" style="fill: none; stroke: #888; stroke-width: 1; opacity: 1;"></line><line transform="translate(87,0)" x2="0" y2="5" style="fill: none; stroke: #888; stroke-width: 1; opacity: 1;"></line><line transform="translate(131,0)" x2="0" y2="5" style="fill: none; stroke: #888; stroke-width: 1; opacity: 1;"></line><line transform="translate(175,0)" x2="0" y2="5" style="fill: none; stroke: #888; stroke-width: 1; opacity: 1;"></line><line transform="translate(218,0)" x2="0" y2="5" style="fill: none; stroke: #888; stroke-width: 1; opacity: 1;"></line><line transform="translate(262,0)" x2="0" y2="5" style="fill: none; stroke: #888; stroke-width: 1; opacity: 1;"></line><line transform="translate(306,0)" x2="0" y2="5" style="fill: none; stroke: #888; stroke-width: 1; opacity: 1;"></line></g><g class="mark-text role-axis-label" style="pointer-events: none;"><text text-anchor="start" transform="translate(0,15)" style="font-family: sans-serif; font-size: 10px; fill: #000; opacity: 1;">2018</text><text text-anchor="middle" transform="translate(43.18987197073617,15)" style="font-family: sans-serif; font-size: 10px; fill: #000; opacity: 1;">April</text><text text-anchor="middle" transform="translate(86.87985825331505,15)" style="font-family: sans-serif; font-size: 10px; fill: #000; opacity: 1;">July</text><text text-anchor="middle" transform="translate(131.0499542752629,15)" style="font-family: sans-serif; font-size: 10px; fill: #000; opacity: 1;">October</text><text text-anchor="middle" transform="translate(175.24005486968449,15)" style="font-family: sans-serif; font-size: 10px; fill: #000; opacity: 1;">2019</text><text text-anchor="middle" transform="translate(218.42992684042065,15)" style="font-family: sans-serif; font-size: 10px; fill: #000; opacity: 1;">April</text><text text-anchor="middle" transform="translate(262.11991312299955,15)" style="font-family: sans-serif; font-size: 10px; fill: #000; opacity: 1;">July</text><text text-anchor="middle" transform="translate(306.2900091449474,15)" style="font-family: sans-serif; font-size: 10px; fill: #000; opacity: 1;">October</text></g><g class="mark-rule role-axis-domain" style="pointer-events: none;"><line transform="translate(0,0)" x2="350" y2="0" style="fill: none; stroke: #888; stroke-width: 1; opacity: 1;"></line></g></g></g></g><g class="mark-group role-axis"><g transform="translate(0.5,0.5)"><path class="background" d="M0,0h0v0h0Z" style="pointer-events: none; fill: none;"></path><g><g class="mark-rule role-axis-tick" style="pointer-events: none;"><line transform="translate(0,200)" x2="-5" y2="0" style="fill: none; stroke: #888; stroke-width: 1; opacity: 1;"></line><line transform="translate(0,160)" x2="-5" y2="0" style="fill: none; stroke: #888; stroke-width: 1; opacity: 1;"></line><line transform="translate(0,120)" x2="-5" y2="0" style="fill: none; stroke: #888; stroke-width: 1; opacity: 1;"></line><line transform="translate(0,80)" x2="-5" y2="0" style="fill: none; stroke: #888; stroke-width: 1; opacity: 1;"></line><line transform="translate(0,40)" x2="-5" y2="0" style="fill: none; stroke: #888; stroke-width: 1; opacity: 1;"></line><line transform="translate(0,0)" x2="-5" y2="0" style="fill: none; stroke: #888; stroke-width: 1; opacity: 1;"></line></g><g class="mark-text role-axis-label" style="pointer-events: none;"><text text-anchor="end" transform="translate(-7,203)" style="font-family: sans-serif; font-size: 10px; fill: #000; opacity: 1;">0%</text><text text-anchor="end" transform="translate(-7,163)" style="font-family: sans-serif; font-size: 10px; fill: #000; opacity: 1;">20%</text><text text-anchor="end" transform="translate(-7,123)" style="font-family: sans-serif; font-size: 10px; fill: #000; opacity: 1;">40%</text><text text-anchor="end" transform="translate(-7,83)" style="font-family: sans-serif; font-size: 10px; fill: #000; opacity: 1;">60%</text><text text-anchor="end" transform="translate(-7,43)" style="font-family: sans-serif; font-size: 10px; fill: #000; opacity: 1;">80%</text><text text-anchor="end" transform="translate(-7,3)" style="font-family: sans-serif; font-size: 10px; fill: #000; opacity: 1;">100%</text></g><g class="mark-rule role-axis-domain" style="pointer-events: none;"><line transform="translate(0,200)" x2="0" y2="-200" style="fill: none; stroke: #888; stroke-width: 1; opacity: 1;"></line></g></g></g></g></g></g></g></g></svg>