<svg class="marks" width="397" height="234" viewBox="0 0 397 234" version="1.1" xmlns="http://www.w3.org/2000/svg" xmlns:xlink="http://www.w3.org/1999/xlink"><g transform="translate(41,11)"><g class="mark-group role-frame root"><g transform="translate(0,0)"><path class="background" d="M0.5,0.5h350v200h-350Z" style="fill: none; stroke: #ddd;"></path><g><g class="mark-group role-axis"><g transform="translate(0.5,200.5)"><path class="background" d="M0,0h0v0h0Z" style="pointer-events: none; fill: none;"></path><g><g class="mark-rule role-axis-grid" style="pointer-events: none;"><line transform="translate(0,-200)" x2="0" y2="200" style="fill: none; stroke: #ddd; stroke-width: 1; opacity: 1;"></line><line transform="translate(43,-200)" x2="0" y2="200" style="fill: none; stroke: #ddd; stroke-width: 1; opacity: 1;"></line><line transform="translate(87,-200)" x2="0" y2="200" style="fill: none; stroke: #ddd; stroke-width: 1; opacity: 1;"></line><line transform="translate(131,-200)" x2="0" y2="200" style="fill: none; stroke: #ddd; stroke-width: 1; opacity: 1;"></line><line transform="translate(175,-200)" x2="0" y2="200" style="fill: none; stroke: #ddd; stroke-width: 1; opacity: 1;"></line><line transform="translate(218,-200)" x2="0" y2="200" style="fill: none; stroke: #ddd; stroke-width: 1; opacity: 1;"></line><line transform="translate(262,-200)" x2="0" y2="200" style="fill: none; stroke: #ddd; stroke-width: 1; opacity: 1;"></line><line transform="translate(306,-200)" x2="0" y2="200" style="fill: none; stroke: #ddd; stroke-width: 1; opacity: 1;"></line></g></g></g></g><g class="mark-group role-axis"><g transform="translate(0.5,0.5)"><path class="background" d="M0,0h0v0h0Z" style="pointer-events: none; fill: none;"></path><g><g class="mark-rule role-axis-grid" style="pointer-events: none;"><line transform="translate(0,200)" x2="350" y2="0" style="fill: none; stroke: #ddd; stroke-width: 1; opacity: 1;"></line><line transform="translate(0,160)" x2="350" y2="0" style="fill: none; stroke: #ddd; stroke-width: 1; opacity: 1;"></line><line transform="translate(0,120)" x2="350" y2="0" style="fill: none; stroke: #ddd; stroke-width: 1; opacity: 1;"></line><line transform="translate(0,80)" x2="350" y2="0" style="fill: none; stroke: #ddd; stroke-width: 1; opacity: 1;"></line><line transform="translate(0,40)" x2="350" y2="0" style="fill: none; stroke: #ddd; stroke-width: 1; opacity: 1;"></line><line transform="translate(0,0)" x2="350" y2="0" style="fill: none; stroke: #ddd; stroke-width: 1; opacity: 1;"></line></g></g></g></g><g class="mark-line role-mark layer_0_marks"><path d="M231.8729995427526,65.19999999999999L228.51223136716965,65.16L225.15146319158666,65.24000000000001L221.79069501600364,65.22L218.42992684042065,65.04000000000002L215.0691586648377,65L211.7083904892547,64.6L208.34762231367168,64.68L205.0068587105624,64.39999999999998L198.28532235939645,64.57999999999998L191.56378600823044,64.35999999999999L184.84224965706449,64.68L178.1207133058985,64.78L171.3991769547325,65.06L164.67764060356652,65.6L157.95610425240054,65.78L151.23456790123456,65.84L144.4930269775949,66.30000000000001L137.77149062642889,66.68L131.0499542752629,66.74000000000001L124.32841792409694,66.66L120.96764974851395,66.74000000000001L114.24611339734797,66.48000000000002L107.52457704618199,66.82L100.80304069501601,67.12L94.08150434385003,67.16L87.35996799268403,67.26000000000002L80.63843164151805,67.92000000000002L74.39700502972107,68.35999999999999L67.19535893918611,68.38L60.47382258802012,68.32L53.75228623685414,68.68L47.03074988568815,69.06L40.30921353452218,69.44L33.58767718335619,69.52000000000001L26.886145404663925,69.46000000000001L20.164609053497944,69.86000000000001L13.443072702331962,70.30000000000001L6.721536351165981,70.63999999999999L0,70.72" style="fill: none; stroke: #aec7e8; stroke-width: 2;"></path></g><g class="mark-line role-mark layer_1_marks"><path d="M231.8729995427526,60.22L228.51223136716965,60.120000000000005L225.15146319158666,60.03999999999999L221.79069501600364,60.08000000000001L218.42992684042065,59.91999999999999L215.0691586648377,59.84L211.7083904892547,59.75999999999999L208.34762231367168,59.30000000000001L205.0068587105624,58.80000000000001L198.28532235939645,58.47999999999999L191.56378600823044,58.16L184.84224965706449,60.120000000000005L178.1207133058985,60.06L171.3991769547325,60.17999999999998L164.67764060356652,61.30000000000001L157.95610425240054,60.860000000000014L151.23456790123456,61.099999999999994L144.4930269775949,61.75999999999999L137.77149062642889,62.84L131.0499542752629,62.69999999999999L124.32841792409694,63.22L120.96764974851395,63.44L114.24611339734797,62.25999999999999L107.52457704618199,62.579999999999984L100.80304069501601,63.379999999999995L94.08150434385003,63L87.35996799268403,63.359999999999985L80.63843164151805,65.28L74.39700502972107,65.79999999999998L67.19535893918611,65.75999999999999L60.47382258802012,66.08000000000001L53.75228623685414,67L47.03074988568815,67.35999999999999L40.30921353452218,67.19999999999999L33.58767718335619,68.06L26.886145404663925,68.34L20.164609053497944,68.74000000000001L13.443072702331962,68.88L6.721536351165981,67.75999999999999L0,66.41999999999999" style="fill: none; stroke: #ffbb78; stroke-width: 2;"></path></g><g class="mark-line role-mark layer_2_marks"><path d="M231.8729995427526,38.66L228.51223136716965,37.82000000000002L225.15146319158666,37.66L221.79069501600364,38.5L218.42992684042065,38.84L215.0691586648377,38.02000000000001L211.7083904892547,37.56L208.34762231367168,35.620000000000005L205.0068587105624,34.400000000000006L198.28532235939645,32.80000000000001L191.56378600823044,31.079999999999984L184.84224965706449,30.039999999999992L178.1207133058985,30.539999999999992L171.3991769547325,31.340000000000003L164.67764060356652,36.30000000000001L157.95610425240054,36.30000000000001L151.23456790123456,37.579999999999984L144.4930269775949,38.860000000000014L137.77149062642889,38.860000000000014L131.0499542752629,39.579999999999984L124.32841792409694,42.56L120.96764974851395,40.56L114.24611339734797,38.44L107.52457704618199,38.860000000000014L100.80304069501601,40.41999999999999L94.08150434385003,42.099999999999994L87.35996799268403,42.96000000000001L80.63843164151805,44.360000000000014L74.39700502972107,44.52000000000001L67.19535893918611,44.52000000000001L60.47382258802012,45.400000000000006L53.75228623685414,44.52000000000001L47.03074988568815,45.45999999999998L40.30921353452218,47.75999999999999L33.58767718335619,49.66L26.886145404663925,49.47999999999999L20.164609053497944,49.47999999999999L13.443072702331962,47.94L6.721536351165981,49.47999999999999L0,50.67999999999998" style="fill: none; stroke: #9467bd; stroke-width: 4;"></path></g><g class="mark-rule role-mark layer_3_marks"><line transform="translate(0,44)" x2="350" y2="0" style="fill: none; stroke: #2ca02c; stroke-width: 1; stroke-dasharray: 4,2;"></line></g><g class="mark-text role-mark layer_4_marks"><text text-anchor="end" transform="translate(350,197)" style="font-family: sans-serif; font-size: 16px; fill: #2ca02c;">78.00%</text></g><g class="mark-text role-mark layer_5_marks"><text text-anchor="end" transform="translate(350,15)" style="font-family: sans-serif; font-size: 16px; fill: #9467bd;">80.67%</text></g><g class="mark-group role-axis"><g transform="translate(0.5,200.5)"><path class="background" d="M0,0h0v0h0Z" style="pointer-events: none; fill: none;"></path><g><g class="mark-rule role-axis-tick" style="pointer-events: none;"><line transform="translate(0,0)" x2="0" y2="5" style="fill: none; stroke: #888; stroke-width: 1; opacity: 1;"></line><line transform="translate(43,0)" x2="0" y2="5" style="fill: none; stroke: #888; stroke-width: 1; opacity: 1;"></line><line transform="translate(87,0)" x2="0" y2="5" style="fill: none; stroke: #888; stroke-width: 1; opacity: 1;"></line><line transform="translate(131,0)" x2="0" y2="5" style="fill: none; stroke: #888; stroke-width: 1; opacity: 1;"></line><line transform="translate(175,0)" x2="0" y2="5" style="fill: none; stroke: #888; stroke-width: 1; opacity: 1;"></line><line transform="translate(218,0)" x2="0" y2="5" style="fill: none; stroke: #888; stroke-width: 1; opacity: 1;"></line><line transform="translate(262,0)" x2="0" y2="5" style="fill: none; stroke: #888; stroke-width: 1; opacity: 1;"></line><line transform="translate(306,0)" x2="0" y2="5" style="fill: none; stroke: #888; stroke-width: 1; opacity: 1;"></line></g><g class="mark-text role-axis-label" style="pointer-events: none;"><text text-anchor="start" transform="translate(0,15)" style="font-family: sans-serif; font-size: 10px; fill: #000; opacity: 1;">2018</text><text text-anchor="middle" transform="translate(43.18987197073617,15)" style="font-family: sans-serif; font-size: 10px; fill: #000; opacity: 1;">April</text><text text-anchor="middle" transform="translate(86.87985825331505,15)" style="font-family: sans-serif; font-size: 10px; fill: #000; opacity: 1;">July</text><text text-anchor="middle" transform="translate(131.0499542752629,15)" style="font-family: sans-serif; font-size: 10px; fill: #000; opacity: 1;">October</text><text text-anchor="middle" transform="translate(175.24005486968449,15)" style="font-family: sans-serif; font-size: 10px; fill: #000; opacity: 1;">2019</text><text text-anchor="middle" transform="translate(218.42992684042065,15)" style="font-family: sans-serif; font-size: 10px; fill: #000; opacity: 1;">April</text><text text-anchor="middle" transform="translate(262.11991312299955,15)" style="font-family: sans-serif; font-size: 10px; fill: #000; opacity: 1;">July</text><text text-anchor="middle" transform="translate(306.2900091449474,15)" style="font-family: sans-serif; font-size: 10px; fill: #000; opacity: 1;">October</text></g><g class="mark-rule role-axis-domain" style="pointer-events: none;"><line transform="translate(0,0)" x2="350" y2="0" style="fill: none; stroke: #888; stroke-width: 1; opacity: 1;"></line></g></g></g></g><g class="mark-group role-axis"><g transform="translate(0.5,0.5)"><path class="background" d="M0,0h0v0h0Z" style="pointer-events: none; fill: none;"></path><g><g class="mark-rule role-axis-tick" style="pointer-events: none;"><line transform="translate(0,200)" x2="-5" y2="0" style="fill: none; stroke: #888; stroke-width: 1; opacity: 1;"></line><line transform="translate(0,160)" x2="-5" y2="0" style="fill: none; stroke: #888; stroke-width: 1; opacity: 1;"></line><line transform="translate(0,120)" x2="-5" y2="0" style="fill: none; stroke: #888; stroke-width: 1; opacity: 1;"></line><line transform="translate(0,80)" x2="-5" y2="0" style="fill: none; stroke: #888; stroke-width: 1; opacity: 1;"></line><line transform="translate(0,40)" x2="-5" y2="0" style="fill: none; stroke: #888; stroke-width: 1; opacity: 1;"></line><line transform="translate(0,0)" x2="-5" y2="0" style="fill: none; stroke: #888; stroke-width: 1; opacity: 1;"></line></g><g class="mark-text role-axis-label" style="pointer-events: none;"><text text-anchor="end" transform="translate(-7,203)" style="font-family: sans-serif; font-size: 10px; fill: #000; opacity: 1;">0%</text><text text-anchor="end" transform="translate(-7,163)" style="font-family: sans-serif; font-size: 10px; fill: #000; opacity: 1;">20%</text><text text-anchor="end" transform="translate(-7,123)" style="font-family: sans-serif; font-size: 10px; fill: #000; opacity: 1;">40%</text><text text-anchor="end" transform="translate(-7,83)" style="font-family: sans-serif; font-size: 10px; fill: #000; opacity: 1;">60%</text><text text-anchor="end" transform="translate(-7,43)" style="font-family: sans-serif; font-size: 10px; fill: #000; opacity: 1;">80%</text><text text-anchor="end" transform="translate(-7,3)" style="font-family: sans-serif; font-size: 10px; fill: #000; opacity: 1;">100%</text></g><g class="mark-rule role-axis-domain" style="pointer-events: none;"><line transform="translate(0,200)" x2="0" y2="-200" style="fill: none; stroke: #888; stroke-width: 1; opacity: 1;"></line></g></g></g></g></g></g></g></g></svg>