<svg class="marks" width="397" height="234" viewBox="0 0 397 234" version="1.1" xmlns="http://www.w3.org/2000/svg" xmlns:xlink="http://www.w3.org/1999/xlink"><g transform="translate(41,11)"><g class="mark-group role-frame root"><g transform="translate(0,0)"><path class="background" d="M0.5,0.5h350v200h-350Z" style="fill: none; stroke: #ddd;"></path><g><g class="mark-group role-axis"><g transform="translate(0.5,200.5)"><path class="background" d="M0,0h0v0h0Z" style="pointer-events: none; fill: none;"></path><g><g class="mark-rule role-axis-grid" style="pointer-events: none;"><line transform="translate(0,-200)" x2="0" y2="200" style="fill: none; stroke: #ddd; stroke-width: 1; opacity: 1;"></line><line transform="translate(43,-200)" x2="0" y2="200" style="fill: none; stroke: #ddd; stroke-width: 1; opacity: 1;"></line><line transform="translate(87,-200)" x2="0" y2="200" style="fill: none; stroke: #ddd; stroke-width: 1; opacity: 1;"></line><line transform="translate(131,-200)" x2="0" y2="200" style="fill: none; stroke: #ddd; stroke-width: 1; opacity: 1;"></line><line transform="translate(175,-200)" x2="0" y2="200" style="fill: none; stroke: #ddd; stroke-width: 1; opacity: 1;"></line><line transform="translate(218,-200)" x2="0" y2="200" style="fill: none; stroke: #ddd; stroke-width: 1; opacity: 1;"></line><line transform="translate(262,-200)" x2="0" y2="200" style="fill: none; stroke: #ddd; stroke-width: 1; opacity: 1;"></line><line transform="translate(306,-200)" x2="0" y2="200" style="fill: none; stroke: #ddd; stroke-width: 1; opacity: 1;"></line></g></g></g></g><g class="mark-group role-axis"><g transform="translate(0.5,0.5)"><path class="background" d="M0,0h0v0h0Z" style="pointer-events: none; fill: none;"></path><g><g class="mark-rule role-axis-grid" style="pointer-events: none;"><line transform="translate(0,200)" x2="350" y2="0" style="fill: none; stroke: #ddd; stroke-width: 1; opacity: 1;"></line><line transform="translate(0,160)" x2="350" y2="0" style="fill: none; stroke: #ddd; stroke-width: 1; opacity: 1;"></line><line transform="translate(0,120)" x2="350" y2="0" style="fill: none; stroke: #ddd; stroke-width: 1; opacity: 1;"></line><line transform="translate(0,80)" x2="350" y2="0" style="fill: none; stroke: #ddd; stroke-width: 1; opacity: 1;"></line><line transform="translate(0,40)" x2="350" y2="0" style="fill: none; stroke: #ddd; stroke-width: 1; opacity: 1;"></line><line transform="translate(0,0)" x2="350" y2="0" style="fill: none; stroke: #ddd; stroke-width: 1; opacity: 1;"></line></g></g></g></g><g class="mark-line role-mark layer_0_marks"><path d="M228.51223136716965,40.01999999999998L225.15146319158666,40L221.79069501600364,39.91999999999999L218.42992684042065,39.94L215.0691586648377,40.08000000000001L211.7083904892547,40.099999999999994L208.34762231367168,40.18000000000001L205.0068587105624,40.120000000000005L198.28532235939645,40.04000000000002L191.56378600823044,40.139999999999986L184.84224965706449,40.31999999999999L178.1207133058985,40.139999999999986L171.3991769547325,40.01999999999998L164.67764060356652,40.06L157.95610425240054,40.379999999999995L151.23456790123456,40.24000000000001L144.4930269775949,40.599999999999994L137.77149062642889,41.120000000000005L131.0499542752629,41.56L124.32841792409694,41.78L120.96764974851395,41.78L114.24611339734797,41.79999999999998L107.52457704618199,41.84L100.80304069501601,34.73999999999998L94.08150434385003,42L87.35996799268403,42.099999999999994L80.63843164151805,42.639999999999986L74.39700502972107,42.75999999999999L67.19535893918611,42.920000000000016L60.47382258802012,43.19999999999999L53.75228623685414,43.400000000000006L47.03074988568815,43.639999999999986L40.30921353452218,43.78L33.58767718335619,44.06L26.886145404663925,44.46000000000001L20.164609053497944,44.860000000000014L13.443072702331962,45.53999999999999L6.721536351165981,45.379999999999995L0,45.579999999999984" style="fill: none; stroke: #aec7e8; stroke-width: 2;"></path></g><g class="mark-line role-mark layer_1_marks"><path d="M228.51223136716965,40.860000000000014L225.15146319158666,40.56L221.79069501600364,40.56L218.42992684042065,40.91999999999999L215.0691586648377,41.26000000000002L211.7083904892547,41.640000000000015L208.34762231367168,41.81999999999999L205.0068587105624,42.08000000000001L198.28532235939645,42.66L191.56378600823044,42.94L184.84224965706449,44.599999999999994L178.1207133058985,44.620000000000005L171.3991769547325,44.78L164.67764060356652,45.099999999999994L157.95610425240054,45.19999999999999L151.23456790123456,45.379999999999995L144.4930269775949,46.31999999999999L137.77149062642889,47.16L131.0499542752629,48.900000000000006L124.32841792409694,49.47999999999999L120.96764974851395,49.80000000000001L114.24611339734797,50.120000000000005L107.52457704618199,50.29999999999998L100.80304069501601,42.81999999999999L94.08150434385003,51.099999999999994L87.35996799268403,51.02000000000001L80.63843164151805,51.599999999999994L74.39700502972107,52.28L67.19535893918611,52.91999999999999L60.47382258802012,53.68000000000001L53.75228623685414,53.599999999999994L47.03074988568815,53.94L40.30921353452218,54.379999999999995L33.58767718335619,54.78L26.886145404663925,55.51999999999998L20.164609053497944,55.859999999999985L13.443072702331962,55.69999999999999L6.721536351165981,55.400000000000006L0,55.360000000000014" style="fill: none; stroke: #ffbb78; stroke-width: 2;"></path></g><g class="mark-line role-mark layer_2_marks"><path d="M228.51223136716965,34.46000000000001L225.15146319158666,34.099999999999994L221.79069501600364,34.58000000000001L218.42992684042065,34.69999999999999L215.0691586648377,34.31999999999999L211.7083904892547,35L208.34762231367168,34.860000000000014L205.0068587105624,35.16L198.28532235939645,35.53999999999999L191.56378600823044,35.20000000000002L184.84224965706449,34.75999999999999L178.1207133058985,35.20000000000002L171.3991769547325,35.28L164.67764060356652,37.02000000000001L157.95610425240054,36.95999999999998L151.23456790123456,36.78L144.4930269775949,37.17999999999998L137.77149062642889,39.53999999999999L131.0499542752629,40.66L124.32841792409694,41.06L120.96764974851395,41.46000000000001L114.24611339734797,40.94L107.52457704618199,40.94L100.80304069501601,34.95999999999998L94.08150434385003,41.34L87.35996799268403,41.66L80.63843164151805,42.34L74.39700502972107,42.34L67.19535893918611,42.79999999999998L60.47382258802012,43.359999999999985L53.75228623685414,42.75999999999999L47.03074988568815,42.75999999999999L40.30921353452218,43.44L33.58767718335619,44.26000000000002L26.886145404663925,44.599999999999994L20.164609053497944,45.120000000000005L13.443072702331962,46.379999999999995L6.721536351165981,46.80000000000001L0,46.80000000000001" style="fill: none; stroke: #9467bd; stroke-width: 4;"></path></g><g class="mark-rule role-mark layer_3_marks"><line transform="translate(0,40)" x2="350" y2="0" style="fill: none; stroke: #2ca02c; stroke-width: 1; stroke-dasharray: 4,2;"></line></g><g class="mark-text role-mark layer_4_marks"><text text-anchor="end" transform="translate(350,197)" style="font-family: sans-serif; font-size: 16px; fill: #2ca02c;">80.00%</text></g><g class="mark-text role-mark layer_5_marks"><text text-anchor="end" transform="translate(350,15)" style="font-family: sans-serif; font-size: 16px; fill: #9467bd;">82.77%</text></g><g class="mark-group role-axis"><g transform="translate(0.5,200.5)"><path class="background" d="M0,0h0v0h0Z" style="pointer-events: none; fill: none;"></path><g><g class="mark-rule role-axis-tick" style="pointer-events: none;"><line transform="translate(0,0)" x2="0" y2="5" style="fill: none; stroke: #888; stroke-width: 1; opacity: 1;"></line><line transform="translate(43,0)" x2="0" y2="5" style="fill: none; stroke: #888; stroke-width: 1; opacity: 1;"></line><line transform="translate(87,0)" x2="0" y2="5" style="fill: none; stroke: #888; stroke-width: 1; opacity: 1;"></line><line transform="translate(131,0)" x2="0" y2="5" style="fill: none; stroke: #888; stroke-width: 1; opacity: 1;"></line><line transform="translate(175,0)" x2="0" y2="5" style="fill: none; stroke: #888; stroke-width: 1; opacity: 1;"></line><line transform="translate(218,0)" x2="0" y2="5" style="fill: none; stroke: #888; stroke-width: 1; opacity: 1;"></line><line transform="translate(262,0)" x2="0" y2="5" style="fill: none; stroke: #888; stroke-width: 1; opacity: 1;"></line><line transform="translate(306,0)" x2="0" y2="5" style="fill: none; stroke: #888; stroke-width: 1; opacity: 1;"></line></g><g class="mark-text role-axis-label" style="pointer-events: none;"><text text-anchor="start" transform="translate(0,15)" style="font-family: sans-serif; font-size: 10px; fill: #000; opacity: 1;">2018</text><text text-anchor="middle" transform="translate(43.18987197073617,15)" style="font-family: sans-serif; font-size: 10px; fill: #000; opacity: 1;">April</text><text text-anchor="middle" transform="translate(86.87985825331505,15)" style="font-family: sans-serif; font-size: 10px; fill: #000; opacity: 1;">July</text><text text-anchor="middle" transform="translate(131.0499542752629,15)" style="font-family: sans-serif; font-size: 10px; fill: #000; opacity: 1;">October</text><text text-anchor="middle" transform="translate(175.24005486968449,15)" style="font-family: sans-serif; font-size: 10px; fill: #000; opacity: 1;">2019</text><text text-anchor="middle" transform="translate(218.42992684042065,15)" style="font-family: sans-serif; font-size: 10px; fill: #000; opacity: 1;">April</text><text text-anchor="middle" transform="translate(262.11991312299955,15)" style="font-family: sans-serif; font-size: 10px; fill: #000; opacity: 1;">July</text><text text-anchor="middle" transform="translate(306.2900091449474,15)" style="font-family: sans-serif; font-size: 10px; fill: #000; opacity: 1;">October</text></g><g class="mark-rule role-axis-domain" style="pointer-events: none;"><line transform="translate(0,0)" x2="350" y2="0" style="fill: none; stroke: #888; stroke-width: 1; opacity: 1;"></line></g></g></g></g><g class="mark-group role-axis"><g transform="translate(0.5,0.5)"><path class="background" d="M0,0h0v0h0Z" style="pointer-events: none; fill: none;"></path><g><g class="mark-rule role-axis-tick" style="pointer-events: none;"><line transform="translate(0,200)" x2="-5" y2="0" style="fill: none; stroke: #888; stroke-width: 1; opacity: 1;"></line><line transform="translate(0,160)" x2="-5" y2="0" style="fill: none; stroke: #888; stroke-width: 1; opacity: 1;"></line><line transform="translate(0,120)" x2="-5" y2="0" style="fill: none; stroke: #888; stroke-width: 1; opacity: 1;"></line><line transform="translate(0,80)" x2="-5" y2="0" style="fill: none; stroke: #888; stroke-width: 1; opacity: 1;"></line><line transform="translate(0,40)" x2="-5" y2="0" style="fill: none; stroke: #888; stroke-width: 1; opacity: 1;"></line><line transform="translate(0,0)" x2="-5" y2="0" style="fill: none; stroke: #888; stroke-width: 1; opacity: 1;"></line></g><g class="mark-text role-axis-label" style="pointer-events: none;"><text text-anchor="end" transform="translate(-7,203)" style="font-family: sans-serif; font-size: 10px; fill: #000; opacity: 1;">0%</text><text text-anchor="end" transform="translate(-7,163)" style="font-family: sans-serif; font-size: 10px; fill: #000; opacity: 1;">20%</text><text text-anchor="end" transform="translate(-7,123)" style="font-family: sans-serif; font-size: 10px; fill: #000; opacity: 1;">40%</text><text text-anchor="end" transform="translate(-7,83)" style="font-family: sans-serif; font-size: 10px; fill: #000; opacity: 1;">60%</text><text text-anchor="end" transform="translate(-7,43)" style="font-family: sans-serif; font-size: 10px; fill: #000; opacity: 1;">80%</text><text text-anchor="end" transform="translate(-7,3)" style="font-family: sans-serif; font-size: 10px; fill: #000; opacity: 1;">100%</text></g><g class="mark-rule role-axis-domain" style="pointer-events: none;"><line transform="translate(0,200)" x2="0" y2="-200" style="fill: none; stroke: #888; stroke-width: 1; opacity: 1;"></line></g></g></g></g></g></g></g></g></svg>