<svg class="marks" width="395" height="234" viewBox="0 0 395 234" version="1.1" xmlns="http://www.w3.org/2000/svg" xmlns:xlink="http://www.w3.org/1999/xlink"><g transform="translate(39,11)"><g class="mark-group role-frame root"><g transform="translate(0,0)"><path class="background" d="M0.5,0.5h350v200h-350Z" style="fill: none; stroke: #ddd;"></path><g><g class="mark-group role-axis"><g transform="translate(0.5,200.5)"><path class="background" d="M0,0h0v0h0Z" style="pointer-events: none; fill: none;"></path><g><g class="mark-rule role-axis-grid" style="pointer-events: none;"><line transform="translate(0,-200)" x2="0" y2="200" style="fill: none; stroke: #ddd; stroke-width: 1; opacity: 1;"></line><line transform="translate(43,-200)" x2="0" y2="200" style="fill: none; stroke: #ddd; stroke-width: 1; opacity: 1;"></line><line transform="translate(87,-200)" x2="0" y2="200" style="fill: none; stroke: #ddd; stroke-width: 1; opacity: 1;"></line><line transform="translate(131,-200)" x2="0" y2="200" style="fill: none; stroke: #ddd; stroke-width: 1; opacity: 1;"></line><line transform="translate(175,-200)" x2="0" y2="200" style="fill: none; stroke: #ddd; stroke-width: 1; opacity: 1;"></line><line transform="translate(218,-200)" x2="0" y2="200" style="fill: none; stroke: #ddd; stroke-width: 1; opacity: 1;"></line><line transform="translate(262,-200)" x2="0" y2="200" style="fill: none; stroke: #ddd; stroke-width: 1; opacity: 1;"></line><line transform="translate(306,-200)" x2="0" y2="200" style="fill: none; stroke: #ddd; stroke-width: 1; opacity: 1;"></line></g></g></g></g><g class="mark-group role-axis"><g transform="translate(0.5,0.5)"><path class="background" d="M0,0h0v0h0Z" style="pointer-events: none; fill: none;"></path><g><g class="mark-rule role-axis-grid" style="pointer-events: none;"><line transform="translate(0,200)" x2="350" y2="0" style="fill: none; stroke: #ddd; stroke-width: 1; opacity: 1;"></line><line transform="translate(0,160)" x2="350" y2="0" style="fill: none; stroke: #ddd; stroke-width: 1; opacity: 1;"></line><line transform="translate(0,120)" x2="350" y2="0" style="fill: none; stroke: #ddd; stroke-width: 1; opacity: 1;"></line><line transform="translate(0,80)" x2="350" y2="0" style="fill: none; stroke: #ddd; stroke-width: 1; opacity: 1;"></line><line transform="translate(0,40)" x2="350" y2="0" style="fill: none; stroke: #ddd; stroke-width: 1; opacity: 1;"></line><line transform="translate(0,0)" x2="350" y2="0" style="fill: none; stroke: #ddd; stroke-width: 1; opacity: 1;"></line></g></g></g></g><g class="mark-line role-mark layer_0_marks"><path d="M215.0691586648377,50.360000000000014L211.7083904892547,50.44L208.34762231367168,50.639999999999986L205.0068587105624,50.52000000000001L198.28532235939645,50.89999999999998L171.3991769547325,51.24000000000001L164.67764060356652,51.41999999999999L157.95610425240054,51.879999999999995L151.23456790123456,52L144.4930269775949,52.22L137.77149062642889,52.47999999999999L131.0499542752629,52.32000000000002L124.32841792409694,52.54000000000002L120.96764974851395,52.28L114.24611339734797,52.120000000000005L107.52457704618199,52.120000000000005L100.80304069501601,52.44L94.08150434385003,52.29999999999998L87.35996799268403,52.54000000000002L80.63843164151805,53.140000000000015L74.39700502972107,53.22L67.19535893918611,53.079999999999984L60.47382258802012,52.599999999999994L53.75228623685414,52.76000000000002L47.03074988568815,52.76000000000002L40.30921353452218,52.78L33.58767718335619,53.16L26.886145404663925,53.29999999999998L20.164609053497944,53.44L13.443072702331962,53.91999999999999L6.721536351165981,53.639999999999986L0,53.859999999999985" style="fill: none; stroke: #aec7e8; stroke-width: 2;"></path></g><g class="mark-line role-mark layer_1_marks"><path d="M215.0691586648377,56.51999999999998L211.7083904892547,55.620000000000005L208.34762231367168,55.81999999999999L205.0068587105624,55.81999999999999L198.28532235939645,56.94L171.3991769547325,55.879999999999995L164.67764060356652,57.139999999999986L157.95610425240054,56.91999999999999L151.23456790123456,57.079999999999984L144.4930269775949,57.81999999999999L137.77149062642889,57.91999999999999L131.0499542752629,57.640000000000015L124.32841792409694,58.860000000000014L120.96764974851395,58.81999999999999L114.24611339734797,59L107.52457704618199,58.94L100.80304069501601,59.84L94.08150434385003,59.400000000000006L87.35996799268403,58.84L80.63843164151805,60L74.39700502972107,60.72L67.19535893918611,60.16L60.47382258802012,59.84L53.75228623685414,60L47.03074988568815,58.139999999999986L40.30921353452218,58.75999999999999L33.58767718335619,58.78L26.886145404663925,57.73999999999998L20.164609053497944,58L13.443072702331962,57.25999999999999L6.721536351165981,58.24000000000001L0,58.31999999999999" style="fill: none; stroke: #ffbb78; stroke-width: 2;"></path></g><g class="mark-line role-mark layer_2_marks"><path d="M215.0691586648377,55.56L211.7083904892547,55.56L208.34762231367168,55.56L205.0068587105624,55.56L198.28532235939645,62.95999999999998L171.3991769547325,62.95999999999998L164.67764060356652,62.95999999999998L157.95610425240054,62.95999999999998L151.23456790123456,60.72L144.4930269775949,60.72L137.77149062642889,64.28L131.0499542752629,66.66L124.32841792409694,66.66L120.96764974851395,68.96000000000001L114.24611339734797,68.96000000000001L107.52457704618199,71.18L100.80304069501601,68.96000000000001L94.08150434385003,68.96000000000001L87.35996799268403,67.79999999999998L80.63843164151805,67.79999999999998L74.39700502972107,67.79999999999998L67.19535893918611,67.79999999999998L60.47382258802012,67.79999999999998L53.75228623685414,67.74000000000001L47.03074988568815,66.66L40.30921353452218,64.52000000000001L33.58767718335619,66.66L26.886145404663925,64.62L20.164609053497944,64.62L13.443072702331962,63.640000000000015L6.721536351165981,65.68L0,65.68" style="fill: none; stroke: #9467bd; stroke-width: 4;"></path></g><g class="mark-rule role-mark layer_3_marks"><line transform="translate(0,40)" x2="350" y2="0" style="fill: none; stroke: #2ca02c; stroke-width: 1; stroke-dasharray: 4,2;"></line></g><g class="mark-text role-mark layer_4_marks"><text text-anchor="end" transform="translate(350,197)" style="font-family: sans-serif; font-size: 16px; fill: #2ca02c;">80.00%</text></g><g class="mark-text role-mark layer_5_marks"><text text-anchor="end" transform="translate(350,15)" style="font-family: sans-serif; font-size: 16px; fill: #9467bd;">72.22%</text></g><g class="mark-group role-axis"><g transform="translate(0.5,200.5)"><path class="background" d="M0,0h0v0h0Z" style="pointer-events: none; fill: none;"></path><g><g class="mark-rule role-axis-tick" style="pointer-events: none;"><line transform="translate(0,0)" x2="0" y2="5" style="fill: none; stroke: #888; stroke-width: 1; opacity: 1;"></line><line transform="translate(43,0)" x2="0" y2="5" style="fill: none; stroke: #888; stroke-width: 1; opacity: 1;"></line><line transform="translate(87,0)" x2="0" y2="5" style="fill: none; stroke: #888; stroke-width: 1; opacity: 1;"></line><line transform="translate(131,0)" x2="0" y2="5" style="fill: none; stroke: #888; stroke-width: 1; opacity: 1;"></line><line transform="translate(175,0)" x2="0" y2="5" style="fill: none; stroke: #888; stroke-width: 1; opacity: 1;"></line><line transform="translate(218,0)" x2="0" y2="5" style="fill: none; stroke: #888; stroke-width: 1; opacity: 1;"></line><line transform="translate(262,0)" x2="0" y2="5" style="fill: none; stroke: #888; stroke-width: 1; opacity: 1;"></line><line transform="translate(306,0)" x2="0" y2="5" style="fill: none; stroke: #888; stroke-width: 1; opacity: 1;"></line></g><g class="mark-text role-axis-label" style="pointer-events: none;"><text text-anchor="start" transform="translate(0,15)" style="font-family: sans-serif; font-size: 10px; fill: #000; opacity: 1;">2018</text><text text-anchor="middle" transform="translate(43.18987197073617,15)" style="font-family: sans-serif; font-size: 10px; fill: #000; opacity: 1;">April</text><text text-anchor="middle" transform="translate(86.87985825331505,15)" style="font-family: sans-serif; font-size: 10px; fill: #000; opacity: 1;">July</text><text text-anchor="middle" transform="translate(131.0499542752629,15)" style="font-family: sans-serif; font-size: 10px; fill: #000; opacity: 1;">October</text><text text-anchor="middle" transform="translate(175.24005486968449,15)" style="font-family: sans-serif; font-size: 10px; fill: #000; opacity: 1;">2019</text><text text-anchor="middle" transform="translate(218.42992684042065,15)" style="font-family: sans-serif; font-size: 10px; fill: #000; opacity: 1;">April</text><text text-anchor="middle" transform="translate(262.11991312299955,15)" style="font-family: sans-serif; font-size: 10px; fill: #000; opacity: 1;">July</text><text text-anchor="middle" transform="translate(306.2900091449474,15)" style="font-family: sans-serif; font-size: 10px; fill: #000; opacity: 1;">October</text></g><g class="mark-rule role-axis-domain" style="pointer-events: none;"><line transform="translate(0,0)" x2="350" y2="0" style="fill: none; stroke: #888; stroke-width: 1; opacity: 1;"></line></g></g></g></g><g class="mark-group role-axis"><g transform="translate(0.5,0.5)"><path class="background" d="M0,0h0v0h0Z" style="pointer-events: none; fill: none;"></path><g><g class="mark-rule role-axis-tick" style="pointer-events: none;"><line transform="translate(0,200)" x2="-5" y2="0" style="fill: none; stroke: #888; stroke-width: 1; opacity: 1;"></line><line transform="translate(0,160)" x2="-5" y2="0" style="fill: none; stroke: #888; stroke-width: 1; opacity: 1;"></line><line transform="translate(0,120)" x2="-5" y2="0" style="fill: none; stroke: #888; stroke-width: 1; opacity: 1;"></line><line transform="translate(0,80)" x2="-5" y2="0" style="fill: none; stroke: #888; stroke-width: 1; opacity: 1;"></line><line transform="translate(0,40)" x2="-5" y2="0" style="fill: none; stroke: #888; stroke-width: 1; opacity: 1;"></line><line transform="translate(0,0)" x2="-5" y2="0" style="fill: none; stroke: #888; stroke-width: 1; opacity: 1;"></line></g><g class="mark-text role-axis-label" style="pointer-events: none;"><text text-anchor="end" transform="translate(-7,203)" style="font-family: sans-serif; font-size: 10px; fill: #000; opacity: 1;">0%</text><text text-anchor="end" transform="translate(-7,163)" style="font-family: sans-serif; font-size: 10px; fill: #000; opacity: 1;">20%</text><text text-anchor="end" transform="translate(-7,123)" style="font-family: sans-serif; font-size: 10px; fill: #000; opacity: 1;">40%</text><text text-anchor="end" transform="translate(-7,83)" style="font-family: sans-serif; font-size: 10px; fill: #000; opacity: 1;">60%</text><text text-anchor="end" transform="translate(-7,43)" style="font-family: sans-serif; font-size: 10px; fill: #000; opacity: 1;">80%</text><text text-anchor="end" transform="translate(-7,3)" style="font-family: sans-serif; font-size: 10px; fill: #000; opacity: 1;">100%</text></g><g class="mark-rule role-axis-domain" style="pointer-events: none;"><line transform="translate(0,200)" x2="0" y2="-200" style="fill: none; stroke: #888; stroke-width: 1; opacity: 1;"></line></g></g></g></g></g></g></g></g></svg>