<svg class="marks" width="397" height="234" viewBox="0 0 397 234" version="1.1" xmlns="http://www.w3.org/2000/svg" xmlns:xlink="http://www.w3.org/1999/xlink"><g transform="translate(41,11)"><g class="mark-group role-frame root"><g transform="translate(0,0)"><path class="background" d="M0.5,0.5h350v200h-350Z" style="fill: none; stroke: #ddd;"></path><g><g class="mark-group role-axis"><g transform="translate(0.5,200.5)"><path class="background" d="M0,0h0v0h0Z" style="pointer-events: none; fill: none;"></path><g><g class="mark-rule role-axis-grid" style="pointer-events: none;"><line transform="translate(0,-200)" x2="0" y2="200" style="fill: none; stroke: #ddd; stroke-width: 1; opacity: 1;"></line><line transform="translate(43,-200)" x2="0" y2="200" style="fill: none; stroke: #ddd; stroke-width: 1; opacity: 1;"></line><line transform="translate(87,-200)" x2="0" y2="200" style="fill: none; stroke: #ddd; stroke-width: 1; opacity: 1;"></line><line transform="translate(131,-200)" x2="0" y2="200" style="fill: none; stroke: #ddd; stroke-width: 1; opacity: 1;"></line><line transform="translate(175,-200)" x2="0" y2="200" style="fill: none; stroke: #ddd; stroke-width: 1; opacity: 1;"></line><line transform="translate(218,-200)" x2="0" y2="200" style="fill: none; stroke: #ddd; stroke-width: 1; opacity: 1;"></line><line transform="translate(262,-200)" x2="0" y2="200" style="fill: none; stroke: #ddd; stroke-width: 1; opacity: 1;"></line><line transform="translate(306,-200)" x2="0" y2="200" style="fill: none; stroke: #ddd; stroke-width: 1; opacity: 1;"></line></g></g></g></g><g class="mark-group role-axis"><g transform="translate(0.5,0.5)"><path class="background" d="M0,0h0v0h0Z" style="pointer-events: none; fill: none;"></path><g><g class="mark-rule role-axis-grid" style="pointer-events: none;"><line transform="translate(0,200)" x2="350" y2="0" style="fill: none; stroke: #ddd; stroke-width: 1; opacity: 1;"></line><line transform="translate(0,160)" x2="350" y2="0" style="fill: none; stroke: #ddd; stroke-width: 1; opacity: 1;"></line><line transform="translate(0,120)" x2="350" y2="0" style="fill: none; stroke: #ddd; stroke-width: 1; opacity: 1;"></line><line transform="translate(0,80)" x2="350" y2="0" style="fill: none; stroke: #ddd; stroke-width: 1; opacity: 1;"></line><line transform="translate(0,40)" x2="350" y2="0" style="fill: none; stroke: #ddd; stroke-width: 1; opacity: 1;"></line><line transform="translate(0,0)" x2="350" y2="0" style="fill: none; stroke: #ddd; stroke-width: 1; opacity: 1;"></line></g></g></g></g><g class="mark-line role-mark layer_0_marks"><path d="M228.51223136716965,47.78L225.15146319158666,47.84L221.79069501600364,47.94L218.42992684042065,48.120000000000005L215.0691586648377,48.23999999999998L211.7083904892547,48.360000000000014L208.34762231367168,48.5L205.0068587105624,48.78L198.28532235939645,48.639999999999986L191.56378600823044,48.67999999999998L184.84224965706449,48.84L178.1207133058985,48.56L171.3991769547325,48.41999999999999L164.67764060356652,48.44L157.95610425240054,48.41999999999999L151.23456790123456,47.96000000000001L144.4930269775949,47.900000000000006L137.77149062642889,47.900000000000006L131.0499542752629,47.97999999999999L124.32841792409694,47.920000000000016L120.96764974851395,48.140000000000015L114.24611339734797,47.56L107.52457704618199,47.879999999999995L100.80304069501601,47.48000000000002L94.08150434385003,47.25999999999999L87.35996799268403,47.19999999999999L80.63843164151805,47.81999999999999L74.39700502972107,48L67.19535893918611,47.900000000000006L60.47382258802012,47.67999999999998L53.75228623685414,47.639999999999986L47.03074988568815,47.30000000000001L40.30921353452218,47.08000000000001L33.58767718335619,47.120000000000005L26.886145404663925,47.44L20.164609053497944,47.75999999999999L13.443072702331962,48.31999999999999L6.721536351165981,47.96000000000001L0,47.620000000000005" style="fill: none; stroke: #aec7e8; stroke-width: 2;"></path></g><g class="mark-line role-mark layer_1_marks"><path d="M228.51223136716965,48.25999999999999L225.15146319158666,48.639999999999986L221.79069501600364,48.94L218.42992684042065,49.22L215.0691586648377,49.52000000000001L211.7083904892547,49.22L208.34762231367168,49.620000000000005L205.0068587105624,49.80000000000001L198.28532235939645,50.379999999999995L191.56378600823044,50.58000000000001L184.84224965706449,49.72L178.1207133058985,48.66L171.3991769547325,48.96000000000001L164.67764060356652,48.859999999999985L157.95610425240054,48.67999999999998L151.23456790123456,47.28L144.4930269775949,47.379999999999995L137.77149062642889,48.31999999999999L131.0499542752629,48.03999999999999L124.32841792409694,46.84L120.96764974851395,47.01999999999998L114.24611339734797,46.56L107.52457704618199,46.920000000000016L100.80304069501601,46.920000000000016L94.08150434385003,45.97999999999999L87.35996799268403,45.120000000000005L80.63843164151805,44.70000000000002L74.39700502972107,44.400000000000006L67.19535893918611,44.31999999999999L60.47382258802012,45.16L53.75228623685414,45.45999999999998L47.03074988568815,45.620000000000005L40.30921353452218,45.120000000000005L33.58767718335619,45.599999999999994L26.886145404663925,46.03999999999999L20.164609053497944,46.099999999999994L13.443072702331962,46.74000000000001L6.721536351165981,47.10000000000002L0,46" style="fill: none; stroke: #ffbb78; stroke-width: 2;"></path></g><g class="mark-line role-mark layer_2_marks"><path d="M228.51223136716965,34.78L225.15146319158666,31.120000000000005L221.79069501600364,31.120000000000005L218.42992684042065,31.120000000000005L215.0691586648377,31.120000000000005L211.7083904892547,31.120000000000005L208.34762231367168,31.120000000000005L205.0068587105624,26.659999999999997L198.28532235939645,27.28L191.56378600823044,27.28L184.84224965706449,27.28L178.1207133058985,22.22L171.3991769547325,22.22L164.67764060356652,26.659999999999997L157.95610425240054,26.659999999999997L151.23456790123456,26.659999999999997L144.4930269775949,30.439999999999998L137.77149062642889,31.120000000000005L131.0499542752629,27.28L124.32841792409694,27.28L120.96764974851395,27.28L114.24611339734797,27.28L107.52457704618199,26.659999999999997L100.80304069501601,34.78L94.08150434385003,31.120000000000005L87.35996799268403,31.120000000000005L80.63843164151805,31.819999999999993L74.39700502972107,31.819999999999993L67.19535893918611,31.819999999999993L60.47382258802012,33.34L53.75228623685414,33.34L47.03074988568815,34.139999999999986L40.30921353452218,30.76000000000002L33.58767718335619,27.02000000000001L26.886145404663925,22.859999999999985L20.164609053497944,24.24000000000001L13.443072702331962,25.80000000000001L6.721536351165981,21.060000000000002L0,14.280000000000001" style="fill: none; stroke: #9467bd; stroke-width: 4;"></path></g><g class="mark-rule role-mark layer_3_marks"><line transform="translate(0,40)" x2="350" y2="0" style="fill: none; stroke: #2ca02c; stroke-width: 1; stroke-dasharray: 4,2;"></line></g><g class="mark-text role-mark layer_4_marks"><text text-anchor="end" transform="translate(350,197)" style="font-family: sans-serif; font-size: 16px; fill: #2ca02c;">80.00%</text></g><g class="mark-text role-mark layer_5_marks"><text text-anchor="end" transform="translate(350,15)" style="font-family: sans-serif; font-size: 16px; fill: #9467bd;">82.61%</text></g><g class="mark-group role-axis"><g transform="translate(0.5,200.5)"><path class="background" d="M0,0h0v0h0Z" style="pointer-events: none; fill: none;"></path><g><g class="mark-rule role-axis-tick" style="pointer-events: none;"><line transform="translate(0,0)" x2="0" y2="5" style="fill: none; stroke: #888; stroke-width: 1; opacity: 1;"></line><line transform="translate(43,0)" x2="0" y2="5" style="fill: none; stroke: #888; stroke-width: 1; opacity: 1;"></line><line transform="translate(87,0)" x2="0" y2="5" style="fill: none; stroke: #888; stroke-width: 1; opacity: 1;"></line><line transform="translate(131,0)" x2="0" y2="5" style="fill: none; stroke: #888; stroke-width: 1; opacity: 1;"></line><line transform="translate(175,0)" x2="0" y2="5" style="fill: none; stroke: #888; stroke-width: 1; opacity: 1;"></line><line transform="translate(218,0)" x2="0" y2="5" style="fill: none; stroke: #888; stroke-width: 1; opacity: 1;"></line><line transform="translate(262,0)" x2="0" y2="5" style="fill: none; stroke: #888; stroke-width: 1; opacity: 1;"></line><line transform="translate(306,0)" x2="0" y2="5" style="fill: none; stroke: #888; stroke-width: 1; opacity: 1;"></line></g><g class="mark-text role-axis-label" style="pointer-events: none;"><text text-anchor="start" transform="translate(0,15)" style="font-family: sans-serif; font-size: 10px; fill: #000; opacity: 1;">2018</text><text text-anchor="middle" transform="translate(43.18987197073617,15)" style="font-family: sans-serif; font-size: 10px; fill: #000; opacity: 1;">April</text><text text-anchor="middle" transform="translate(86.87985825331505,15)" style="font-family: sans-serif; font-size: 10px; fill: #000; opacity: 1;">July</text><text text-anchor="middle" transform="translate(131.0499542752629,15)" style="font-family: sans-serif; font-size: 10px; fill: #000; opacity: 1;">October</text><text text-anchor="middle" transform="translate(175.24005486968449,15)" style="font-family: sans-serif; font-size: 10px; fill: #000; opacity: 1;">2019</text><text text-anchor="middle" transform="translate(218.42992684042065,15)" style="font-family: sans-serif; font-size: 10px; fill: #000; opacity: 1;">April</text><text text-anchor="middle" transform="translate(262.11991312299955,15)" style="font-family: sans-serif; font-size: 10px; fill: #000; opacity: 1;">July</text><text text-anchor="middle" transform="translate(306.2900091449474,15)" style="font-family: sans-serif; font-size: 10px; fill: #000; opacity: 1;">October</text></g><g class="mark-rule role-axis-domain" style="pointer-events: none;"><line transform="translate(0,0)" x2="350" y2="0" style="fill: none; stroke: #888; stroke-width: 1; opacity: 1;"></line></g></g></g></g><g class="mark-group role-axis"><g transform="translate(0.5,0.5)"><path class="background" d="M0,0h0v0h0Z" style="pointer-events: none; fill: none;"></path><g><g class="mark-rule role-axis-tick" style="pointer-events: none;"><line transform="translate(0,200)" x2="-5" y2="0" style="fill: none; stroke: #888; stroke-width: 1; opacity: 1;"></line><line transform="translate(0,160)" x2="-5" y2="0" style="fill: none; stroke: #888; stroke-width: 1; opacity: 1;"></line><line transform="translate(0,120)" x2="-5" y2="0" style="fill: none; stroke: #888; stroke-width: 1; opacity: 1;"></line><line transform="translate(0,80)" x2="-5" y2="0" style="fill: none; stroke: #888; stroke-width: 1; opacity: 1;"></line><line transform="translate(0,40)" x2="-5" y2="0" style="fill: none; stroke: #888; stroke-width: 1; opacity: 1;"></line><line transform="translate(0,0)" x2="-5" y2="0" style="fill: none; stroke: #888; stroke-width: 1; opacity: 1;"></line></g><g class="mark-text role-axis-label" style="pointer-events: none;"><text text-anchor="end" transform="translate(-7,203)" style="font-family: sans-serif; font-size: 10px; fill: #000; opacity: 1;">0%</text><text text-anchor="end" transform="translate(-7,163)" style="font-family: sans-serif; font-size: 10px; fill: #000; opacity: 1;">20%</text><text text-anchor="end" transform="translate(-7,123)" style="font-family: sans-serif; font-size: 10px; fill: #000; opacity: 1;">40%</text><text text-anchor="end" transform="translate(-7,83)" style="font-family: sans-serif; font-size: 10px; fill: #000; opacity: 1;">60%</text><text text-anchor="end" transform="translate(-7,43)" style="font-family: sans-serif; font-size: 10px; fill: #000; opacity: 1;">80%</text><text text-anchor="end" transform="translate(-7,3)" style="font-family: sans-serif; font-size: 10px; fill: #000; opacity: 1;">100%</text></g><g class="mark-rule role-axis-domain" style="pointer-events: none;"><line transform="translate(0,200)" x2="0" y2="-200" style="fill: none; stroke: #888; stroke-width: 1; opacity: 1;"></line></g></g></g></g></g></g></g></g></svg>