<svg class="marks" width="397" height="234" viewBox="0 0 397 234" version="1.1" xmlns="http://www.w3.org/2000/svg" xmlns:xlink="http://www.w3.org/1999/xlink"><g transform="translate(41,11)"><g class="mark-group role-frame root"><g transform="translate(0,0)"><path class="background" d="M0.5,0.5h350v200h-350Z" style="fill: none; stroke: #ddd;"></path><g><g class="mark-group role-axis"><g transform="translate(0.5,200.5)"><path class="background" d="M0,0h0v0h0Z" style="pointer-events: none; fill: none;"></path><g><g class="mark-rule role-axis-grid" style="pointer-events: none;"><line transform="translate(0,-200)" x2="0" y2="200" style="fill: none; stroke: #ddd; stroke-width: 1; opacity: 1;"></line><line transform="translate(43,-200)" x2="0" y2="200" style="fill: none; stroke: #ddd; stroke-width: 1; opacity: 1;"></line><line transform="translate(87,-200)" x2="0" y2="200" style="fill: none; stroke: #ddd; stroke-width: 1; opacity: 1;"></line><line transform="translate(131,-200)" x2="0" y2="200" style="fill: none; stroke: #ddd; stroke-width: 1; opacity: 1;"></line><line transform="translate(175,-200)" x2="0" y2="200" style="fill: none; stroke: #ddd; stroke-width: 1; opacity: 1;"></line><line transform="translate(218,-200)" x2="0" y2="200" style="fill: none; stroke: #ddd; stroke-width: 1; opacity: 1;"></line><line transform="translate(262,-200)" x2="0" y2="200" style="fill: none; stroke: #ddd; stroke-width: 1; opacity: 1;"></line><line transform="translate(306,-200)" x2="0" y2="200" style="fill: none; stroke: #ddd; stroke-width: 1; opacity: 1;"></line></g></g></g></g><g class="mark-group role-axis"><g transform="translate(0.5,0.5)"><path class="background" d="M0,0h0v0h0Z" style="pointer-events: none; fill: none;"></path><g><g class="mark-rule role-axis-grid" style="pointer-events: none;"><line transform="translate(0,200)" x2="350" y2="0" style="fill: none; stroke: #ddd; stroke-width: 1; opacity: 1;"></line><line transform="translate(0,160)" x2="350" y2="0" style="fill: none; stroke: #ddd; stroke-width: 1; opacity: 1;"></line><line transform="translate(0,120)" x2="350" y2="0" style="fill: none; stroke: #ddd; stroke-width: 1; opacity: 1;"></line><line transform="translate(0,80)" x2="350" y2="0" style="fill: none; stroke: #ddd; stroke-width: 1; opacity: 1;"></line><line transform="translate(0,40)" x2="350" y2="0" style="fill: none; stroke: #ddd; stroke-width: 1; opacity: 1;"></line><line transform="translate(0,0)" x2="350" y2="0" style="fill: none; stroke: #ddd; stroke-width: 1; opacity: 1;"></line></g></g></g></g><g class="mark-line role-mark layer_0_marks"><path d="M225.15146319158666,58.46000000000001L221.79069501600364,58.379999999999995L218.42992684042065,58.66L215.0691586648377,58.66L211.7083904892547,58.400000000000006L208.34762231367168,58.81999999999999L205.0068587105624,58.34L198.28532235939645,58.079999999999984L191.56378600823044,57.68000000000001L184.84224965706449,57.75999999999999L178.1207133058985,57.5L171.3991769547325,57.20000000000002L164.67764060356652,57.81999999999999L157.95610425240054,57.25999999999999L151.23456790123456,57.02000000000001L144.4930269775949,57.139999999999986L137.77149062642889,57.29999999999998L131.0499542752629,58.18000000000001L124.32841792409694,58.31999999999999L120.96764974851395,57.879999999999995L114.24611339734797,57.69999999999999L107.52457704618199,58.22L100.80304069501601,58.400000000000006L94.08150434385003,58.46000000000001L87.35996799268403,58.599999999999994L80.63843164151805,59.18000000000001L74.39700502972107,59.16L67.19535893918611,59.400000000000006L60.47382258802012,59.47999999999999L53.75228623685414,59.56L47.03074988568815,59.380000000000024L40.30921353452218,58.56L33.58767718335619,57.80000000000001L26.886145404663925,57.44L20.164609053497944,55.73999999999998L13.443072702331962,56.079999999999984L6.721536351165981,55.44L0,54.68000000000001" style="fill: none; stroke: #aec7e8; stroke-width: 2;"></path></g><g class="mark-line role-mark layer_1_marks"><path d="M225.15146319158666,60L221.79069501600364,60.56L218.42992684042065,62.30000000000001L215.0691586648377,62.579999999999984L211.7083904892547,62.72L208.34762231367168,62.860000000000014L205.0068587105624,64.02000000000001L198.28532235939645,63.28L191.56378600823044,63.120000000000005L184.84224965706449,66.96000000000001L178.1207133058985,65.78L171.3991769547325,67.53999999999999L164.67764060356652,65.94L157.95610425240054,64.6L151.23456790123456,63.860000000000014L144.4930269775949,62.359999999999985L137.77149062642889,64.42000000000002L131.0499542752629,63.39999999999998L124.32841792409694,63.19999999999999L120.96764974851395,63.379999999999995L114.24611339734797,65.91999999999999L107.52457704618199,68.01999999999998L100.80304069501601,68.18L94.08150434385003,64.26000000000002L87.35996799268403,65.48000000000002L80.63843164151805,66.96000000000001L74.39700502972107,67.12L67.19535893918611,67.26000000000002L60.47382258802012,68.18L53.75228623685414,66.82L47.03074988568815,67.56L40.30921353452218,63.96000000000001L33.58767718335619,62.72L26.886145404663925,62.84L20.164609053497944,61.5L13.443072702331962,62.099999999999994L6.721536351165981,60.73999999999998L0,64.35999999999999" style="fill: none; stroke: #ffbb78; stroke-width: 2;"></path></g><g class="mark-line role-mark layer_2_marks"><path d="M225.15146319158666,41.860000000000014L221.79069501600364,48.84L218.42992684042065,55.81999999999999L215.0691586648377,53.47999999999999L211.7083904892547,51.16L208.34762231367168,51.16L205.0068587105624,51.76000000000002L198.28532235939645,55.18000000000001L191.56378600823044,52.879999999999995L184.84224965706449,52.879999999999995L178.1207133058985,54.54000000000002L171.3991769547325,59.099999999999994L164.67764060356652,54.54000000000002L157.95610425240054,50L151.23456790123456,49.44L144.4930269775949,47.19999999999999L137.77149062642889,56.81999999999999L131.0499542752629,57.78L124.32841792409694,53.34L120.96764974851395,53.34L114.24611339734797,58.420000000000016L107.52457704618199,56.18000000000001L100.80304069501601,56.18000000000001L94.08150434385003,50L87.35996799268403,50L80.63843164151805,50L74.39700502972107,47.72L67.19535893918611,52.28L60.47382258802012,52.879999999999995L53.75228623685414,50L47.03074988568815,50L40.30921353452218,45.45999999999998L33.58767718335619,41.379999999999995L26.886145404663925,37.20000000000002L20.164609053497944,36.78L13.443072702331962,39.08000000000001L6.721536351165981,34.47999999999999L0,39.08000000000001" style="fill: none; stroke: #9467bd; stroke-width: 4;"></path></g><g class="mark-rule role-mark layer_3_marks"><line transform="translate(0,40)" x2="350" y2="0" style="fill: none; stroke: #2ca02c; stroke-width: 1; stroke-dasharray: 4,2;"></line></g><g class="mark-text role-mark layer_4_marks"><text text-anchor="end" transform="translate(350,197)" style="font-family: sans-serif; font-size: 16px; fill: #2ca02c;">80.00%</text></g><g class="mark-text role-mark layer_5_marks"><text text-anchor="end" transform="translate(350,15)" style="font-family: sans-serif; font-size: 16px; fill: #9467bd;">79.07%</text></g><g class="mark-group role-axis"><g transform="translate(0.5,200.5)"><path class="background" d="M0,0h0v0h0Z" style="pointer-events: none; fill: none;"></path><g><g class="mark-rule role-axis-tick" style="pointer-events: none;"><line transform="translate(0,0)" x2="0" y2="5" style="fill: none; stroke: #888; stroke-width: 1; opacity: 1;"></line><line transform="translate(43,0)" x2="0" y2="5" style="fill: none; stroke: #888; stroke-width: 1; opacity: 1;"></line><line transform="translate(87,0)" x2="0" y2="5" style="fill: none; stroke: #888; stroke-width: 1; opacity: 1;"></line><line transform="translate(131,0)" x2="0" y2="5" style="fill: none; stroke: #888; stroke-width: 1; opacity: 1;"></line><line transform="translate(175,0)" x2="0" y2="5" style="fill: none; stroke: #888; stroke-width: 1; opacity: 1;"></line><line transform="translate(218,0)" x2="0" y2="5" style="fill: none; stroke: #888; stroke-width: 1; opacity: 1;"></line><line transform="translate(262,0)" x2="0" y2="5" style="fill: none; stroke: #888; stroke-width: 1; opacity: 1;"></line><line transform="translate(306,0)" x2="0" y2="5" style="fill: none; stroke: #888; stroke-width: 1; opacity: 1;"></line></g><g class="mark-text role-axis-label" style="pointer-events: none;"><text text-anchor="start" transform="translate(0,15)" style="font-family: sans-serif; font-size: 10px; fill: #000; opacity: 1;">2018</text><text text-anchor="middle" transform="translate(43.18987197073617,15)" style="font-family: sans-serif; font-size: 10px; fill: #000; opacity: 1;">April</text><text text-anchor="middle" transform="translate(86.87985825331505,15)" style="font-family: sans-serif; font-size: 10px; fill: #000; opacity: 1;">July</text><text text-anchor="middle" transform="translate(131.0499542752629,15)" style="font-family: sans-serif; font-size: 10px; fill: #000; opacity: 1;">October</text><text text-anchor="middle" transform="translate(175.24005486968449,15)" style="font-family: sans-serif; font-size: 10px; fill: #000; opacity: 1;">2019</text><text text-anchor="middle" transform="translate(218.42992684042065,15)" style="font-family: sans-serif; font-size: 10px; fill: #000; opacity: 1;">April</text><text text-anchor="middle" transform="translate(262.11991312299955,15)" style="font-family: sans-serif; font-size: 10px; fill: #000; opacity: 1;">July</text><text text-anchor="middle" transform="translate(306.2900091449474,15)" style="font-family: sans-serif; font-size: 10px; fill: #000; opacity: 1;">October</text></g><g class="mark-rule role-axis-domain" style="pointer-events: none;"><line transform="translate(0,0)" x2="350" y2="0" style="fill: none; stroke: #888; stroke-width: 1; opacity: 1;"></line></g></g></g></g><g class="mark-group role-axis"><g transform="translate(0.5,0.5)"><path class="background" d="M0,0h0v0h0Z" style="pointer-events: none; fill: none;"></path><g><g class="mark-rule role-axis-tick" style="pointer-events: none;"><line transform="translate(0,200)" x2="-5" y2="0" style="fill: none; stroke: #888; stroke-width: 1; opacity: 1;"></line><line transform="translate(0,160)" x2="-5" y2="0" style="fill: none; stroke: #888; stroke-width: 1; opacity: 1;"></line><line transform="translate(0,120)" x2="-5" y2="0" style="fill: none; stroke: #888; stroke-width: 1; opacity: 1;"></line><line transform="translate(0,80)" x2="-5" y2="0" style="fill: none; stroke: #888; stroke-width: 1; opacity: 1;"></line><line transform="translate(0,40)" x2="-5" y2="0" style="fill: none; stroke: #888; stroke-width: 1; opacity: 1;"></line><line transform="translate(0,0)" x2="-5" y2="0" style="fill: none; stroke: #888; stroke-width: 1; opacity: 1;"></line></g><g class="mark-text role-axis-label" style="pointer-events: none;"><text text-anchor="end" transform="translate(-7,203)" style="font-family: sans-serif; font-size: 10px; fill: #000; opacity: 1;">0%</text><text text-anchor="end" transform="translate(-7,163)" style="font-family: sans-serif; font-size: 10px; fill: #000; opacity: 1;">20%</text><text text-anchor="end" transform="translate(-7,123)" style="font-family: sans-serif; font-size: 10px; fill: #000; opacity: 1;">40%</text><text text-anchor="end" transform="translate(-7,83)" style="font-family: sans-serif; font-size: 10px; fill: #000; opacity: 1;">60%</text><text text-anchor="end" transform="translate(-7,43)" style="font-family: sans-serif; font-size: 10px; fill: #000; opacity: 1;">80%</text><text text-anchor="end" transform="translate(-7,3)" style="font-family: sans-serif; font-size: 10px; fill: #000; opacity: 1;">100%</text></g><g class="mark-rule role-axis-domain" style="pointer-events: none;"><line transform="translate(0,200)" x2="0" y2="-200" style="fill: none; stroke: #888; stroke-width: 1; opacity: 1;"></line></g></g></g></g></g></g></g></g></svg>