<svg class="marks" width="395" height="234" viewBox="0 0 395 234" version="1.1" xmlns="http://www.w3.org/2000/svg" xmlns:xlink="http://www.w3.org/1999/xlink"><g transform="translate(39,11)"><g class="mark-group role-frame root"><g transform="translate(0,0)"><path class="background" d="M0.5,0.5h350v200h-350Z" style="fill: none; stroke: #ddd;"></path><g><g class="mark-group role-axis"><g transform="translate(0.5,200.5)"><path class="background" d="M0,0h0v0h0Z" style="pointer-events: none; fill: none;"></path><g><g class="mark-rule role-axis-grid" style="pointer-events: none;"><line transform="translate(0,-200)" x2="0" y2="200" style="fill: none; stroke: #ddd; stroke-width: 1; opacity: 1;"></line><line transform="translate(43,-200)" x2="0" y2="200" style="fill: none; stroke: #ddd; stroke-width: 1; opacity: 1;"></line><line transform="translate(87,-200)" x2="0" y2="200" style="fill: none; stroke: #ddd; stroke-width: 1; opacity: 1;"></line><line transform="translate(131,-200)" x2="0" y2="200" style="fill: none; stroke: #ddd; stroke-width: 1; opacity: 1;"></line><line transform="translate(175,-200)" x2="0" y2="200" style="fill: none; stroke: #ddd; stroke-width: 1; opacity: 1;"></line><line transform="translate(218,-200)" x2="0" y2="200" style="fill: none; stroke: #ddd; stroke-width: 1; opacity: 1;"></line><line transform="translate(262,-200)" x2="0" y2="200" style="fill: none; stroke: #ddd; stroke-width: 1; opacity: 1;"></line><line transform="translate(306,-200)" x2="0" y2="200" style="fill: none; stroke: #ddd; stroke-width: 1; opacity: 1;"></line></g></g></g></g><g class="mark-group role-axis"><g transform="translate(0.5,0.5)"><path class="background" d="M0,0h0v0h0Z" style="pointer-events: none; fill: none;"></path><g><g class="mark-rule role-axis-grid" style="pointer-events: none;"><line transform="translate(0,200)" x2="350" y2="0" style="fill: none; stroke: #ddd; stroke-width: 1; opacity: 1;"></line><line transform="translate(0,160)" x2="350" y2="0" style="fill: none; stroke: #ddd; stroke-width: 1; opacity: 1;"></line><line transform="translate(0,120)" x2="350" y2="0" style="fill: none; stroke: #ddd; stroke-width: 1; opacity: 1;"></line><line transform="translate(0,80)" x2="350" y2="0" style="fill: none; stroke: #ddd; stroke-width: 1; opacity: 1;"></line><line transform="translate(0,40)" x2="350" y2="0" style="fill: none; stroke: #ddd; stroke-width: 1; opacity: 1;"></line><line transform="translate(0,0)" x2="350" y2="0" style="fill: none; stroke: #ddd; stroke-width: 1; opacity: 1;"></line></g></g></g></g><g class="mark-line role-mark layer_0_marks"><path d="M208.34762231367168,63.78L205.0068587105624,63.620000000000005L201.64609053497944,63.47999999999999L198.28532235939645,63.69999999999999L194.92455418381343,63.75999999999999L191.56378600823044,63.94L188.20301783264748,64L184.84224965706449,64.12L181.48148148148147,63.91999999999999L178.1207133058985,64.1L171.3991769547325,64.02000000000001L164.67764060356652,64.46000000000001L157.95610425240054,65.32L151.23456790123456,65.34L144.4930269775949,65.82L137.77149062642889,66.52000000000001L131.0499542752629,66.74000000000001L124.32841792409694,67.34L120.96764974851395,67.30000000000001L114.24611339734797,67.26000000000002L107.52457704618199,67.78L100.80304069501601,68.13999999999999L94.08150434385003,68.44L87.35996799268403,68.66L80.63843164151805,69.23999999999998L74.39700502972107,69.48000000000002L67.19535893918611,69.46000000000001L60.47382258802012,69.79999999999998L53.75228623685414,70.08000000000001L47.03074988568815,70.1L40.30921353452218,70.23999999999998L33.58767718335619,70.5L26.886145404663925,70.36000000000001L20.164609053497944,70.36000000000001L13.443072702331962,70.19999999999999L6.721536351165981,70.34L0,70.23999999999998" style="fill: none; stroke: #aec7e8; stroke-width: 2;"></path></g><g class="mark-line role-mark layer_1_marks"><path d="M208.34762231367168,58.91999999999999L205.0068587105624,58.91999999999999L201.64609053497944,58.18000000000001L198.28532235939645,58.29999999999998L194.92455418381343,58.120000000000005L191.56378600823044,57.91999999999999L188.20301783264748,58.16L184.84224965706449,58.34L181.48148148148147,58.25999999999999L178.1207133058985,58.379999999999995L171.3991769547325,58.379999999999995L164.67764060356652,58.900000000000006L157.95610425240054,61.82000000000002L151.23456790123456,59.420000000000016L144.4930269775949,59.139999999999986L137.77149062642889,59.08000000000001L131.0499542752629,59.25999999999999L124.32841792409694,59.25999999999999L120.96764974851395,59.22L114.24611339734797,59.099999999999994L107.52457704618199,59.84L100.80304069501601,60.28L94.08150434385003,61.69999999999999L87.35996799268403,62.44L80.63843164151805,62.91999999999999L74.39700502972107,63.39999999999998L67.19535893918611,63.17999999999998L60.47382258802012,64.1L53.75228623685414,65.18L47.03074988568815,65.38L40.30921353452218,65.72L33.58767718335619,66.78L26.886145404663925,67.06L20.164609053497944,66.79999999999998L13.443072702331962,66.13999999999999L6.721536351165981,66.08000000000001L0,66.52000000000001" style="fill: none; stroke: #ffbb78; stroke-width: 2;"></path></g><g class="mark-line role-mark layer_2_marks"><path d="M208.34762231367168,33.099999999999994L205.0068587105624,31.079999999999984L201.64609053497944,30.299999999999983L198.28532235939645,30.299999999999983L194.92455418381343,31.439999999999998L191.56378600823044,30.879999999999995L188.20301783264748,31.439999999999998L184.84224965706449,33.879999999999995L181.48148148148147,35.099999999999994L178.1207133058985,36.30000000000001L171.3991769547325,35.400000000000006L164.67764060356652,35.400000000000006L157.95610425240054,36.120000000000005L151.23456790123456,36.120000000000005L144.4930269775949,36.02000000000001L137.77149062642889,34.20000000000002L131.0499542752629,33.120000000000005L124.32841792409694,35.25999999999999L120.96764974851395,34.08000000000001L114.24611339734797,37.46000000000001L107.52457704618199,39.120000000000005L100.80304069501601,39.26000000000002L94.08150434385003,39.75999999999999L87.35996799268403,41.74000000000001L80.63843164151805,41.78L74.39700502972107,43.18000000000001L67.19535893918611,42.53999999999999L60.47382258802012,41.400000000000006L53.75228623685414,45.140000000000015L47.03074988568815,49.06L40.30921353452218,46.19999999999999L33.58767718335619,50.16L26.886145404663925,50.16L20.164609053497944,50.78L13.443072702331962,47.80000000000001L6.721536351165981,52.34L0,50.94" style="fill: none; stroke: #9467bd; stroke-width: 4;"></path></g><g class="mark-rule role-mark layer_3_marks"><line transform="translate(0,30)" x2="350" y2="0" style="fill: none; stroke: #2ca02c; stroke-width: 1; stroke-dasharray: 4,2;"></line></g><g class="mark-text role-mark layer_4_marks"><text text-anchor="end" transform="translate(350,197)" style="font-family: sans-serif; font-size: 16px; fill: #2ca02c;">85.00%</text></g><g class="mark-text role-mark layer_5_marks"><text text-anchor="end" transform="translate(350,15)" style="font-family: sans-serif; font-size: 16px; fill: #9467bd;">83.45%</text></g><g class="mark-group role-axis"><g transform="translate(0.5,200.5)"><path class="background" d="M0,0h0v0h0Z" style="pointer-events: none; fill: none;"></path><g><g class="mark-rule role-axis-tick" style="pointer-events: none;"><line transform="translate(0,0)" x2="0" y2="5" style="fill: none; stroke: #888; stroke-width: 1; opacity: 1;"></line><line transform="translate(43,0)" x2="0" y2="5" style="fill: none; stroke: #888; stroke-width: 1; opacity: 1;"></line><line transform="translate(87,0)" x2="0" y2="5" style="fill: none; stroke: #888; stroke-width: 1; opacity: 1;"></line><line transform="translate(131,0)" x2="0" y2="5" style="fill: none; stroke: #888; stroke-width: 1; opacity: 1;"></line><line transform="translate(175,0)" x2="0" y2="5" style="fill: none; stroke: #888; stroke-width: 1; opacity: 1;"></line><line transform="translate(218,0)" x2="0" y2="5" style="fill: none; stroke: #888; stroke-width: 1; opacity: 1;"></line><line transform="translate(262,0)" x2="0" y2="5" style="fill: none; stroke: #888; stroke-width: 1; opacity: 1;"></line><line transform="translate(306,0)" x2="0" y2="5" style="fill: none; stroke: #888; stroke-width: 1; opacity: 1;"></line></g><g class="mark-text role-axis-label" style="pointer-events: none;"><text text-anchor="start" transform="translate(0,15)" style="font-family: sans-serif; font-size: 10px; fill: #000; opacity: 1;">2018</text><text text-anchor="middle" transform="translate(43.18987197073617,15)" style="font-family: sans-serif; font-size: 10px; fill: #000; opacity: 1;">April</text><text text-anchor="middle" transform="translate(86.87985825331505,15)" style="font-family: sans-serif; font-size: 10px; fill: #000; opacity: 1;">July</text><text text-anchor="middle" transform="translate(131.0499542752629,15)" style="font-family: sans-serif; font-size: 10px; fill: #000; opacity: 1;">October</text><text text-anchor="middle" transform="translate(175.24005486968449,15)" style="font-family: sans-serif; font-size: 10px; fill: #000; opacity: 1;">2019</text><text text-anchor="middle" transform="translate(218.42992684042065,15)" style="font-family: sans-serif; font-size: 10px; fill: #000; opacity: 1;">April</text><text text-anchor="middle" transform="translate(262.11991312299955,15)" style="font-family: sans-serif; font-size: 10px; fill: #000; opacity: 1;">July</text><text text-anchor="middle" transform="translate(306.2900091449474,15)" style="font-family: sans-serif; font-size: 10px; fill: #000; opacity: 1;">October</text></g><g class="mark-rule role-axis-domain" style="pointer-events: none;"><line transform="translate(0,0)" x2="350" y2="0" style="fill: none; stroke: #888; stroke-width: 1; opacity: 1;"></line></g></g></g></g><g class="mark-group role-axis"><g transform="translate(0.5,0.5)"><path class="background" d="M0,0h0v0h0Z" style="pointer-events: none; fill: none;"></path><g><g class="mark-rule role-axis-tick" style="pointer-events: none;"><line transform="translate(0,200)" x2="-5" y2="0" style="fill: none; stroke: #888; stroke-width: 1; opacity: 1;"></line><line transform="translate(0,160)" x2="-5" y2="0" style="fill: none; stroke: #888; stroke-width: 1; opacity: 1;"></line><line transform="translate(0,120)" x2="-5" y2="0" style="fill: none; stroke: #888; stroke-width: 1; opacity: 1;"></line><line transform="translate(0,80)" x2="-5" y2="0" style="fill: none; stroke: #888; stroke-width: 1; opacity: 1;"></line><line transform="translate(0,40)" x2="-5" y2="0" style="fill: none; stroke: #888; stroke-width: 1; opacity: 1;"></line><line transform="translate(0,0)" x2="-5" y2="0" style="fill: none; stroke: #888; stroke-width: 1; opacity: 1;"></line></g><g class="mark-text role-axis-label" style="pointer-events: none;"><text text-anchor="end" transform="translate(-7,203)" style="font-family: sans-serif; font-size: 10px; fill: #000; opacity: 1;">0%</text><text text-anchor="end" transform="translate(-7,163)" style="font-family: sans-serif; font-size: 10px; fill: #000; opacity: 1;">20%</text><text text-anchor="end" transform="translate(-7,123)" style="font-family: sans-serif; font-size: 10px; fill: #000; opacity: 1;">40%</text><text text-anchor="end" transform="translate(-7,83)" style="font-family: sans-serif; font-size: 10px; fill: #000; opacity: 1;">60%</text><text text-anchor="end" transform="translate(-7,43)" style="font-family: sans-serif; font-size: 10px; fill: #000; opacity: 1;">80%</text><text text-anchor="end" transform="translate(-7,3)" style="font-family: sans-serif; font-size: 10px; fill: #000; opacity: 1;">100%</text></g><g class="mark-rule role-axis-domain" style="pointer-events: none;"><line transform="translate(0,200)" x2="0" y2="-200" style="fill: none; stroke: #888; stroke-width: 1; opacity: 1;"></line></g></g></g></g></g></g></g></g></svg>