<svg class="marks" width="397" height="234" viewBox="0 0 397 234" version="1.1" xmlns="http://www.w3.org/2000/svg" xmlns:xlink="http://www.w3.org/1999/xlink"><g transform="translate(41,11)"><g class="mark-group role-frame root"><g transform="translate(0,0)"><path class="background" d="M0.5,0.5h350v200h-350Z" style="fill: none; stroke: #ddd;"></path><g><g class="mark-group role-axis"><g transform="translate(0.5,200.5)"><path class="background" d="M0,0h0v0h0Z" style="pointer-events: none; fill: none;"></path><g><g class="mark-rule role-axis-grid" style="pointer-events: none;"><line transform="translate(0,-200)" x2="0" y2="200" style="fill: none; stroke: #ddd; stroke-width: 1; opacity: 1;"></line><line transform="translate(43,-200)" x2="0" y2="200" style="fill: none; stroke: #ddd; stroke-width: 1; opacity: 1;"></line><line transform="translate(87,-200)" x2="0" y2="200" style="fill: none; stroke: #ddd; stroke-width: 1; opacity: 1;"></line><line transform="translate(131,-200)" x2="0" y2="200" style="fill: none; stroke: #ddd; stroke-width: 1; opacity: 1;"></line><line transform="translate(175,-200)" x2="0" y2="200" style="fill: none; stroke: #ddd; stroke-width: 1; opacity: 1;"></line><line transform="translate(218,-200)" x2="0" y2="200" style="fill: none; stroke: #ddd; stroke-width: 1; opacity: 1;"></line><line transform="translate(262,-200)" x2="0" y2="200" style="fill: none; stroke: #ddd; stroke-width: 1; opacity: 1;"></line><line transform="translate(306,-200)" x2="0" y2="200" style="fill: none; stroke: #ddd; stroke-width: 1; opacity: 1;"></line></g></g></g></g><g class="mark-group role-axis"><g transform="translate(0.5,0.5)"><path class="background" d="M0,0h0v0h0Z" style="pointer-events: none; fill: none;"></path><g><g class="mark-rule role-axis-grid" style="pointer-events: none;"><line transform="translate(0,200)" x2="350" y2="0" style="fill: none; stroke: #ddd; stroke-width: 1; opacity: 1;"></line><line transform="translate(0,160)" x2="350" y2="0" style="fill: none; stroke: #ddd; stroke-width: 1; opacity: 1;"></line><line transform="translate(0,120)" x2="350" y2="0" style="fill: none; stroke: #ddd; stroke-width: 1; opacity: 1;"></line><line transform="translate(0,80)" x2="350" y2="0" style="fill: none; stroke: #ddd; stroke-width: 1; opacity: 1;"></line><line transform="translate(0,40)" x2="350" y2="0" style="fill: none; stroke: #ddd; stroke-width: 1; opacity: 1;"></line><line transform="translate(0,0)" x2="350" y2="0" style="fill: none; stroke: #ddd; stroke-width: 1; opacity: 1;"></line></g></g></g></g><g class="mark-line role-mark layer_0_marks"><path d="M228.51223136716965,46.74000000000001L225.15146319158666,46.78L221.79069501600364,46.84L218.42992684042065,46.920000000000016L215.0691586648377,47.03999999999999L211.7083904892547,47.01999999999998L208.34762231367168,47.19999999999999L205.0068587105624,47.22L198.28532235939645,47.30000000000001L191.56378600823044,47.41999999999999L184.84224965706449,47.74000000000001L178.1207133058985,47.620000000000005L171.3991769547325,47.379999999999995L164.67764060356652,47.599999999999994L157.95610425240054,48L151.23456790123456,47.94L144.4930269775949,48.079999999999984L137.77149062642889,48.120000000000005L131.0499542752629,48.22L124.32841792409694,48.22L120.96764974851395,48.22L114.24611339734797,48.28L107.52457704618199,48.16L100.80304069501601,48.10000000000002L94.08150434385003,48.16L87.35996799268403,48.25999999999999L80.63843164151805,48.81999999999999L74.39700502972107,48.97999999999999L67.19535893918611,49.16L60.47382258802012,49.30000000000001L53.75228623685414,49.45999999999998L47.03074988568815,49.66L40.30921353452218,49.900000000000006L33.58767718335619,50.140000000000015L26.886145404663925,50.18000000000001L20.164609053497944,50.140000000000015L13.443072702331962,50.66L6.721536351165981,50.400000000000006L0,50.28" style="fill: none; stroke: #aec7e8; stroke-width: 2;"></path></g><g class="mark-line role-mark layer_1_marks"><path d="M228.51223136716965,38.30000000000001L225.15146319158666,38.39999999999998L221.79069501600364,38.28L218.42992684042065,38.359999999999985L215.0691586648377,38.379999999999995L211.7083904892547,38.44L208.34762231367168,38.75999999999999L205.0068587105624,39.120000000000005L198.28532235939645,39.22L191.56378600823044,39.39999999999998L184.84224965706449,39.900000000000006L178.1207133058985,39.97999999999999L171.3991769547325,39.66L164.67764060356652,40L157.95610425240054,41.44L151.23456790123456,40.28L144.4930269775949,40.52000000000001L137.77149062642889,40.52000000000001L131.0499542752629,40.53999999999999L124.32841792409694,40.619999999999976L120.96764974851395,40.84L114.24611339734797,40.66L107.52457704618199,40.599999999999994L100.80304069501601,40.640000000000015L94.08150434385003,40.579999999999984L87.35996799268403,40.72L80.63843164151805,40.96000000000001L74.39700502972107,41.379999999999995L67.19535893918611,41.68000000000001L60.47382258802012,42.22L53.75228623685414,42.56L47.03074988568815,42.920000000000016L40.30921353452218,43.28L33.58767718335619,43.75999999999999L26.886145404663925,44.23999999999998L20.164609053497944,44.18000000000001L13.443072702331962,44.68000000000001L6.721536351165981,44.96000000000001L0,45.25999999999999" style="fill: none; stroke: #ffbb78; stroke-width: 2;"></path></g><g class="mark-line role-mark layer_2_marks"><path d="M228.51223136716965,26.819999999999993L225.15146319158666,27.180000000000007L221.79069501600364,27.19999999999999L218.42992684042065,27.47999999999999L215.0691586648377,27.159999999999997L211.7083904892547,27.599999999999994L208.34762231367168,27.879999999999995L205.0068587105624,27.560000000000002L198.28532235939645,28.02000000000001L191.56378600823044,28.039999999999992L184.84224965706449,28.72L178.1207133058985,28.519999999999982L171.3991769547325,28.620000000000005L164.67764060356652,28.879999999999995L157.95610425240054,29.140000000000015L151.23456790123456,28.980000000000018L144.4930269775949,29.180000000000007L137.77149062642889,28.78L131.0499542752629,28.519999999999982L124.32841792409694,29.54000000000002L120.96764974851395,29.460000000000008L114.24611339734797,29.28L107.52457704618199,29.900000000000006L100.80304069501601,30.120000000000005L94.08150434385003,29.80000000000001L87.35996799268403,30.099999999999994L80.63843164151805,29.939999999999998L74.39700502972107,29.919999999999987L67.19535893918611,30.079999999999984L60.47382258802012,30.460000000000008L53.75228623685414,30.639999999999986L47.03074988568815,30.72L40.30921353452218,31.299999999999983L33.58767718335619,31.120000000000005L26.886145404663925,31.900000000000006L20.164609053497944,32.03999999999999L13.443072702331962,32.400000000000006L6.721536351165981,32.81999999999999L0,32.620000000000005" style="fill: none; stroke: #9467bd; stroke-width: 4;"></path></g><g class="mark-rule role-mark layer_3_marks"><line transform="translate(0,40)" x2="350" y2="0" style="fill: none; stroke: #2ca02c; stroke-width: 1; stroke-dasharray: 4,2;"></line></g><g class="mark-text role-mark layer_4_marks"><text text-anchor="end" transform="translate(350,197)" style="font-family: sans-serif; font-size: 16px; fill: #2ca02c;">80.00%</text></g><g class="mark-text role-mark layer_5_marks"><text text-anchor="end" transform="translate(350,15)" style="font-family: sans-serif; font-size: 16px; fill: #9467bd;">86.59%</text></g><g class="mark-group role-axis"><g transform="translate(0.5,200.5)"><path class="background" d="M0,0h0v0h0Z" style="pointer-events: none; fill: none;"></path><g><g class="mark-rule role-axis-tick" style="pointer-events: none;"><line transform="translate(0,0)" x2="0" y2="5" style="fill: none; stroke: #888; stroke-width: 1; opacity: 1;"></line><line transform="translate(43,0)" x2="0" y2="5" style="fill: none; stroke: #888; stroke-width: 1; opacity: 1;"></line><line transform="translate(87,0)" x2="0" y2="5" style="fill: none; stroke: #888; stroke-width: 1; opacity: 1;"></line><line transform="translate(131,0)" x2="0" y2="5" style="fill: none; stroke: #888; stroke-width: 1; opacity: 1;"></line><line transform="translate(175,0)" x2="0" y2="5" style="fill: none; stroke: #888; stroke-width: 1; opacity: 1;"></line><line transform="translate(218,0)" x2="0" y2="5" style="fill: none; stroke: #888; stroke-width: 1; opacity: 1;"></line><line transform="translate(262,0)" x2="0" y2="5" style="fill: none; stroke: #888; stroke-width: 1; opacity: 1;"></line><line transform="translate(306,0)" x2="0" y2="5" style="fill: none; stroke: #888; stroke-width: 1; opacity: 1;"></line></g><g class="mark-text role-axis-label" style="pointer-events: none;"><text text-anchor="start" transform="translate(0,15)" style="font-family: sans-serif; font-size: 10px; fill: #000; opacity: 1;">2018</text><text text-anchor="middle" transform="translate(43.18987197073617,15)" style="font-family: sans-serif; font-size: 10px; fill: #000; opacity: 1;">April</text><text text-anchor="middle" transform="translate(86.87985825331505,15)" style="font-family: sans-serif; font-size: 10px; fill: #000; opacity: 1;">July</text><text text-anchor="middle" transform="translate(131.0499542752629,15)" style="font-family: sans-serif; font-size: 10px; fill: #000; opacity: 1;">October</text><text text-anchor="middle" transform="translate(175.24005486968449,15)" style="font-family: sans-serif; font-size: 10px; fill: #000; opacity: 1;">2019</text><text text-anchor="middle" transform="translate(218.42992684042065,15)" style="font-family: sans-serif; font-size: 10px; fill: #000; opacity: 1;">April</text><text text-anchor="middle" transform="translate(262.11991312299955,15)" style="font-family: sans-serif; font-size: 10px; fill: #000; opacity: 1;">July</text><text text-anchor="middle" transform="translate(306.2900091449474,15)" style="font-family: sans-serif; font-size: 10px; fill: #000; opacity: 1;">October</text></g><g class="mark-rule role-axis-domain" style="pointer-events: none;"><line transform="translate(0,0)" x2="350" y2="0" style="fill: none; stroke: #888; stroke-width: 1; opacity: 1;"></line></g></g></g></g><g class="mark-group role-axis"><g transform="translate(0.5,0.5)"><path class="background" d="M0,0h0v0h0Z" style="pointer-events: none; fill: none;"></path><g><g class="mark-rule role-axis-tick" style="pointer-events: none;"><line transform="translate(0,200)" x2="-5" y2="0" style="fill: none; stroke: #888; stroke-width: 1; opacity: 1;"></line><line transform="translate(0,160)" x2="-5" y2="0" style="fill: none; stroke: #888; stroke-width: 1; opacity: 1;"></line><line transform="translate(0,120)" x2="-5" y2="0" style="fill: none; stroke: #888; stroke-width: 1; opacity: 1;"></line><line transform="translate(0,80)" x2="-5" y2="0" style="fill: none; stroke: #888; stroke-width: 1; opacity: 1;"></line><line transform="translate(0,40)" x2="-5" y2="0" style="fill: none; stroke: #888; stroke-width: 1; opacity: 1;"></line><line transform="translate(0,0)" x2="-5" y2="0" style="fill: none; stroke: #888; stroke-width: 1; opacity: 1;"></line></g><g class="mark-text role-axis-label" style="pointer-events: none;"><text text-anchor="end" transform="translate(-7,203)" style="font-family: sans-serif; font-size: 10px; fill: #000; opacity: 1;">0%</text><text text-anchor="end" transform="translate(-7,163)" style="font-family: sans-serif; font-size: 10px; fill: #000; opacity: 1;">20%</text><text text-anchor="end" transform="translate(-7,123)" style="font-family: sans-serif; font-size: 10px; fill: #000; opacity: 1;">40%</text><text text-anchor="end" transform="translate(-7,83)" style="font-family: sans-serif; font-size: 10px; fill: #000; opacity: 1;">60%</text><text text-anchor="end" transform="translate(-7,43)" style="font-family: sans-serif; font-size: 10px; fill: #000; opacity: 1;">80%</text><text text-anchor="end" transform="translate(-7,3)" style="font-family: sans-serif; font-size: 10px; fill: #000; opacity: 1;">100%</text></g><g class="mark-rule role-axis-domain" style="pointer-events: none;"><line transform="translate(0,200)" x2="0" y2="-200" style="fill: none; stroke: #888; stroke-width: 1; opacity: 1;"></line></g></g></g></g></g></g></g></g></svg>