<svg class="marks" width="397" height="234" viewBox="0 0 397 234" version="1.1" xmlns="http://www.w3.org/2000/svg" xmlns:xlink="http://www.w3.org/1999/xlink"><g transform="translate(41,11)"><g class="mark-group role-frame root"><g transform="translate(0,0)"><path class="background" d="M0.5,0.5h350v200h-350Z" style="fill: none; stroke: #ddd;"></path><g><g class="mark-group role-axis"><g transform="translate(0.5,200.5)"><path class="background" d="M0,0h0v0h0Z" style="pointer-events: none; fill: none;"></path><g><g class="mark-rule role-axis-grid" style="pointer-events: none;"><line transform="translate(0,-200)" x2="0" y2="200" style="fill: none; stroke: #ddd; stroke-width: 1; opacity: 1;"></line><line transform="translate(43,-200)" x2="0" y2="200" style="fill: none; stroke: #ddd; stroke-width: 1; opacity: 1;"></line><line transform="translate(87,-200)" x2="0" y2="200" style="fill: none; stroke: #ddd; stroke-width: 1; opacity: 1;"></line><line transform="translate(131,-200)" x2="0" y2="200" style="fill: none; stroke: #ddd; stroke-width: 1; opacity: 1;"></line><line transform="translate(175,-200)" x2="0" y2="200" style="fill: none; stroke: #ddd; stroke-width: 1; opacity: 1;"></line><line transform="translate(218,-200)" x2="0" y2="200" style="fill: none; stroke: #ddd; stroke-width: 1; opacity: 1;"></line><line transform="translate(262,-200)" x2="0" y2="200" style="fill: none; stroke: #ddd; stroke-width: 1; opacity: 1;"></line><line transform="translate(306,-200)" x2="0" y2="200" style="fill: none; stroke: #ddd; stroke-width: 1; opacity: 1;"></line></g></g></g></g><g class="mark-group role-axis"><g transform="translate(0.5,0.5)"><path class="background" d="M0,0h0v0h0Z" style="pointer-events: none; fill: none;"></path><g><g class="mark-rule role-axis-grid" style="pointer-events: none;"><line transform="translate(0,200)" x2="350" y2="0" style="fill: none; stroke: #ddd; stroke-width: 1; opacity: 1;"></line><line transform="translate(0,160)" x2="350" y2="0" style="fill: none; stroke: #ddd; stroke-width: 1; opacity: 1;"></line><line transform="translate(0,120)" x2="350" y2="0" style="fill: none; stroke: #ddd; stroke-width: 1; opacity: 1;"></line><line transform="translate(0,80)" x2="350" y2="0" style="fill: none; stroke: #ddd; stroke-width: 1; opacity: 1;"></line><line transform="translate(0,40)" x2="350" y2="0" style="fill: none; stroke: #ddd; stroke-width: 1; opacity: 1;"></line><line transform="translate(0,0)" x2="350" y2="0" style="fill: none; stroke: #ddd; stroke-width: 1; opacity: 1;"></line></g></g></g></g><g class="mark-line role-mark layer_0_marks"><path d="M231.8729995427526,63.82000000000002L228.51223136716965,64.1L225.15146319158666,64.26000000000002L221.79069501600364,64.1L218.42992684042065,64.02000000000001L215.0691586648377,63.96000000000001L211.7083904892547,63.5L208.34762231367168,63.78L205.0068587105624,63.620000000000005L198.28532235939645,63.69999999999999L191.56378600823044,63.94L184.84224965706449,64.12L178.1207133058985,64.1L171.3991769547325,64.02000000000001L164.67764060356652,64.46000000000001L157.95610425240054,65.32L151.23456790123456,65.34L144.4930269775949,65.82L137.77149062642889,66.52000000000001L131.0499542752629,66.74000000000001L124.32841792409694,67.34L120.96764974851395,67.30000000000001L114.24611339734797,67.26000000000002L107.52457704618199,67.78L100.80304069501601,68.13999999999999L94.08150434385003,68.44L87.35996799268403,68.66L80.63843164151805,69.23999999999998L74.39700502972107,69.48000000000002L67.19535893918611,69.46000000000001L60.47382258802012,69.79999999999998L53.75228623685414,70.08000000000001L47.03074988568815,70.1L40.30921353452218,70.23999999999998L33.58767718335619,70.5L26.886145404663925,70.36000000000001L20.164609053497944,70.36000000000001L13.443072702331962,70.19999999999999L6.721536351165981,70.34L0,70.23999999999998" style="fill: none; stroke: #aec7e8; stroke-width: 2;"></path></g><g class="mark-line role-mark layer_1_marks"><path d="M231.8729995427526,70.74000000000001L228.51223136716965,70.12L225.15146319158666,70.79999999999998L221.79069501600364,70.34L218.42992684042065,69.62L215.0691586648377,69.53999999999999L211.7083904892547,69.57999999999998L208.34762231367168,70.18L205.0068587105624,69.70000000000002L198.28532235939645,69.41999999999999L191.56378600823044,69.08000000000001L184.84224965706449,68.52000000000001L178.1207133058985,66.08000000000001L171.3991769547325,65.30000000000001L164.67764060356652,65.13999999999999L157.95610425240054,65.5L151.23456790123456,65.86000000000001L144.4930269775949,65.94L137.77149062642889,65.84L131.0499542752629,64.88L124.32841792409694,64.75999999999999L120.96764974851395,63.91999999999999L114.24611339734797,63.24000000000001L107.52457704618199,63L100.80304069501601,63.25999999999999L94.08150434385003,62.120000000000005L87.35996799268403,61.02000000000001L80.63843164151805,59.69999999999999L74.39700502972107,59.78L67.19535893918611,59.75999999999999L60.47382258802012,59.81999999999999L53.75228623685414,59.66L47.03074988568815,58.94L40.30921353452218,59.46000000000001L33.58767718335619,58.78L26.886145404663925,58.46000000000001L20.164609053497944,58.44L13.443072702331962,57.53999999999999L6.721536351165981,56.5L0,56.20000000000002" style="fill: none; stroke: #ffbb78; stroke-width: 2;"></path></g><g class="mark-line role-mark layer_2_marks"><path d="M231.8729995427526,45.81999999999999L228.51223136716965,46.31999999999999L225.15146319158666,45.45999999999998L221.79069501600364,42.66L218.42992684042065,42.5L215.0691586648377,41.66L211.7083904892547,41.81999999999999L208.34762231367168,41.81999999999999L205.0068587105624,41.81999999999999L198.28532235939645,40.41999999999999L191.56378600823044,40.84L184.84224965706449,42.31999999999999L178.1207133058985,42.72L171.3991769547325,41.5L164.67764060356652,43.23999999999998L157.95610425240054,44.140000000000015L151.23456790123456,44.660000000000025L144.4930269775949,43.18000000000001L137.77149062642889,45.400000000000006L131.0499542752629,44.379999999999995L124.32841792409694,46.360000000000014L120.96764974851395,45.70000000000002L114.24611339734797,45.70000000000002L107.52457704618199,43.79999999999998L100.80304069501601,45.23999999999998L94.08150434385003,44.08000000000001L87.35996799268403,44.22L80.63843164151805,44.22L74.39700502972107,45.03999999999999L67.19535893918611,44.22L60.47382258802012,44.22L53.75228623685414,46.06L47.03074988568815,44.74000000000001L40.30921353452218,47.06L33.58767718335619,47.74000000000001L26.886145404663925,47.58000000000001L20.164609053497944,47.78L13.443072702331962,46.639999999999986L6.721536351165981,46.94L0,47.74000000000001" style="fill: none; stroke: #9467bd; stroke-width: 4;"></path></g><g class="mark-rule role-mark layer_3_marks"><line transform="translate(0,30)" x2="350" y2="0" style="fill: none; stroke: #2ca02c; stroke-width: 1; stroke-dasharray: 4,2;"></line></g><g class="mark-text role-mark layer_4_marks"><text text-anchor="end" transform="translate(350,197)" style="font-family: sans-serif; font-size: 16px; fill: #2ca02c;">85.00%</text></g><g class="mark-text role-mark layer_5_marks"><text text-anchor="end" transform="translate(350,15)" style="font-family: sans-serif; font-size: 16px; fill: #9467bd;">77.09%</text></g><g class="mark-group role-axis"><g transform="translate(0.5,200.5)"><path class="background" d="M0,0h0v0h0Z" style="pointer-events: none; fill: none;"></path><g><g class="mark-rule role-axis-tick" style="pointer-events: none;"><line transform="translate(0,0)" x2="0" y2="5" style="fill: none; stroke: #888; stroke-width: 1; opacity: 1;"></line><line transform="translate(43,0)" x2="0" y2="5" style="fill: none; stroke: #888; stroke-width: 1; opacity: 1;"></line><line transform="translate(87,0)" x2="0" y2="5" style="fill: none; stroke: #888; stroke-width: 1; opacity: 1;"></line><line transform="translate(131,0)" x2="0" y2="5" style="fill: none; stroke: #888; stroke-width: 1; opacity: 1;"></line><line transform="translate(175,0)" x2="0" y2="5" style="fill: none; stroke: #888; stroke-width: 1; opacity: 1;"></line><line transform="translate(218,0)" x2="0" y2="5" style="fill: none; stroke: #888; stroke-width: 1; opacity: 1;"></line><line transform="translate(262,0)" x2="0" y2="5" style="fill: none; stroke: #888; stroke-width: 1; opacity: 1;"></line><line transform="translate(306,0)" x2="0" y2="5" style="fill: none; stroke: #888; stroke-width: 1; opacity: 1;"></line></g><g class="mark-text role-axis-label" style="pointer-events: none;"><text text-anchor="start" transform="translate(0,15)" style="font-family: sans-serif; font-size: 10px; fill: #000; opacity: 1;">2018</text><text text-anchor="middle" transform="translate(43.18987197073617,15)" style="font-family: sans-serif; font-size: 10px; fill: #000; opacity: 1;">April</text><text text-anchor="middle" transform="translate(86.87985825331505,15)" style="font-family: sans-serif; font-size: 10px; fill: #000; opacity: 1;">July</text><text text-anchor="middle" transform="translate(131.0499542752629,15)" style="font-family: sans-serif; font-size: 10px; fill: #000; opacity: 1;">October</text><text text-anchor="middle" transform="translate(175.24005486968449,15)" style="font-family: sans-serif; font-size: 10px; fill: #000; opacity: 1;">2019</text><text text-anchor="middle" transform="translate(218.42992684042065,15)" style="font-family: sans-serif; font-size: 10px; fill: #000; opacity: 1;">April</text><text text-anchor="middle" transform="translate(262.11991312299955,15)" style="font-family: sans-serif; font-size: 10px; fill: #000; opacity: 1;">July</text><text text-anchor="middle" transform="translate(306.2900091449474,15)" style="font-family: sans-serif; font-size: 10px; fill: #000; opacity: 1;">October</text></g><g class="mark-rule role-axis-domain" style="pointer-events: none;"><line transform="translate(0,0)" x2="350" y2="0" style="fill: none; stroke: #888; stroke-width: 1; opacity: 1;"></line></g></g></g></g><g class="mark-group role-axis"><g transform="translate(0.5,0.5)"><path class="background" d="M0,0h0v0h0Z" style="pointer-events: none; fill: none;"></path><g><g class="mark-rule role-axis-tick" style="pointer-events: none;"><line transform="translate(0,200)" x2="-5" y2="0" style="fill: none; stroke: #888; stroke-width: 1; opacity: 1;"></line><line transform="translate(0,160)" x2="-5" y2="0" style="fill: none; stroke: #888; stroke-width: 1; opacity: 1;"></line><line transform="translate(0,120)" x2="-5" y2="0" style="fill: none; stroke: #888; stroke-width: 1; opacity: 1;"></line><line transform="translate(0,80)" x2="-5" y2="0" style="fill: none; stroke: #888; stroke-width: 1; opacity: 1;"></line><line transform="translate(0,40)" x2="-5" y2="0" style="fill: none; stroke: #888; stroke-width: 1; opacity: 1;"></line><line transform="translate(0,0)" x2="-5" y2="0" style="fill: none; stroke: #888; stroke-width: 1; opacity: 1;"></line></g><g class="mark-text role-axis-label" style="pointer-events: none;"><text text-anchor="end" transform="translate(-7,203)" style="font-family: sans-serif; font-size: 10px; fill: #000; opacity: 1;">0%</text><text text-anchor="end" transform="translate(-7,163)" style="font-family: sans-serif; font-size: 10px; fill: #000; opacity: 1;">20%</text><text text-anchor="end" transform="translate(-7,123)" style="font-family: sans-serif; font-size: 10px; fill: #000; opacity: 1;">40%</text><text text-anchor="end" transform="translate(-7,83)" style="font-family: sans-serif; font-size: 10px; fill: #000; opacity: 1;">60%</text><text text-anchor="end" transform="translate(-7,43)" style="font-family: sans-serif; font-size: 10px; fill: #000; opacity: 1;">80%</text><text text-anchor="end" transform="translate(-7,3)" style="font-family: sans-serif; font-size: 10px; fill: #000; opacity: 1;">100%</text></g><g class="mark-rule role-axis-domain" style="pointer-events: none;"><line transform="translate(0,200)" x2="0" y2="-200" style="fill: none; stroke: #888; stroke-width: 1; opacity: 1;"></line></g></g></g></g></g></g></g></g></svg>