<svg class="marks" width="397" height="234" viewBox="0 0 397 234" version="1.1" xmlns="http://www.w3.org/2000/svg" xmlns:xlink="http://www.w3.org/1999/xlink"><g transform="translate(41,11)"><g class="mark-group role-frame root"><g transform="translate(0,0)"><path class="background" d="M0.5,0.5h350v200h-350Z" style="fill: none; stroke: #ddd;"></path><g><g class="mark-group role-axis"><g transform="translate(0.5,200.5)"><path class="background" d="M0,0h0v0h0Z" style="pointer-events: none; fill: none;"></path><g><g class="mark-rule role-axis-grid" style="pointer-events: none;"><line transform="translate(0,-200)" x2="0" y2="200" style="fill: none; stroke: #ddd; stroke-width: 1; opacity: 1;"></line><line transform="translate(43,-200)" x2="0" y2="200" style="fill: none; stroke: #ddd; stroke-width: 1; opacity: 1;"></line><line transform="translate(87,-200)" x2="0" y2="200" style="fill: none; stroke: #ddd; stroke-width: 1; opacity: 1;"></line><line transform="translate(131,-200)" x2="0" y2="200" style="fill: none; stroke: #ddd; stroke-width: 1; opacity: 1;"></line><line transform="translate(175,-200)" x2="0" y2="200" style="fill: none; stroke: #ddd; stroke-width: 1; opacity: 1;"></line><line transform="translate(218,-200)" x2="0" y2="200" style="fill: none; stroke: #ddd; stroke-width: 1; opacity: 1;"></line><line transform="translate(262,-200)" x2="0" y2="200" style="fill: none; stroke: #ddd; stroke-width: 1; opacity: 1;"></line><line transform="translate(306,-200)" x2="0" y2="200" style="fill: none; stroke: #ddd; stroke-width: 1; opacity: 1;"></line></g></g></g></g><g class="mark-group role-axis"><g transform="translate(0.5,0.5)"><path class="background" d="M0,0h0v0h0Z" style="pointer-events: none; fill: none;"></path><g><g class="mark-rule role-axis-grid" style="pointer-events: none;"><line transform="translate(0,200)" x2="350" y2="0" style="fill: none; stroke: #ddd; stroke-width: 1; opacity: 1;"></line><line transform="translate(0,160)" x2="350" y2="0" style="fill: none; stroke: #ddd; stroke-width: 1; opacity: 1;"></line><line transform="translate(0,120)" x2="350" y2="0" style="fill: none; stroke: #ddd; stroke-width: 1; opacity: 1;"></line><line transform="translate(0,80)" x2="350" y2="0" style="fill: none; stroke: #ddd; stroke-width: 1; opacity: 1;"></line><line transform="translate(0,40)" x2="350" y2="0" style="fill: none; stroke: #ddd; stroke-width: 1; opacity: 1;"></line><line transform="translate(0,0)" x2="350" y2="0" style="fill: none; stroke: #ddd; stroke-width: 1; opacity: 1;"></line></g></g></g></g><g class="mark-line role-mark layer_0_marks"><path d="M231.8729995427526,48.01999999999998L228.51223136716965,47.78L225.15146319158666,47.84L221.79069501600364,47.94L218.42992684042065,48.120000000000005L215.0691586648377,48.23999999999998L211.7083904892547,48.360000000000014L208.34762231367168,48.5L205.0068587105624,48.78L198.28532235939645,48.639999999999986L191.56378600823044,48.67999999999998L184.84224965706449,48.84L178.1207133058985,48.56L171.3991769547325,48.41999999999999L164.67764060356652,48.44L157.95610425240054,48.41999999999999L151.23456790123456,47.96000000000001L144.4930269775949,47.900000000000006L137.77149062642889,47.900000000000006L131.0499542752629,47.97999999999999L124.32841792409694,47.920000000000016L120.96764974851395,48.140000000000015L114.24611339734797,47.56L107.52457704618199,47.879999999999995L100.80304069501601,47.48000000000002L94.08150434385003,47.25999999999999L87.35996799268403,47.19999999999999L80.63843164151805,47.81999999999999L74.39700502972107,48L67.19535893918611,47.900000000000006L60.47382258802012,47.67999999999998L53.75228623685414,47.639999999999986L47.03074988568815,47.30000000000001L40.30921353452218,47.08000000000001L33.58767718335619,47.120000000000005L26.886145404663925,47.44L20.164609053497944,47.75999999999999L13.443072702331962,48.31999999999999L6.721536351165981,47.96000000000001L0,47.620000000000005" style="fill: none; stroke: #aec7e8; stroke-width: 2;"></path></g><g class="mark-line role-mark layer_1_marks"><path d="M231.8729995427526,42.24000000000001L228.51223136716965,41.56L225.15146319158666,41.56L221.79069501600364,42.599999999999994L218.42992684042065,42.599999999999994L215.0691586648377,41.56L211.7083904892547,43.30000000000001L208.34762231367168,43.96000000000001L205.0068587105624,43.78L198.28532235939645,43.66L191.56378600823044,43.860000000000014L184.84224965706449,44.53999999999999L178.1207133058985,46.52000000000001L171.3991769547325,46.30000000000001L164.67764060356652,45.879999999999995L157.95610425240054,47.06L151.23456790123456,45.879999999999995L144.4930269775949,47.44L137.77149062642889,46.30000000000001L131.0499542752629,46.52000000000001L124.32841792409694,47.879999999999995L120.96764974851395,48.81999999999999L114.24611339734797,48.80000000000001L107.52457704618199,50.94L100.80304069501601,50.24000000000001L94.08150434385003,52.41999999999999L87.35996799268403,52.22L80.63843164151805,59.84L74.39700502972107,59.84L67.19535893918611,58.5L60.47382258802012,59.20000000000002L53.75228623685414,58.06L47.03074988568815,59.099999999999994L40.30921353452218,60.66L33.58767718335619,60L26.886145404663925,59.75999999999999L20.164609053497944,61.80000000000001L13.443072702331962,64L6.721536351165981,63.68000000000001L0,64.44" style="fill: none; stroke: #ffbb78; stroke-width: 2;"></path></g><g class="mark-line role-mark layer_2_marks"><path d="M231.8729995427526,28.24000000000001L228.51223136716965,30.960000000000008L225.15146319158666,28.919999999999987L221.79069501600364,31.319999999999993L218.42992684042065,31.319999999999993L215.0691586648377,31.319999999999993L211.7083904892547,31.319999999999993L208.34762231367168,31.319999999999993L205.0068587105624,30.960000000000008L198.28532235939645,33.34L191.56378600823044,33.34L184.84224965706449,32.94L178.1207133058985,37.20000000000002L171.3991769547325,37.20000000000002L164.67764060356652,37.20000000000002L157.95610425240054,35.95999999999998L151.23456790123456,33.69999999999999L144.4930269775949,35.95999999999998L137.77149062642889,33.34L131.0499542752629,35.16L124.32841792409694,35.95999999999998L120.96764974851395,38.19999999999999L114.24611339734797,36.78L107.52457704618199,41.75999999999999L100.80304069501601,38.19999999999999L94.08150434385003,40.44L87.35996799268403,38.19999999999999L80.63843164151805,36.359999999999985L74.39700502972107,41.860000000000014L67.19535893918611,33.34L60.47382258802012,34.66L53.75228623685414,34.78L47.03074988568815,34.78L40.30921353452218,38.24000000000001L33.58767718335619,41.79999999999998L26.886145404663925,41.18000000000001L20.164609053497944,43.08000000000001L13.443072702331962,46.880000000000024L6.721536351165981,48.379999999999995L0,49.18000000000001" style="fill: none; stroke: #9467bd; stroke-width: 4;"></path></g><g class="mark-rule role-mark layer_3_marks"><line transform="translate(0,40)" x2="350" y2="0" style="fill: none; stroke: #2ca02c; stroke-width: 1; stroke-dasharray: 4,2;"></line></g><g class="mark-text role-mark layer_4_marks"><text text-anchor="end" transform="translate(350,197)" style="font-family: sans-serif; font-size: 16px; fill: #2ca02c;">80.00%</text></g><g class="mark-text role-mark layer_5_marks"><text text-anchor="end" transform="translate(350,15)" style="font-family: sans-serif; font-size: 16px; fill: #9467bd;">85.88%</text></g><g class="mark-group role-axis"><g transform="translate(0.5,200.5)"><path class="background" d="M0,0h0v0h0Z" style="pointer-events: none; fill: none;"></path><g><g class="mark-rule role-axis-tick" style="pointer-events: none;"><line transform="translate(0,0)" x2="0" y2="5" style="fill: none; stroke: #888; stroke-width: 1; opacity: 1;"></line><line transform="translate(43,0)" x2="0" y2="5" style="fill: none; stroke: #888; stroke-width: 1; opacity: 1;"></line><line transform="translate(87,0)" x2="0" y2="5" style="fill: none; stroke: #888; stroke-width: 1; opacity: 1;"></line><line transform="translate(131,0)" x2="0" y2="5" style="fill: none; stroke: #888; stroke-width: 1; opacity: 1;"></line><line transform="translate(175,0)" x2="0" y2="5" style="fill: none; stroke: #888; stroke-width: 1; opacity: 1;"></line><line transform="translate(218,0)" x2="0" y2="5" style="fill: none; stroke: #888; stroke-width: 1; opacity: 1;"></line><line transform="translate(262,0)" x2="0" y2="5" style="fill: none; stroke: #888; stroke-width: 1; opacity: 1;"></line><line transform="translate(306,0)" x2="0" y2="5" style="fill: none; stroke: #888; stroke-width: 1; opacity: 1;"></line></g><g class="mark-text role-axis-label" style="pointer-events: none;"><text text-anchor="start" transform="translate(0,15)" style="font-family: sans-serif; font-size: 10px; fill: #000; opacity: 1;">2018</text><text text-anchor="middle" transform="translate(43.18987197073617,15)" style="font-family: sans-serif; font-size: 10px; fill: #000; opacity: 1;">April</text><text text-anchor="middle" transform="translate(86.87985825331505,15)" style="font-family: sans-serif; font-size: 10px; fill: #000; opacity: 1;">July</text><text text-anchor="middle" transform="translate(131.0499542752629,15)" style="font-family: sans-serif; font-size: 10px; fill: #000; opacity: 1;">October</text><text text-anchor="middle" transform="translate(175.24005486968449,15)" style="font-family: sans-serif; font-size: 10px; fill: #000; opacity: 1;">2019</text><text text-anchor="middle" transform="translate(218.42992684042065,15)" style="font-family: sans-serif; font-size: 10px; fill: #000; opacity: 1;">April</text><text text-anchor="middle" transform="translate(262.11991312299955,15)" style="font-family: sans-serif; font-size: 10px; fill: #000; opacity: 1;">July</text><text text-anchor="middle" transform="translate(306.2900091449474,15)" style="font-family: sans-serif; font-size: 10px; fill: #000; opacity: 1;">October</text></g><g class="mark-rule role-axis-domain" style="pointer-events: none;"><line transform="translate(0,0)" x2="350" y2="0" style="fill: none; stroke: #888; stroke-width: 1; opacity: 1;"></line></g></g></g></g><g class="mark-group role-axis"><g transform="translate(0.5,0.5)"><path class="background" d="M0,0h0v0h0Z" style="pointer-events: none; fill: none;"></path><g><g class="mark-rule role-axis-tick" style="pointer-events: none;"><line transform="translate(0,200)" x2="-5" y2="0" style="fill: none; stroke: #888; stroke-width: 1; opacity: 1;"></line><line transform="translate(0,160)" x2="-5" y2="0" style="fill: none; stroke: #888; stroke-width: 1; opacity: 1;"></line><line transform="translate(0,120)" x2="-5" y2="0" style="fill: none; stroke: #888; stroke-width: 1; opacity: 1;"></line><line transform="translate(0,80)" x2="-5" y2="0" style="fill: none; stroke: #888; stroke-width: 1; opacity: 1;"></line><line transform="translate(0,40)" x2="-5" y2="0" style="fill: none; stroke: #888; stroke-width: 1; opacity: 1;"></line><line transform="translate(0,0)" x2="-5" y2="0" style="fill: none; stroke: #888; stroke-width: 1; opacity: 1;"></line></g><g class="mark-text role-axis-label" style="pointer-events: none;"><text text-anchor="end" transform="translate(-7,203)" style="font-family: sans-serif; font-size: 10px; fill: #000; opacity: 1;">0%</text><text text-anchor="end" transform="translate(-7,163)" style="font-family: sans-serif; font-size: 10px; fill: #000; opacity: 1;">20%</text><text text-anchor="end" transform="translate(-7,123)" style="font-family: sans-serif; font-size: 10px; fill: #000; opacity: 1;">40%</text><text text-anchor="end" transform="translate(-7,83)" style="font-family: sans-serif; font-size: 10px; fill: #000; opacity: 1;">60%</text><text text-anchor="end" transform="translate(-7,43)" style="font-family: sans-serif; font-size: 10px; fill: #000; opacity: 1;">80%</text><text text-anchor="end" transform="translate(-7,3)" style="font-family: sans-serif; font-size: 10px; fill: #000; opacity: 1;">100%</text></g><g class="mark-rule role-axis-domain" style="pointer-events: none;"><line transform="translate(0,200)" x2="0" y2="-200" style="fill: none; stroke: #888; stroke-width: 1; opacity: 1;"></line></g></g></g></g></g></g></g></g></svg>