<svg class="marks" width="397" height="234" viewBox="0 0 397 234" version="1.1" xmlns="http://www.w3.org/2000/svg" xmlns:xlink="http://www.w3.org/1999/xlink"><g transform="translate(41,11)"><g class="mark-group role-frame root"><g transform="translate(0,0)"><path class="background" d="M0.5,0.5h350v200h-350Z" style="fill: none; stroke: #ddd;"></path><g><g class="mark-group role-axis"><g transform="translate(0.5,200.5)"><path class="background" d="M0,0h0v0h0Z" style="pointer-events: none; fill: none;"></path><g><g class="mark-rule role-axis-grid" style="pointer-events: none;"><line transform="translate(0,-200)" x2="0" y2="200" style="fill: none; stroke: #ddd; stroke-width: 1; opacity: 1;"></line><line transform="translate(43,-200)" x2="0" y2="200" style="fill: none; stroke: #ddd; stroke-width: 1; opacity: 1;"></line><line transform="translate(87,-200)" x2="0" y2="200" style="fill: none; stroke: #ddd; stroke-width: 1; opacity: 1;"></line><line transform="translate(131,-200)" x2="0" y2="200" style="fill: none; stroke: #ddd; stroke-width: 1; opacity: 1;"></line><line transform="translate(175,-200)" x2="0" y2="200" style="fill: none; stroke: #ddd; stroke-width: 1; opacity: 1;"></line><line transform="translate(218,-200)" x2="0" y2="200" style="fill: none; stroke: #ddd; stroke-width: 1; opacity: 1;"></line><line transform="translate(262,-200)" x2="0" y2="200" style="fill: none; stroke: #ddd; stroke-width: 1; opacity: 1;"></line><line transform="translate(306,-200)" x2="0" y2="200" style="fill: none; stroke: #ddd; stroke-width: 1; opacity: 1;"></line></g></g></g></g><g class="mark-group role-axis"><g transform="translate(0.5,0.5)"><path class="background" d="M0,0h0v0h0Z" style="pointer-events: none; fill: none;"></path><g><g class="mark-rule role-axis-grid" style="pointer-events: none;"><line transform="translate(0,200)" x2="350" y2="0" style="fill: none; stroke: #ddd; stroke-width: 1; opacity: 1;"></line><line transform="translate(0,160)" x2="350" y2="0" style="fill: none; stroke: #ddd; stroke-width: 1; opacity: 1;"></line><line transform="translate(0,120)" x2="350" y2="0" style="fill: none; stroke: #ddd; stroke-width: 1; opacity: 1;"></line><line transform="translate(0,80)" x2="350" y2="0" style="fill: none; stroke: #ddd; stroke-width: 1; opacity: 1;"></line><line transform="translate(0,40)" x2="350" y2="0" style="fill: none; stroke: #ddd; stroke-width: 1; opacity: 1;"></line><line transform="translate(0,0)" x2="350" y2="0" style="fill: none; stroke: #ddd; stroke-width: 1; opacity: 1;"></line></g></g></g></g><g class="mark-line role-mark layer_0_marks"><path d="M225.15146319158666,58.46000000000001L221.79069501600364,58.379999999999995L218.42992684042065,58.66L215.0691586648377,58.66L211.7083904892547,58.400000000000006L208.34762231367168,58.81999999999999L205.0068587105624,58.34L198.28532235939645,58.079999999999984L191.56378600823044,57.68000000000001L184.84224965706449,57.75999999999999L178.1207133058985,57.5L171.3991769547325,57.20000000000002L164.67764060356652,57.81999999999999L157.95610425240054,57.25999999999999L151.23456790123456,57.02000000000001L144.4930269775949,57.139999999999986L137.77149062642889,57.29999999999998L131.0499542752629,58.18000000000001L124.32841792409694,58.31999999999999L120.96764974851395,57.879999999999995L114.24611339734797,57.69999999999999L107.52457704618199,58.22L100.80304069501601,58.400000000000006L94.08150434385003,58.46000000000001L87.35996799268403,58.599999999999994L80.63843164151805,59.18000000000001L74.39700502972107,59.16L67.19535893918611,59.400000000000006L60.47382258802012,59.47999999999999L53.75228623685414,59.56L47.03074988568815,59.380000000000024L40.30921353452218,58.56L33.58767718335619,57.80000000000001L26.886145404663925,57.44L20.164609053497944,55.73999999999998L13.443072702331962,56.079999999999984L6.721536351165981,55.44L0,54.68000000000001" style="fill: none; stroke: #aec7e8; stroke-width: 2;"></path></g><g class="mark-line role-mark layer_1_marks"><path d="M225.15146319158666,61.16L221.79069501600364,59.94L218.42992684042065,60.73999999999998L215.0691586648377,60.139999999999986L211.7083904892547,58.75999999999999L208.34762231367168,59.51999999999998L205.0068587105624,57.620000000000005L198.28532235939645,56.46000000000001L191.56378600823044,54.98000000000002L184.84224965706449,57.22L178.1207133058985,57.44L171.3991769547325,56.03999999999999L164.67764060356652,55.68000000000001L157.95610425240054,55.859999999999985L151.23456790123456,56.46000000000001L144.4930269775949,56.53999999999999L137.77149062642889,56.879999999999995L131.0499542752629,61.5L124.32841792409694,60.97999999999999L120.96764974851395,59.80000000000001L114.24611339734797,58.29999999999998L107.52457704618199,57.81999999999999L100.80304069501601,57.18000000000001L94.08150434385003,56.420000000000016L87.35996799268403,57.51999999999998L80.63843164151805,54.78L74.39700502972107,55.22L67.19535893918611,58.06L60.47382258802012,57.47999999999999L53.75228623685414,58.29999999999998L47.03074988568815,59.46000000000001L40.30921353452218,60.579999999999984L33.58767718335619,60.25999999999999L26.886145404663925,58.28L20.164609053497944,56.099999999999994L13.443072702331962,54.25999999999999L6.721536351165981,54.02000000000001L0,53.41999999999999" style="fill: none; stroke: #ffbb78; stroke-width: 2;"></path></g><g class="mark-line role-mark layer_2_marks"><path d="M225.15146319158666,77.2L221.79069501600364,81.42L218.42992684042065,81.74L215.0691586648377,75.44L211.7083904892547,72.56L208.34762231367168,73.88L205.0068587105624,73.88L198.28532235939645,69.01999999999998L191.56378600823044,64.28L184.84224965706449,67.79999999999998L178.1207133058985,74.14L171.3991769547325,74.78L164.67764060356652,64.28L157.95610425240054,64.28L151.23456790123456,63.72L144.4930269775949,66.08000000000001L137.77149062642889,60.34L131.0499542752629,61.53999999999999L124.32841792409694,64.39999999999998L120.96764974851395,60.5L114.24611339734797,63.34L107.52457704618199,62.30000000000001L100.80304069501601,61.78L94.08150434385003,61.78L87.35996799268403,63.420000000000016L80.63843164151805,61.78L74.39700502972107,60.16L67.19535893918611,65.57999999999998L60.47382258802012,62.900000000000006L53.75228623685414,66.13999999999999L47.03074988568815,67.18L40.30921353452218,74.54L33.58767718335619,77.78L26.886145404663925,72.16L20.164609053497944,65.41999999999999L13.443072702331962,59.18000000000001L6.721536351165981,59.25999999999999L0,64.86000000000001" style="fill: none; stroke: #9467bd; stroke-width: 4;"></path></g><g class="mark-rule role-mark layer_3_marks"><line transform="translate(0,40)" x2="350" y2="0" style="fill: none; stroke: #2ca02c; stroke-width: 1; stroke-dasharray: 4,2;"></line></g><g class="mark-text role-mark layer_4_marks"><text text-anchor="end" transform="translate(350,197)" style="font-family: sans-serif; font-size: 16px; fill: #2ca02c;">80.00%</text></g><g class="mark-text role-mark layer_5_marks"><text text-anchor="end" transform="translate(350,15)" style="font-family: sans-serif; font-size: 16px; fill: #9467bd;">61.40%</text></g><g class="mark-group role-axis"><g transform="translate(0.5,200.5)"><path class="background" d="M0,0h0v0h0Z" style="pointer-events: none; fill: none;"></path><g><g class="mark-rule role-axis-tick" style="pointer-events: none;"><line transform="translate(0,0)" x2="0" y2="5" style="fill: none; stroke: #888; stroke-width: 1; opacity: 1;"></line><line transform="translate(43,0)" x2="0" y2="5" style="fill: none; stroke: #888; stroke-width: 1; opacity: 1;"></line><line transform="translate(87,0)" x2="0" y2="5" style="fill: none; stroke: #888; stroke-width: 1; opacity: 1;"></line><line transform="translate(131,0)" x2="0" y2="5" style="fill: none; stroke: #888; stroke-width: 1; opacity: 1;"></line><line transform="translate(175,0)" x2="0" y2="5" style="fill: none; stroke: #888; stroke-width: 1; opacity: 1;"></line><line transform="translate(218,0)" x2="0" y2="5" style="fill: none; stroke: #888; stroke-width: 1; opacity: 1;"></line><line transform="translate(262,0)" x2="0" y2="5" style="fill: none; stroke: #888; stroke-width: 1; opacity: 1;"></line><line transform="translate(306,0)" x2="0" y2="5" style="fill: none; stroke: #888; stroke-width: 1; opacity: 1;"></line></g><g class="mark-text role-axis-label" style="pointer-events: none;"><text text-anchor="start" transform="translate(0,15)" style="font-family: sans-serif; font-size: 10px; fill: #000; opacity: 1;">2018</text><text text-anchor="middle" transform="translate(43.18987197073617,15)" style="font-family: sans-serif; font-size: 10px; fill: #000; opacity: 1;">April</text><text text-anchor="middle" transform="translate(86.87985825331505,15)" style="font-family: sans-serif; font-size: 10px; fill: #000; opacity: 1;">July</text><text text-anchor="middle" transform="translate(131.0499542752629,15)" style="font-family: sans-serif; font-size: 10px; fill: #000; opacity: 1;">October</text><text text-anchor="middle" transform="translate(175.24005486968449,15)" style="font-family: sans-serif; font-size: 10px; fill: #000; opacity: 1;">2019</text><text text-anchor="middle" transform="translate(218.42992684042065,15)" style="font-family: sans-serif; font-size: 10px; fill: #000; opacity: 1;">April</text><text text-anchor="middle" transform="translate(262.11991312299955,15)" style="font-family: sans-serif; font-size: 10px; fill: #000; opacity: 1;">July</text><text text-anchor="middle" transform="translate(306.2900091449474,15)" style="font-family: sans-serif; font-size: 10px; fill: #000; opacity: 1;">October</text></g><g class="mark-rule role-axis-domain" style="pointer-events: none;"><line transform="translate(0,0)" x2="350" y2="0" style="fill: none; stroke: #888; stroke-width: 1; opacity: 1;"></line></g></g></g></g><g class="mark-group role-axis"><g transform="translate(0.5,0.5)"><path class="background" d="M0,0h0v0h0Z" style="pointer-events: none; fill: none;"></path><g><g class="mark-rule role-axis-tick" style="pointer-events: none;"><line transform="translate(0,200)" x2="-5" y2="0" style="fill: none; stroke: #888; stroke-width: 1; opacity: 1;"></line><line transform="translate(0,160)" x2="-5" y2="0" style="fill: none; stroke: #888; stroke-width: 1; opacity: 1;"></line><line transform="translate(0,120)" x2="-5" y2="0" style="fill: none; stroke: #888; stroke-width: 1; opacity: 1;"></line><line transform="translate(0,80)" x2="-5" y2="0" style="fill: none; stroke: #888; stroke-width: 1; opacity: 1;"></line><line transform="translate(0,40)" x2="-5" y2="0" style="fill: none; stroke: #888; stroke-width: 1; opacity: 1;"></line><line transform="translate(0,0)" x2="-5" y2="0" style="fill: none; stroke: #888; stroke-width: 1; opacity: 1;"></line></g><g class="mark-text role-axis-label" style="pointer-events: none;"><text text-anchor="end" transform="translate(-7,203)" style="font-family: sans-serif; font-size: 10px; fill: #000; opacity: 1;">0%</text><text text-anchor="end" transform="translate(-7,163)" style="font-family: sans-serif; font-size: 10px; fill: #000; opacity: 1;">20%</text><text text-anchor="end" transform="translate(-7,123)" style="font-family: sans-serif; font-size: 10px; fill: #000; opacity: 1;">40%</text><text text-anchor="end" transform="translate(-7,83)" style="font-family: sans-serif; font-size: 10px; fill: #000; opacity: 1;">60%</text><text text-anchor="end" transform="translate(-7,43)" style="font-family: sans-serif; font-size: 10px; fill: #000; opacity: 1;">80%</text><text text-anchor="end" transform="translate(-7,3)" style="font-family: sans-serif; font-size: 10px; fill: #000; opacity: 1;">100%</text></g><g class="mark-rule role-axis-domain" style="pointer-events: none;"><line transform="translate(0,200)" x2="0" y2="-200" style="fill: none; stroke: #888; stroke-width: 1; opacity: 1;"></line></g></g></g></g></g></g></g></g></svg>