<svg class="marks" width="397" height="234" viewBox="0 0 397 234" version="1.1" xmlns="http://www.w3.org/2000/svg" xmlns:xlink="http://www.w3.org/1999/xlink"><g transform="translate(41,11)"><g class="mark-group role-frame root"><g transform="translate(0,0)"><path class="background" d="M0.5,0.5h350v200h-350Z" style="fill: none; stroke: #ddd;"></path><g><g class="mark-group role-axis"><g transform="translate(0.5,200.5)"><path class="background" d="M0,0h0v0h0Z" style="pointer-events: none; fill: none;"></path><g><g class="mark-rule role-axis-grid" style="pointer-events: none;"><line transform="translate(0,-200)" x2="0" y2="200" style="fill: none; stroke: #ddd; stroke-width: 1; opacity: 1;"></line><line transform="translate(43,-200)" x2="0" y2="200" style="fill: none; stroke: #ddd; stroke-width: 1; opacity: 1;"></line><line transform="translate(87,-200)" x2="0" y2="200" style="fill: none; stroke: #ddd; stroke-width: 1; opacity: 1;"></line><line transform="translate(131,-200)" x2="0" y2="200" style="fill: none; stroke: #ddd; stroke-width: 1; opacity: 1;"></line><line transform="translate(175,-200)" x2="0" y2="200" style="fill: none; stroke: #ddd; stroke-width: 1; opacity: 1;"></line><line transform="translate(218,-200)" x2="0" y2="200" style="fill: none; stroke: #ddd; stroke-width: 1; opacity: 1;"></line><line transform="translate(262,-200)" x2="0" y2="200" style="fill: none; stroke: #ddd; stroke-width: 1; opacity: 1;"></line><line transform="translate(306,-200)" x2="0" y2="200" style="fill: none; stroke: #ddd; stroke-width: 1; opacity: 1;"></line></g></g></g></g><g class="mark-group role-axis"><g transform="translate(0.5,0.5)"><path class="background" d="M0,0h0v0h0Z" style="pointer-events: none; fill: none;"></path><g><g class="mark-rule role-axis-grid" style="pointer-events: none;"><line transform="translate(0,200)" x2="350" y2="0" style="fill: none; stroke: #ddd; stroke-width: 1; opacity: 1;"></line><line transform="translate(0,160)" x2="350" y2="0" style="fill: none; stroke: #ddd; stroke-width: 1; opacity: 1;"></line><line transform="translate(0,120)" x2="350" y2="0" style="fill: none; stroke: #ddd; stroke-width: 1; opacity: 1;"></line><line transform="translate(0,80)" x2="350" y2="0" style="fill: none; stroke: #ddd; stroke-width: 1; opacity: 1;"></line><line transform="translate(0,40)" x2="350" y2="0" style="fill: none; stroke: #ddd; stroke-width: 1; opacity: 1;"></line><line transform="translate(0,0)" x2="350" y2="0" style="fill: none; stroke: #ddd; stroke-width: 1; opacity: 1;"></line></g></g></g></g><g class="mark-line role-mark layer_0_marks"><path d="M228.51223136716965,147.06L225.15146319158666,147.8L221.79069501600364,147.78L218.42992684042065,148.06L215.0691586648377,147.9L211.7083904892547,148.3L208.34762231367168,147.86L205.0068587105624,148.3L198.28532235939645,148.8L191.56378600823044,150.4L184.84224965706449,149.72L178.1207133058985,148.24L171.3991769547325,148.18L164.67764060356652,148.98000000000002L157.95610425240054,147.12L151.23456790123456,146.62L144.4930269775949,146.64L137.77149062642889,144.56L131.0499542752629,144.18L124.32841792409694,145.12L120.96764974851395,145.48L114.24611339734797,143.4L107.52457704618199,143.7L100.80304069501601,144.2L94.08150434385003,143.8L87.35996799268403,147.72L80.63843164151805,148.42L74.39700502972107,148.64000000000001L67.19535893918611,149.06L60.47382258802012,150.38L53.75228623685414,150L47.03074988568815,149.82L40.30921353452218,149.88L33.58767718335619,151.44L26.886145404663925,150.64L20.164609053497944,150.38L13.443072702331962,149.3L6.721536351165981,148.96L0,147.98000000000002" style="fill: none; stroke: #aec7e8; stroke-width: 2;"></path></g><g class="mark-line role-mark layer_1_marks"><path d="M228.51223136716965,146.72L225.15146319158666,147.36L221.79069501600364,144.5L218.42992684042065,143.12L215.0691586648377,143.36L211.7083904892547,143.12L208.34762231367168,141.34L205.0068587105624,140.7L198.28532235939645,142.1L191.56378600823044,141.48L184.84224965706449,142.48L178.1207133058985,141.86L171.3991769547325,141.34L164.67764060356652,143.36L157.95610425240054,142.98L151.23456790123456,141.22L144.4930269775949,142.1L137.77149062642889,140.08L131.0499542752629,142.36L124.32841792409694,146.02L120.96764974851395,144.88L114.24611339734797,144.64L107.52457704618199,147.51999999999998L100.80304069501601,148.62L94.08150434385003,149.78L87.35996799268403,151.72L80.63843164151805,153.1L74.39700502972107,154.48000000000002L67.19535893918611,154.48000000000002L60.47382258802012,157.78L53.75228623685414,159.44L47.03074988568815,158.6L40.30921353452218,162.8L33.58767718335619,162.5L26.886145404663925,160.42000000000002L20.164609053497944,158.34L13.443072702331962,157.36L6.721536351165981,156.94L0,153.42000000000002" style="fill: none; stroke: #ffbb78; stroke-width: 2;"></path></g><g class="mark-line role-mark layer_2_marks"><path d="M228.51223136716965,162.5L225.15146319158666,150L221.79069501600364,150L218.42992684042065,137.5L215.0691586648377,137.5L211.7083904892547,137.5L208.34762231367168,141.18L205.0068587105624,141.18L198.28532235939645,141.18L191.56378600823044,129.42000000000002L184.84224965706449,129.42000000000002L178.1207133058985,129.42000000000002L171.3991769547325,133.34L164.67764060356652,133.34L157.95610425240054,133.34L151.23456790123456,133.34L144.4930269775949,133.34L137.77149062642889,133.34L131.0499542752629,133.34L124.32841792409694,144.44L120.96764974851395,144.44L114.24611339734797,155.56L107.52457704618199,129.42000000000002L100.80304069501601,117.64L94.08150434385003,117.64L87.35996799268403,126.32L80.63843164151805,126.32L74.39700502972107,126.32L67.19535893918611,126.32L60.47382258802012,126.32L53.75228623685414,136.84L47.03074988568815,136.84L40.30921353452218,150L33.58767718335619,150L26.886145404663925,150L20.164609053497944,160L13.443072702331962,157.9L6.721536351165981,166.66L0,166.66" style="fill: none; stroke: #9467bd; stroke-width: 4;"></path></g><g class="mark-rule role-mark layer_3_marks"><line transform="translate(0,40)" x2="350" y2="0" style="fill: none; stroke: #2ca02c; stroke-width: 1; stroke-dasharray: 4,2;"></line></g><g class="mark-text role-mark layer_4_marks"><text text-anchor="end" transform="translate(350,197)" style="font-family: sans-serif; font-size: 16px; fill: #2ca02c;">80.00%</text></g><g class="mark-text role-mark layer_5_marks"><text text-anchor="end" transform="translate(350,15)" style="font-family: sans-serif; font-size: 16px; fill: #9467bd;">18.75%</text></g><g class="mark-group role-axis"><g transform="translate(0.5,200.5)"><path class="background" d="M0,0h0v0h0Z" style="pointer-events: none; fill: none;"></path><g><g class="mark-rule role-axis-tick" style="pointer-events: none;"><line transform="translate(0,0)" x2="0" y2="5" style="fill: none; stroke: #888; stroke-width: 1; opacity: 1;"></line><line transform="translate(43,0)" x2="0" y2="5" style="fill: none; stroke: #888; stroke-width: 1; opacity: 1;"></line><line transform="translate(87,0)" x2="0" y2="5" style="fill: none; stroke: #888; stroke-width: 1; opacity: 1;"></line><line transform="translate(131,0)" x2="0" y2="5" style="fill: none; stroke: #888; stroke-width: 1; opacity: 1;"></line><line transform="translate(175,0)" x2="0" y2="5" style="fill: none; stroke: #888; stroke-width: 1; opacity: 1;"></line><line transform="translate(218,0)" x2="0" y2="5" style="fill: none; stroke: #888; stroke-width: 1; opacity: 1;"></line><line transform="translate(262,0)" x2="0" y2="5" style="fill: none; stroke: #888; stroke-width: 1; opacity: 1;"></line><line transform="translate(306,0)" x2="0" y2="5" style="fill: none; stroke: #888; stroke-width: 1; opacity: 1;"></line></g><g class="mark-text role-axis-label" style="pointer-events: none;"><text text-anchor="start" transform="translate(0,15)" style="font-family: sans-serif; font-size: 10px; fill: #000; opacity: 1;">2018</text><text text-anchor="middle" transform="translate(43.18987197073617,15)" style="font-family: sans-serif; font-size: 10px; fill: #000; opacity: 1;">April</text><text text-anchor="middle" transform="translate(86.87985825331505,15)" style="font-family: sans-serif; font-size: 10px; fill: #000; opacity: 1;">July</text><text text-anchor="middle" transform="translate(131.0499542752629,15)" style="font-family: sans-serif; font-size: 10px; fill: #000; opacity: 1;">October</text><text text-anchor="middle" transform="translate(175.24005486968449,15)" style="font-family: sans-serif; font-size: 10px; fill: #000; opacity: 1;">2019</text><text text-anchor="middle" transform="translate(218.42992684042065,15)" style="font-family: sans-serif; font-size: 10px; fill: #000; opacity: 1;">April</text><text text-anchor="middle" transform="translate(262.11991312299955,15)" style="font-family: sans-serif; font-size: 10px; fill: #000; opacity: 1;">July</text><text text-anchor="middle" transform="translate(306.2900091449474,15)" style="font-family: sans-serif; font-size: 10px; fill: #000; opacity: 1;">October</text></g><g class="mark-rule role-axis-domain" style="pointer-events: none;"><line transform="translate(0,0)" x2="350" y2="0" style="fill: none; stroke: #888; stroke-width: 1; opacity: 1;"></line></g></g></g></g><g class="mark-group role-axis"><g transform="translate(0.5,0.5)"><path class="background" d="M0,0h0v0h0Z" style="pointer-events: none; fill: none;"></path><g><g class="mark-rule role-axis-tick" style="pointer-events: none;"><line transform="translate(0,200)" x2="-5" y2="0" style="fill: none; stroke: #888; stroke-width: 1; opacity: 1;"></line><line transform="translate(0,160)" x2="-5" y2="0" style="fill: none; stroke: #888; stroke-width: 1; opacity: 1;"></line><line transform="translate(0,120)" x2="-5" y2="0" style="fill: none; stroke: #888; stroke-width: 1; opacity: 1;"></line><line transform="translate(0,80)" x2="-5" y2="0" style="fill: none; stroke: #888; stroke-width: 1; opacity: 1;"></line><line transform="translate(0,40)" x2="-5" y2="0" style="fill: none; stroke: #888; stroke-width: 1; opacity: 1;"></line><line transform="translate(0,0)" x2="-5" y2="0" style="fill: none; stroke: #888; stroke-width: 1; opacity: 1;"></line></g><g class="mark-text role-axis-label" style="pointer-events: none;"><text text-anchor="end" transform="translate(-7,203)" style="font-family: sans-serif; font-size: 10px; fill: #000; opacity: 1;">0%</text><text text-anchor="end" transform="translate(-7,163)" style="font-family: sans-serif; font-size: 10px; fill: #000; opacity: 1;">20%</text><text text-anchor="end" transform="translate(-7,123)" style="font-family: sans-serif; font-size: 10px; fill: #000; opacity: 1;">40%</text><text text-anchor="end" transform="translate(-7,83)" style="font-family: sans-serif; font-size: 10px; fill: #000; opacity: 1;">60%</text><text text-anchor="end" transform="translate(-7,43)" style="font-family: sans-serif; font-size: 10px; fill: #000; opacity: 1;">80%</text><text text-anchor="end" transform="translate(-7,3)" style="font-family: sans-serif; font-size: 10px; fill: #000; opacity: 1;">100%</text></g><g class="mark-rule role-axis-domain" style="pointer-events: none;"><line transform="translate(0,200)" x2="0" y2="-200" style="fill: none; stroke: #888; stroke-width: 1; opacity: 1;"></line></g></g></g></g></g></g></g></g></svg>