<svg class="marks" width="395" height="234" viewBox="0 0 395 234" version="1.1" xmlns="http://www.w3.org/2000/svg" xmlns:xlink="http://www.w3.org/1999/xlink"><g transform="translate(39,11)"><g class="mark-group role-frame root"><g transform="translate(0,0)"><path class="background" d="M0.5,0.5h350v200h-350Z" style="fill: none; stroke: #ddd;"></path><g><g class="mark-group role-axis"><g transform="translate(0.5,200.5)"><path class="background" d="M0,0h0v0h0Z" style="pointer-events: none; fill: none;"></path><g><g class="mark-rule role-axis-grid" style="pointer-events: none;"><line transform="translate(0,-200)" x2="0" y2="200" style="fill: none; stroke: #ddd; stroke-width: 1; opacity: 1;"></line><line transform="translate(43,-200)" x2="0" y2="200" style="fill: none; stroke: #ddd; stroke-width: 1; opacity: 1;"></line><line transform="translate(87,-200)" x2="0" y2="200" style="fill: none; stroke: #ddd; stroke-width: 1; opacity: 1;"></line><line transform="translate(131,-200)" x2="0" y2="200" style="fill: none; stroke: #ddd; stroke-width: 1; opacity: 1;"></line><line transform="translate(175,-200)" x2="0" y2="200" style="fill: none; stroke: #ddd; stroke-width: 1; opacity: 1;"></line><line transform="translate(218,-200)" x2="0" y2="200" style="fill: none; stroke: #ddd; stroke-width: 1; opacity: 1;"></line><line transform="translate(262,-200)" x2="0" y2="200" style="fill: none; stroke: #ddd; stroke-width: 1; opacity: 1;"></line><line transform="translate(306,-200)" x2="0" y2="200" style="fill: none; stroke: #ddd; stroke-width: 1; opacity: 1;"></line></g></g></g></g><g class="mark-group role-axis"><g transform="translate(0.5,0.5)"><path class="background" d="M0,0h0v0h0Z" style="pointer-events: none; fill: none;"></path><g><g class="mark-rule role-axis-grid" style="pointer-events: none;"><line transform="translate(0,200)" x2="350" y2="0" style="fill: none; stroke: #ddd; stroke-width: 1; opacity: 1;"></line><line transform="translate(0,160)" x2="350" y2="0" style="fill: none; stroke: #ddd; stroke-width: 1; opacity: 1;"></line><line transform="translate(0,120)" x2="350" y2="0" style="fill: none; stroke: #ddd; stroke-width: 1; opacity: 1;"></line><line transform="translate(0,80)" x2="350" y2="0" style="fill: none; stroke: #ddd; stroke-width: 1; opacity: 1;"></line><line transform="translate(0,40)" x2="350" y2="0" style="fill: none; stroke: #ddd; stroke-width: 1; opacity: 1;"></line><line transform="translate(0,0)" x2="350" y2="0" style="fill: none; stroke: #ddd; stroke-width: 1; opacity: 1;"></line></g></g></g></g><g class="mark-line role-mark layer_0_marks"><path d="M221.79069501600364,39.91999999999999L218.42992684042065,39.94L215.0691586648377,40.08000000000001L211.7083904892547,40.099999999999994L208.34762231367168,40.18000000000001L205.0068587105624,40.120000000000005L198.28532235939645,40.04000000000002L191.56378600823044,40.139999999999986L184.84224965706449,40.31999999999999L178.1207133058985,40.139999999999986L171.3991769547325,40.01999999999998L164.67764060356652,40.06L157.95610425240054,40.379999999999995L151.23456790123456,40.24000000000001L144.4930269775949,40.599999999999994L137.77149062642889,41.120000000000005L131.0499542752629,41.56L124.32841792409694,41.78L120.96764974851395,41.78L114.24611339734797,41.79999999999998L107.52457704618199,41.84L100.80304069501601,34.73999999999998L94.08150434385003,42L87.35996799268403,42.099999999999994L80.63843164151805,42.639999999999986L74.39700502972107,42.75999999999999L67.19535893918611,42.920000000000016L60.47382258802012,43.19999999999999L53.75228623685414,43.400000000000006L47.03074988568815,43.639999999999986L40.30921353452218,43.78L33.58767718335619,44.06L26.886145404663925,44.46000000000001L20.164609053497944,44.860000000000014L13.443072702331962,45.53999999999999L6.721536351165981,45.379999999999995L0,45.579999999999984" style="fill: none; stroke: #aec7e8; stroke-width: 2;"></path></g><g class="mark-line role-mark layer_1_marks"><path d="M221.79069501600364,30.680000000000007L218.42992684042065,30.400000000000006L215.0691586648377,30.5L211.7083904892547,30.560000000000002L208.34762231367168,30.840000000000003L205.0068587105624,30.47999999999999L198.28532235939645,30.120000000000005L191.56378600823044,30.099999999999994L184.84224965706449,30.519999999999982L178.1207133058985,30.400000000000006L171.3991769547325,30.379999999999995L164.67764060356652,30.879999999999995L157.95610425240054,30.47999999999999L151.23456790123456,30.80000000000001L144.4930269775949,30.939999999999998L137.77149062642889,31.24000000000001L131.0499542752629,31.599999999999994L124.32841792409694,31.919999999999987L120.96764974851395,31.420000000000016L114.24611339734797,31.580000000000013L107.52457704618199,31.400000000000006L100.80304069501601,23.019999999999982L94.08150434385003,31.73999999999998L87.35996799268403,31.939999999999998L80.63843164151805,32.28L74.39700502972107,32.18000000000001L67.19535893918611,32.29999999999998L60.47382258802012,32.900000000000006L53.75228623685414,33.44L47.03074988568815,33.640000000000015L40.30921353452218,34.06L33.58767718335619,34.380000000000024L26.886145404663925,34.359999999999985L20.164609053497944,35.28L13.443072702331962,37.69999999999999L6.721536351165981,36.94L0,37.640000000000015" style="fill: none; stroke: #ffbb78; stroke-width: 2;"></path></g><g class="mark-line role-mark layer_2_marks"><path d="M221.79069501600364,44.44L218.42992684042065,42.860000000000014L215.0691586648377,43.75999999999999L211.7083904892547,44.44L208.34762231367168,44.639999999999986L205.0068587105624,45.53999999999999L198.28532235939645,44.140000000000015L191.56378600823044,45.03999999999999L184.84224965706449,47.78L178.1207133058985,47.120000000000005L171.3991769547325,46.639999999999986L164.67764060356652,49.32000000000002L157.95610425240054,50.22L151.23456790123456,51.78L144.4930269775949,50.66L137.77149062642889,49.78L131.0499542752629,51.360000000000014L124.32841792409694,50.89999999999998L120.96764974851395,50.22L114.24611339734797,50.45999999999998L107.52457704618199,51.620000000000005L100.80304069501601,32.80000000000001L94.08150434385003,51.859999999999985L87.35996799268403,51.16L80.63843164151805,51.16L74.39700502972107,48.58000000000001L67.19535893918611,50.96000000000001L60.47382258802012,50.96000000000001L53.75228623685414,50.24000000000001L47.03074988568815,51.69999999999999L40.30921353452218,50L33.58767718335619,49.75999999999999L26.886145404663925,48.47999999999999L20.164609053497944,49.24000000000001L13.443072702331962,51L6.721536351165981,52.29999999999998L0,54.46000000000001" style="fill: none; stroke: #9467bd; stroke-width: 4;"></path></g><g class="mark-rule role-mark layer_3_marks"><line transform="translate(0,40)" x2="350" y2="0" style="fill: none; stroke: #2ca02c; stroke-width: 1; stroke-dasharray: 4,2;"></line></g><g class="mark-text role-mark layer_4_marks"><text text-anchor="end" transform="translate(350,197)" style="font-family: sans-serif; font-size: 16px; fill: #2ca02c;">80.00%</text></g><g class="mark-text role-mark layer_5_marks"><text text-anchor="end" transform="translate(350,15)" style="font-family: sans-serif; font-size: 16px; fill: #9467bd;">77.78%</text></g><g class="mark-group role-axis"><g transform="translate(0.5,200.5)"><path class="background" d="M0,0h0v0h0Z" style="pointer-events: none; fill: none;"></path><g><g class="mark-rule role-axis-tick" style="pointer-events: none;"><line transform="translate(0,0)" x2="0" y2="5" style="fill: none; stroke: #888; stroke-width: 1; opacity: 1;"></line><line transform="translate(43,0)" x2="0" y2="5" style="fill: none; stroke: #888; stroke-width: 1; opacity: 1;"></line><line transform="translate(87,0)" x2="0" y2="5" style="fill: none; stroke: #888; stroke-width: 1; opacity: 1;"></line><line transform="translate(131,0)" x2="0" y2="5" style="fill: none; stroke: #888; stroke-width: 1; opacity: 1;"></line><line transform="translate(175,0)" x2="0" y2="5" style="fill: none; stroke: #888; stroke-width: 1; opacity: 1;"></line><line transform="translate(218,0)" x2="0" y2="5" style="fill: none; stroke: #888; stroke-width: 1; opacity: 1;"></line><line transform="translate(262,0)" x2="0" y2="5" style="fill: none; stroke: #888; stroke-width: 1; opacity: 1;"></line><line transform="translate(306,0)" x2="0" y2="5" style="fill: none; stroke: #888; stroke-width: 1; opacity: 1;"></line></g><g class="mark-text role-axis-label" style="pointer-events: none;"><text text-anchor="start" transform="translate(0,15)" style="font-family: sans-serif; font-size: 10px; fill: #000; opacity: 1;">2018</text><text text-anchor="middle" transform="translate(43.18987197073617,15)" style="font-family: sans-serif; font-size: 10px; fill: #000; opacity: 1;">April</text><text text-anchor="middle" transform="translate(86.87985825331505,15)" style="font-family: sans-serif; font-size: 10px; fill: #000; opacity: 1;">July</text><text text-anchor="middle" transform="translate(131.0499542752629,15)" style="font-family: sans-serif; font-size: 10px; fill: #000; opacity: 1;">October</text><text text-anchor="middle" transform="translate(175.24005486968449,15)" style="font-family: sans-serif; font-size: 10px; fill: #000; opacity: 1;">2019</text><text text-anchor="middle" transform="translate(218.42992684042065,15)" style="font-family: sans-serif; font-size: 10px; fill: #000; opacity: 1;">April</text><text text-anchor="middle" transform="translate(262.11991312299955,15)" style="font-family: sans-serif; font-size: 10px; fill: #000; opacity: 1;">July</text><text text-anchor="middle" transform="translate(306.2900091449474,15)" style="font-family: sans-serif; font-size: 10px; fill: #000; opacity: 1;">October</text></g><g class="mark-rule role-axis-domain" style="pointer-events: none;"><line transform="translate(0,0)" x2="350" y2="0" style="fill: none; stroke: #888; stroke-width: 1; opacity: 1;"></line></g></g></g></g><g class="mark-group role-axis"><g transform="translate(0.5,0.5)"><path class="background" d="M0,0h0v0h0Z" style="pointer-events: none; fill: none;"></path><g><g class="mark-rule role-axis-tick" style="pointer-events: none;"><line transform="translate(0,200)" x2="-5" y2="0" style="fill: none; stroke: #888; stroke-width: 1; opacity: 1;"></line><line transform="translate(0,160)" x2="-5" y2="0" style="fill: none; stroke: #888; stroke-width: 1; opacity: 1;"></line><line transform="translate(0,120)" x2="-5" y2="0" style="fill: none; stroke: #888; stroke-width: 1; opacity: 1;"></line><line transform="translate(0,80)" x2="-5" y2="0" style="fill: none; stroke: #888; stroke-width: 1; opacity: 1;"></line><line transform="translate(0,40)" x2="-5" y2="0" style="fill: none; stroke: #888; stroke-width: 1; opacity: 1;"></line><line transform="translate(0,0)" x2="-5" y2="0" style="fill: none; stroke: #888; stroke-width: 1; opacity: 1;"></line></g><g class="mark-text role-axis-label" style="pointer-events: none;"><text text-anchor="end" transform="translate(-7,203)" style="font-family: sans-serif; font-size: 10px; fill: #000; opacity: 1;">0%</text><text text-anchor="end" transform="translate(-7,163)" style="font-family: sans-serif; font-size: 10px; fill: #000; opacity: 1;">20%</text><text text-anchor="end" transform="translate(-7,123)" style="font-family: sans-serif; font-size: 10px; fill: #000; opacity: 1;">40%</text><text text-anchor="end" transform="translate(-7,83)" style="font-family: sans-serif; font-size: 10px; fill: #000; opacity: 1;">60%</text><text text-anchor="end" transform="translate(-7,43)" style="font-family: sans-serif; font-size: 10px; fill: #000; opacity: 1;">80%</text><text text-anchor="end" transform="translate(-7,3)" style="font-family: sans-serif; font-size: 10px; fill: #000; opacity: 1;">100%</text></g><g class="mark-rule role-axis-domain" style="pointer-events: none;"><line transform="translate(0,200)" x2="0" y2="-200" style="fill: none; stroke: #888; stroke-width: 1; opacity: 1;"></line></g></g></g></g></g></g></g></g></svg>