<svg class="marks" width="395" height="234" viewBox="0 0 395 234" version="1.1" xmlns="http://www.w3.org/2000/svg" xmlns:xlink="http://www.w3.org/1999/xlink"><g transform="translate(39,11)"><g class="mark-group role-frame root"><g transform="translate(0,0)"><path class="background" d="M0.5,0.5h350v200h-350Z" style="fill: none; stroke: #ddd;"></path><g><g class="mark-group role-axis"><g transform="translate(0.5,200.5)"><path class="background" d="M0,0h0v0h0Z" style="pointer-events: none; fill: none;"></path><g><g class="mark-rule role-axis-grid" style="pointer-events: none;"><line transform="translate(0,-200)" x2="0" y2="200" style="fill: none; stroke: #ddd; stroke-width: 1; opacity: 1;"></line><line transform="translate(43,-200)" x2="0" y2="200" style="fill: none; stroke: #ddd; stroke-width: 1; opacity: 1;"></line><line transform="translate(87,-200)" x2="0" y2="200" style="fill: none; stroke: #ddd; stroke-width: 1; opacity: 1;"></line><line transform="translate(131,-200)" x2="0" y2="200" style="fill: none; stroke: #ddd; stroke-width: 1; opacity: 1;"></line><line transform="translate(175,-200)" x2="0" y2="200" style="fill: none; stroke: #ddd; stroke-width: 1; opacity: 1;"></line><line transform="translate(218,-200)" x2="0" y2="200" style="fill: none; stroke: #ddd; stroke-width: 1; opacity: 1;"></line><line transform="translate(262,-200)" x2="0" y2="200" style="fill: none; stroke: #ddd; stroke-width: 1; opacity: 1;"></line><line transform="translate(306,-200)" x2="0" y2="200" style="fill: none; stroke: #ddd; stroke-width: 1; opacity: 1;"></line></g></g></g></g><g class="mark-group role-axis"><g transform="translate(0.5,0.5)"><path class="background" d="M0,0h0v0h0Z" style="pointer-events: none; fill: none;"></path><g><g class="mark-rule role-axis-grid" style="pointer-events: none;"><line transform="translate(0,200)" x2="350" y2="0" style="fill: none; stroke: #ddd; stroke-width: 1; opacity: 1;"></line><line transform="translate(0,160)" x2="350" y2="0" style="fill: none; stroke: #ddd; stroke-width: 1; opacity: 1;"></line><line transform="translate(0,120)" x2="350" y2="0" style="fill: none; stroke: #ddd; stroke-width: 1; opacity: 1;"></line><line transform="translate(0,80)" x2="350" y2="0" style="fill: none; stroke: #ddd; stroke-width: 1; opacity: 1;"></line><line transform="translate(0,40)" x2="350" y2="0" style="fill: none; stroke: #ddd; stroke-width: 1; opacity: 1;"></line><line transform="translate(0,0)" x2="350" y2="0" style="fill: none; stroke: #ddd; stroke-width: 1; opacity: 1;"></line></g></g></g></g><g class="mark-line role-mark layer_0_marks"><path d="M218.42992684042065,97.25999999999999L215.0691586648377,98.25999999999999L211.7083904892547,98.46L208.34762231367168,98.58L205.0068587105624,99.10000000000001L198.28532235939645,100.06L191.56378600823044,101.06L184.84224965706449,102.32L178.1207133058985,103.06L171.3991769547325,103.62L164.67764060356652,104.34L157.95610425240054,105.04L151.23456790123456,105.97999999999999L144.4930269775949,107.34L137.77149062642889,113.56L131.0499542752629,117.12L124.32841792409694,118.12L120.96764974851395,118.66L114.24611339734797,119.44L107.52457704618199,120.46L100.80304069501601,121.92L94.08150434385003,124.48L87.35996799268403,125.96000000000001L80.63843164151805,129.7L74.39700502972107,133.02L67.19535893918611,134.94L60.47382258802012,137.51999999999998L53.75228623685414,139.72L47.03074988568815,142.06L40.30921353452218,144.36L33.58767718335619,146.02L26.886145404663925,148.82L20.164609053497944,151.16L13.443072702331962,156.14L6.721536351165981,155.6L0,156.16" style="fill: none; stroke: #aec7e8; stroke-width: 2;"></path></g><g class="mark-line role-mark layer_1_marks"><path d="M218.42992684042065,93.94L215.0691586648377,96.32000000000001L211.7083904892547,96.03999999999999L208.34762231367168,95.76L205.0068587105624,96.56L198.28532235939645,97.61999999999999L191.56378600823044,98.42L184.84224965706449,103.12L178.1207133058985,107.54L171.3991769547325,107.86L164.67764060356652,109.72L157.95610425240054,113.02L151.23456790123456,116.5L144.4930269775949,117.74L137.77149062642889,123.52L131.0499542752629,129.88L124.32841792409694,133.34L120.96764974851395,135.51999999999998L114.24611339734797,137.82L107.52457704618199,139.85999999999999L100.80304069501601,141.32L94.08150434385003,142.66L87.35996799268403,144.68L80.63843164151805,146.98L74.39700502972107,156.14L67.19535893918611,161.44L60.47382258802012,166.02L53.75228623685414,169.2L47.03074988568815,173.9L40.30921353452218,176.48L33.58767718335619,178.32L26.886145404663925,180.74L20.164609053497944,181.18L13.443072702331962,183.92000000000002L6.721536351165981,186.8L0,187.84" style="fill: none; stroke: #ffbb78; stroke-width: 2;"></path></g><g class="mark-line role-mark layer_2_marks"><path d="M218.42992684042065,107.89999999999999L215.0691586648377,113.16000000000001L211.7083904892547,113.16000000000001L208.34762231367168,112L205.0068587105624,117.34L198.28532235939645,118.42L191.56378600823044,123.68L184.84224965706449,122.08L178.1207133058985,117.94L171.3991769547325,117.94L164.67764060356652,121.52L157.95610425240054,128.4L151.23456790123456,133.34L144.4930269775949,132.54000000000002L137.77149062642889,149.4L131.0499542752629,157.3L124.32841792409694,164.04L120.96764974851395,168.54L114.24611339734797,173.04L107.52457704618199,173.04L100.80304069501601,173.34L94.08150434385003,177.28L87.35996799268403,177.52L80.63843164151805,177.28L74.39700502972107,188.76L67.19535893918611,188.88L60.47382258802012,191.2L53.75228623685414,191.12L47.03074988568815,195.56L40.30921353452218,195.56L33.58767718335619,195.5L26.886145404663925,197.8L20.164609053497944,197.8L13.443072702331962,197.8L6.721536351165981,197.82L0,197.78" style="fill: none; stroke: #9467bd; stroke-width: 4;"></path></g><g class="mark-rule role-mark layer_3_marks"><line transform="translate(0,40)" x2="350" y2="0" style="fill: none; stroke: #2ca02c; stroke-width: 1; stroke-dasharray: 4,2;"></line></g><g class="mark-text role-mark layer_4_marks"><text text-anchor="end" transform="translate(350,197)" style="font-family: sans-serif; font-size: 16px; fill: #2ca02c;">80.00%</text></g><g class="mark-text role-mark layer_5_marks"><text text-anchor="end" transform="translate(350,15)" style="font-family: sans-serif; font-size: 16px; fill: #9467bd;">46.05%</text></g><g class="mark-group role-axis"><g transform="translate(0.5,200.5)"><path class="background" d="M0,0h0v0h0Z" style="pointer-events: none; fill: none;"></path><g><g class="mark-rule role-axis-tick" style="pointer-events: none;"><line transform="translate(0,0)" x2="0" y2="5" style="fill: none; stroke: #888; stroke-width: 1; opacity: 1;"></line><line transform="translate(43,0)" x2="0" y2="5" style="fill: none; stroke: #888; stroke-width: 1; opacity: 1;"></line><line transform="translate(87,0)" x2="0" y2="5" style="fill: none; stroke: #888; stroke-width: 1; opacity: 1;"></line><line transform="translate(131,0)" x2="0" y2="5" style="fill: none; stroke: #888; stroke-width: 1; opacity: 1;"></line><line transform="translate(175,0)" x2="0" y2="5" style="fill: none; stroke: #888; stroke-width: 1; opacity: 1;"></line><line transform="translate(218,0)" x2="0" y2="5" style="fill: none; stroke: #888; stroke-width: 1; opacity: 1;"></line><line transform="translate(262,0)" x2="0" y2="5" style="fill: none; stroke: #888; stroke-width: 1; opacity: 1;"></line><line transform="translate(306,0)" x2="0" y2="5" style="fill: none; stroke: #888; stroke-width: 1; opacity: 1;"></line></g><g class="mark-text role-axis-label" style="pointer-events: none;"><text text-anchor="start" transform="translate(0,15)" style="font-family: sans-serif; font-size: 10px; fill: #000; opacity: 1;">2018</text><text text-anchor="middle" transform="translate(43.18987197073617,15)" style="font-family: sans-serif; font-size: 10px; fill: #000; opacity: 1;">April</text><text text-anchor="middle" transform="translate(86.87985825331505,15)" style="font-family: sans-serif; font-size: 10px; fill: #000; opacity: 1;">July</text><text text-anchor="middle" transform="translate(131.0499542752629,15)" style="font-family: sans-serif; font-size: 10px; fill: #000; opacity: 1;">October</text><text text-anchor="middle" transform="translate(175.24005486968449,15)" style="font-family: sans-serif; font-size: 10px; fill: #000; opacity: 1;">2019</text><text text-anchor="middle" transform="translate(218.42992684042065,15)" style="font-family: sans-serif; font-size: 10px; fill: #000; opacity: 1;">April</text><text text-anchor="middle" transform="translate(262.11991312299955,15)" style="font-family: sans-serif; font-size: 10px; fill: #000; opacity: 1;">July</text><text text-anchor="middle" transform="translate(306.2900091449474,15)" style="font-family: sans-serif; font-size: 10px; fill: #000; opacity: 1;">October</text></g><g class="mark-rule role-axis-domain" style="pointer-events: none;"><line transform="translate(0,0)" x2="350" y2="0" style="fill: none; stroke: #888; stroke-width: 1; opacity: 1;"></line></g></g></g></g><g class="mark-group role-axis"><g transform="translate(0.5,0.5)"><path class="background" d="M0,0h0v0h0Z" style="pointer-events: none; fill: none;"></path><g><g class="mark-rule role-axis-tick" style="pointer-events: none;"><line transform="translate(0,200)" x2="-5" y2="0" style="fill: none; stroke: #888; stroke-width: 1; opacity: 1;"></line><line transform="translate(0,160)" x2="-5" y2="0" style="fill: none; stroke: #888; stroke-width: 1; opacity: 1;"></line><line transform="translate(0,120)" x2="-5" y2="0" style="fill: none; stroke: #888; stroke-width: 1; opacity: 1;"></line><line transform="translate(0,80)" x2="-5" y2="0" style="fill: none; stroke: #888; stroke-width: 1; opacity: 1;"></line><line transform="translate(0,40)" x2="-5" y2="0" style="fill: none; stroke: #888; stroke-width: 1; opacity: 1;"></line><line transform="translate(0,0)" x2="-5" y2="0" style="fill: none; stroke: #888; stroke-width: 1; opacity: 1;"></line></g><g class="mark-text role-axis-label" style="pointer-events: none;"><text text-anchor="end" transform="translate(-7,203)" style="font-family: sans-serif; font-size: 10px; fill: #000; opacity: 1;">0%</text><text text-anchor="end" transform="translate(-7,163)" style="font-family: sans-serif; font-size: 10px; fill: #000; opacity: 1;">20%</text><text text-anchor="end" transform="translate(-7,123)" style="font-family: sans-serif; font-size: 10px; fill: #000; opacity: 1;">40%</text><text text-anchor="end" transform="translate(-7,83)" style="font-family: sans-serif; font-size: 10px; fill: #000; opacity: 1;">60%</text><text text-anchor="end" transform="translate(-7,43)" style="font-family: sans-serif; font-size: 10px; fill: #000; opacity: 1;">80%</text><text text-anchor="end" transform="translate(-7,3)" style="font-family: sans-serif; font-size: 10px; fill: #000; opacity: 1;">100%</text></g><g class="mark-rule role-axis-domain" style="pointer-events: none;"><line transform="translate(0,200)" x2="0" y2="-200" style="fill: none; stroke: #888; stroke-width: 1; opacity: 1;"></line></g></g></g></g></g></g></g></g></svg>