<svg class="marks" width="397" height="234" viewBox="0 0 397 234" version="1.1" xmlns="http://www.w3.org/2000/svg" xmlns:xlink="http://www.w3.org/1999/xlink"><g transform="translate(41,11)"><g class="mark-group role-frame root"><g transform="translate(0,0)"><path class="background" d="M0.5,0.5h350v200h-350Z" style="fill: none; stroke: #ddd;"></path><g><g class="mark-group role-axis"><g transform="translate(0.5,200.5)"><path class="background" d="M0,0h0v0h0Z" style="pointer-events: none; fill: none;"></path><g><g class="mark-rule role-axis-grid" style="pointer-events: none;"><line transform="translate(0,-200)" x2="0" y2="200" style="fill: none; stroke: #ddd; stroke-width: 1; opacity: 1;"></line><line transform="translate(43,-200)" x2="0" y2="200" style="fill: none; stroke: #ddd; stroke-width: 1; opacity: 1;"></line><line transform="translate(87,-200)" x2="0" y2="200" style="fill: none; stroke: #ddd; stroke-width: 1; opacity: 1;"></line><line transform="translate(131,-200)" x2="0" y2="200" style="fill: none; stroke: #ddd; stroke-width: 1; opacity: 1;"></line><line transform="translate(175,-200)" x2="0" y2="200" style="fill: none; stroke: #ddd; stroke-width: 1; opacity: 1;"></line><line transform="translate(218,-200)" x2="0" y2="200" style="fill: none; stroke: #ddd; stroke-width: 1; opacity: 1;"></line><line transform="translate(262,-200)" x2="0" y2="200" style="fill: none; stroke: #ddd; stroke-width: 1; opacity: 1;"></line><line transform="translate(306,-200)" x2="0" y2="200" style="fill: none; stroke: #ddd; stroke-width: 1; opacity: 1;"></line></g></g></g></g><g class="mark-group role-axis"><g transform="translate(0.5,0.5)"><path class="background" d="M0,0h0v0h0Z" style="pointer-events: none; fill: none;"></path><g><g class="mark-rule role-axis-grid" style="pointer-events: none;"><line transform="translate(0,200)" x2="350" y2="0" style="fill: none; stroke: #ddd; stroke-width: 1; opacity: 1;"></line><line transform="translate(0,160)" x2="350" y2="0" style="fill: none; stroke: #ddd; stroke-width: 1; opacity: 1;"></line><line transform="translate(0,120)" x2="350" y2="0" style="fill: none; stroke: #ddd; stroke-width: 1; opacity: 1;"></line><line transform="translate(0,80)" x2="350" y2="0" style="fill: none; stroke: #ddd; stroke-width: 1; opacity: 1;"></line><line transform="translate(0,40)" x2="350" y2="0" style="fill: none; stroke: #ddd; stroke-width: 1; opacity: 1;"></line><line transform="translate(0,0)" x2="350" y2="0" style="fill: none; stroke: #ddd; stroke-width: 1; opacity: 1;"></line></g></g></g></g><g class="mark-line role-mark layer_0_marks"><path d="M228.51223136716965,45.53999999999999L225.15146319158666,45.52000000000001L221.79069501600364,46.120000000000005L218.42992684042065,46.01999999999998L215.0691586648377,47.120000000000005L211.7083904892547,47.44L208.34762231367168,47.97999999999999L205.0068587105624,47.28L198.28532235939645,48.01999999999998L191.56378600823044,48.84L184.84224965706449,49.379999999999995L178.1207133058985,49.67999999999998L171.3991769547325,49.54000000000002L164.67764060356652,49.5L157.95610425240054,49.25999999999999L151.23456790123456,48.859999999999985L144.4930269775949,49.54000000000002L137.77149062642889,49.75999999999999L131.0499542752629,50.03999999999999L124.32841792409694,50.34L120.96764974851395,50.22L114.24611339734797,49.02000000000001L107.52457704618199,49.66L100.80304069501601,49.47999999999999L94.08150434385003,48.78L87.35996799268403,48.80000000000001L80.63843164151805,49L74.39700502972107,49.140000000000015L67.19535893918611,49.30000000000001L60.47382258802012,47.94L53.75228623685414,48.879999999999995L47.03074988568815,49L40.30921353452218,47.70000000000002L33.58767718335619,47.67999999999998L26.886145404663925,48.22L20.164609053497944,47.400000000000006L13.443072702331962,48.140000000000015L6.721536351165981,47.06L0,46.5" style="fill: none; stroke: #aec7e8; stroke-width: 2;"></path></g><g class="mark-line role-mark layer_1_marks"><path d="M228.51223136716965,51.84L225.15146319158666,52.74000000000001L221.79069501600364,54.379999999999995L218.42992684042065,55.28L215.0691586648377,57L211.7083904892547,57.34L208.34762231367168,58.359999999999985L205.0068587105624,57.91999999999999L198.28532235939645,59.73999999999998L191.56378600823044,62.91999999999999L184.84224965706449,64.52000000000001L178.1207133058985,66.19999999999999L171.3991769547325,64.74000000000001L164.67764060356652,65.13999999999999L157.95610425240054,65.6L151.23456790123456,65.13999999999999L144.4930269775949,65.13999999999999L137.77149062642889,63.5L131.0499542752629,61.84L124.32841792409694,60.72L120.96764974851395,58.359999999999985L114.24611339734797,56.25999999999999L107.52457704618199,56.03999999999999L100.80304069501601,54.78L94.08150434385003,52.34L87.35996799268403,51.5L80.63843164151805,51.66L74.39700502972107,51.099999999999994L67.19535893918611,49.80000000000001L60.47382258802012,47.74000000000001L53.75228623685414,50L47.03074988568815,48.74000000000001L40.30921353452218,47.120000000000005L33.58767718335619,47.80000000000001L26.886145404663925,45.16L20.164609053497944,44.23999999999998L13.443072702331962,44.56L6.721536351165981,44.03999999999999L0,42.96000000000001" style="fill: none; stroke: #ffbb78; stroke-width: 2;"></path></g><g class="mark-line role-mark layer_2_marks"><path d="M228.51223136716965,4.159999999999997L225.15146319158666,8.340000000000003L221.79069501600364,8.340000000000003L218.42992684042065,8.340000000000003L215.0691586648377,8.340000000000003L211.7083904892547,8.340000000000003L208.34762231367168,8.340000000000003L205.0068587105624,8.340000000000003L198.28532235939645,16.659999999999997L191.56378600823044,25L184.84224965706449,25L178.1207133058985,21.28L171.3991769547325,21.28L164.67764060356652,21.28L157.95610425240054,21.28L151.23456790123456,25.54000000000002L144.4930269775949,25.54000000000002L137.77149062642889,25.54000000000002L131.0499542752629,25.54000000000002L124.32841792409694,29.159999999999997L120.96764974851395,33.34L114.24611339734797,29.159999999999997L107.52457704618199,33.34L100.80304069501601,33.34L94.08150434385003,25.54000000000002L87.35996799268403,25.54000000000002L80.63843164151805,29.78L74.39700502972107,29.78L67.19535893918611,34.03999999999999L60.47382258802012,34.03999999999999L53.75228623685414,30.439999999999998L47.03074988568815,30.439999999999998L40.30921353452218,21.74000000000001L33.58767718335619,21.74000000000001L26.886145404663925,26.079999999999984L20.164609053497944,26.659999999999997L13.443072702331962,30.439999999999998L6.721536351165981,34.78L0,31.120000000000005" style="fill: none; stroke: #9467bd; stroke-width: 4;"></path></g><g class="mark-rule role-mark layer_3_marks"><line transform="translate(0,44)" x2="350" y2="0" style="fill: none; stroke: #2ca02c; stroke-width: 1; stroke-dasharray: 4,2;"></line></g><g class="mark-text role-mark layer_4_marks"><text text-anchor="end" transform="translate(350,197)" style="font-family: sans-serif; font-size: 16px; fill: #2ca02c;">78.00%</text></g><g class="mark-text role-mark layer_5_marks"><text text-anchor="end" transform="translate(350,15)" style="font-family: sans-serif; font-size: 16px; fill: #9467bd;">97.92%</text></g><g class="mark-group role-axis"><g transform="translate(0.5,200.5)"><path class="background" d="M0,0h0v0h0Z" style="pointer-events: none; fill: none;"></path><g><g class="mark-rule role-axis-tick" style="pointer-events: none;"><line transform="translate(0,0)" x2="0" y2="5" style="fill: none; stroke: #888; stroke-width: 1; opacity: 1;"></line><line transform="translate(43,0)" x2="0" y2="5" style="fill: none; stroke: #888; stroke-width: 1; opacity: 1;"></line><line transform="translate(87,0)" x2="0" y2="5" style="fill: none; stroke: #888; stroke-width: 1; opacity: 1;"></line><line transform="translate(131,0)" x2="0" y2="5" style="fill: none; stroke: #888; stroke-width: 1; opacity: 1;"></line><line transform="translate(175,0)" x2="0" y2="5" style="fill: none; stroke: #888; stroke-width: 1; opacity: 1;"></line><line transform="translate(218,0)" x2="0" y2="5" style="fill: none; stroke: #888; stroke-width: 1; opacity: 1;"></line><line transform="translate(262,0)" x2="0" y2="5" style="fill: none; stroke: #888; stroke-width: 1; opacity: 1;"></line><line transform="translate(306,0)" x2="0" y2="5" style="fill: none; stroke: #888; stroke-width: 1; opacity: 1;"></line></g><g class="mark-text role-axis-label" style="pointer-events: none;"><text text-anchor="start" transform="translate(0,15)" style="font-family: sans-serif; font-size: 10px; fill: #000; opacity: 1;">2018</text><text text-anchor="middle" transform="translate(43.18987197073617,15)" style="font-family: sans-serif; font-size: 10px; fill: #000; opacity: 1;">April</text><text text-anchor="middle" transform="translate(86.87985825331505,15)" style="font-family: sans-serif; font-size: 10px; fill: #000; opacity: 1;">July</text><text text-anchor="middle" transform="translate(131.0499542752629,15)" style="font-family: sans-serif; font-size: 10px; fill: #000; opacity: 1;">October</text><text text-anchor="middle" transform="translate(175.24005486968449,15)" style="font-family: sans-serif; font-size: 10px; fill: #000; opacity: 1;">2019</text><text text-anchor="middle" transform="translate(218.42992684042065,15)" style="font-family: sans-serif; font-size: 10px; fill: #000; opacity: 1;">April</text><text text-anchor="middle" transform="translate(262.11991312299955,15)" style="font-family: sans-serif; font-size: 10px; fill: #000; opacity: 1;">July</text><text text-anchor="middle" transform="translate(306.2900091449474,15)" style="font-family: sans-serif; font-size: 10px; fill: #000; opacity: 1;">October</text></g><g class="mark-rule role-axis-domain" style="pointer-events: none;"><line transform="translate(0,0)" x2="350" y2="0" style="fill: none; stroke: #888; stroke-width: 1; opacity: 1;"></line></g></g></g></g><g class="mark-group role-axis"><g transform="translate(0.5,0.5)"><path class="background" d="M0,0h0v0h0Z" style="pointer-events: none; fill: none;"></path><g><g class="mark-rule role-axis-tick" style="pointer-events: none;"><line transform="translate(0,200)" x2="-5" y2="0" style="fill: none; stroke: #888; stroke-width: 1; opacity: 1;"></line><line transform="translate(0,160)" x2="-5" y2="0" style="fill: none; stroke: #888; stroke-width: 1; opacity: 1;"></line><line transform="translate(0,120)" x2="-5" y2="0" style="fill: none; stroke: #888; stroke-width: 1; opacity: 1;"></line><line transform="translate(0,80)" x2="-5" y2="0" style="fill: none; stroke: #888; stroke-width: 1; opacity: 1;"></line><line transform="translate(0,40)" x2="-5" y2="0" style="fill: none; stroke: #888; stroke-width: 1; opacity: 1;"></line><line transform="translate(0,0)" x2="-5" y2="0" style="fill: none; stroke: #888; stroke-width: 1; opacity: 1;"></line></g><g class="mark-text role-axis-label" style="pointer-events: none;"><text text-anchor="end" transform="translate(-7,203)" style="font-family: sans-serif; font-size: 10px; fill: #000; opacity: 1;">0%</text><text text-anchor="end" transform="translate(-7,163)" style="font-family: sans-serif; font-size: 10px; fill: #000; opacity: 1;">20%</text><text text-anchor="end" transform="translate(-7,123)" style="font-family: sans-serif; font-size: 10px; fill: #000; opacity: 1;">40%</text><text text-anchor="end" transform="translate(-7,83)" style="font-family: sans-serif; font-size: 10px; fill: #000; opacity: 1;">60%</text><text text-anchor="end" transform="translate(-7,43)" style="font-family: sans-serif; font-size: 10px; fill: #000; opacity: 1;">80%</text><text text-anchor="end" transform="translate(-7,3)" style="font-family: sans-serif; font-size: 10px; fill: #000; opacity: 1;">100%</text></g><g class="mark-rule role-axis-domain" style="pointer-events: none;"><line transform="translate(0,200)" x2="0" y2="-200" style="fill: none; stroke: #888; stroke-width: 1; opacity: 1;"></line></g></g></g></g></g></g></g></g></svg>