<svg class="marks" width="395" height="234" viewBox="0 0 395 234" version="1.1" xmlns="http://www.w3.org/2000/svg" xmlns:xlink="http://www.w3.org/1999/xlink"><g transform="translate(39,11)"><g class="mark-group role-frame root"><g transform="translate(0,0)"><path class="background" d="M0.5,0.5h350v200h-350Z" style="fill: none; stroke: #ddd;"></path><g><g class="mark-group role-axis"><g transform="translate(0.5,200.5)"><path class="background" d="M0,0h0v0h0Z" style="pointer-events: none; fill: none;"></path><g><g class="mark-rule role-axis-grid" style="pointer-events: none;"><line transform="translate(0,-200)" x2="0" y2="200" style="fill: none; stroke: #ddd; stroke-width: 1; opacity: 1;"></line><line transform="translate(43,-200)" x2="0" y2="200" style="fill: none; stroke: #ddd; stroke-width: 1; opacity: 1;"></line><line transform="translate(87,-200)" x2="0" y2="200" style="fill: none; stroke: #ddd; stroke-width: 1; opacity: 1;"></line><line transform="translate(131,-200)" x2="0" y2="200" style="fill: none; stroke: #ddd; stroke-width: 1; opacity: 1;"></line><line transform="translate(175,-200)" x2="0" y2="200" style="fill: none; stroke: #ddd; stroke-width: 1; opacity: 1;"></line><line transform="translate(218,-200)" x2="0" y2="200" style="fill: none; stroke: #ddd; stroke-width: 1; opacity: 1;"></line><line transform="translate(262,-200)" x2="0" y2="200" style="fill: none; stroke: #ddd; stroke-width: 1; opacity: 1;"></line><line transform="translate(306,-200)" x2="0" y2="200" style="fill: none; stroke: #ddd; stroke-width: 1; opacity: 1;"></line></g></g></g></g><g class="mark-group role-axis"><g transform="translate(0.5,0.5)"><path class="background" d="M0,0h0v0h0Z" style="pointer-events: none; fill: none;"></path><g><g class="mark-rule role-axis-grid" style="pointer-events: none;"><line transform="translate(0,200)" x2="350" y2="0" style="fill: none; stroke: #ddd; stroke-width: 1; opacity: 1;"></line><line transform="translate(0,160)" x2="350" y2="0" style="fill: none; stroke: #ddd; stroke-width: 1; opacity: 1;"></line><line transform="translate(0,120)" x2="350" y2="0" style="fill: none; stroke: #ddd; stroke-width: 1; opacity: 1;"></line><line transform="translate(0,80)" x2="350" y2="0" style="fill: none; stroke: #ddd; stroke-width: 1; opacity: 1;"></line><line transform="translate(0,40)" x2="350" y2="0" style="fill: none; stroke: #ddd; stroke-width: 1; opacity: 1;"></line><line transform="translate(0,0)" x2="350" y2="0" style="fill: none; stroke: #ddd; stroke-width: 1; opacity: 1;"></line></g></g></g></g><g class="mark-line role-mark layer_0_marks"><path d="M221.79069501600364,60.379999999999995L218.42992684042065,60.22L215.0691586648377,60.25999999999999L211.7083904892547,60.16L208.34762231367168,60.20000000000002L205.0068587105624,60.120000000000005L198.28532235939645,60.139999999999986L191.56378600823044,59.94L184.84224965706449,60.359999999999985L178.1207133058985,60.24000000000001L171.3991769547325,60.03999999999999L164.67764060356652,60.34L157.95610425240054,60.47999999999999L151.23456790123456,60.68000000000001L144.4930269775949,60.84L137.77149062642889,61.400000000000006L131.0499542752629,61.91999999999999L124.32841792409694,62.02000000000001L120.96764974851395,62.139999999999986L114.24611339734797,62.22L107.52457704618199,62.420000000000016L100.80304069501601,62.46000000000001L94.08150434385003,62.78L87.35996799268403,62.97999999999999L80.63843164151805,63.78L74.39700502972107,64.08000000000001L67.19535893918611,64.26000000000002L60.47382258802012,64.48000000000002L53.75228623685414,64.82000000000002L47.03074988568815,65.04000000000002L40.30921353452218,65.56L33.58767718335619,65.82L26.886145404663925,66.08000000000001L20.164609053497944,66.18L13.443072702331962,66.96000000000001L6.721536351165981,66.35999999999999L0,66.12" style="fill: none; stroke: #aec7e8; stroke-width: 2;"></path></g><g class="mark-line role-mark layer_1_marks"><path d="M221.79069501600364,60.02000000000001L218.42992684042065,59.84L215.0691586648377,59.75999999999999L211.7083904892547,60.28L208.34762231367168,60.139999999999986L205.0068587105624,59.640000000000015L198.28532235939645,59.84L191.56378600823044,59.25999999999999L184.84224965706449,59.58000000000001L178.1207133058985,60.22L171.3991769547325,60.20000000000002L164.67764060356652,60.860000000000014L157.95610425240054,60.81999999999999L151.23456790123456,61.099999999999994L144.4930269775949,61.66L137.77149062642889,62.25999999999999L131.0499542752629,62.47999999999999L124.32841792409694,62.900000000000006L120.96764974851395,63.17999999999998L114.24611339734797,63.30000000000001L107.52457704618199,63.79999999999998L100.80304069501601,64.02000000000001L94.08150434385003,63.860000000000014L87.35996799268403,64.42000000000002L80.63843164151805,64.35999999999999L74.39700502972107,64.6L67.19535893918611,65.18L60.47382258802012,65.38L53.75228623685414,65.82L47.03074988568815,65.96000000000001L40.30921353452218,66.52000000000001L33.58767718335619,66.92000000000002L26.886145404663925,67.35999999999999L20.164609053497944,67.52000000000001L13.443072702331962,67.96000000000001L6.721536351165981,67.48000000000002L0,67.70000000000002" style="fill: none; stroke: #ffbb78; stroke-width: 2;"></path></g><g class="mark-line role-mark layer_2_marks"><path d="M221.79069501600364,48.120000000000005L218.42992684042065,48.120000000000005L215.0691586648377,48.22L211.7083904892547,50.18000000000001L208.34762231367168,49.620000000000005L205.0068587105624,49.16L198.28532235939645,48.31999999999999L191.56378600823044,46.81999999999999L184.84224965706449,47.19999999999999L178.1207133058985,47.56L171.3991769547325,48.120000000000005L164.67764060356652,49.34L157.95610425240054,48.400000000000006L151.23456790123456,49.24000000000001L144.4930269775949,50.28L137.77149062642889,51.02000000000001L131.0499542752629,51.68000000000001L124.32841792409694,50.74000000000001L120.96764974851395,51.66L114.24611339734797,52.5L107.52457704618199,52.120000000000005L100.80304069501601,52.32000000000002L94.08150434385003,53.400000000000006L87.35996799268403,53.94L80.63843164151805,54.78L74.39700502972107,54.74000000000001L67.19535893918611,56.46000000000001L60.47382258802012,56.78L53.75228623685414,57.81999999999999L47.03074988568815,57.20000000000002L40.30921353452218,57.099999999999994L33.58767718335619,57.24000000000001L26.886145404663925,57.5L20.164609053497944,58.84L13.443072702331962,58.879999999999995L6.721536351165981,58.78L0,59.139999999999986" style="fill: none; stroke: #9467bd; stroke-width: 4;"></path></g><g class="mark-rule role-mark layer_3_marks"><line transform="translate(0,52)" x2="350" y2="0" style="fill: none; stroke: #2ca02c; stroke-width: 1; stroke-dasharray: 4,2;"></line></g><g class="mark-text role-mark layer_4_marks"><text text-anchor="end" transform="translate(350,197)" style="font-family: sans-serif; font-size: 16px; fill: #2ca02c;">74.00%</text></g><g class="mark-text role-mark layer_5_marks"><text text-anchor="end" transform="translate(350,15)" style="font-family: sans-serif; font-size: 16px; fill: #9467bd;">75.94%</text></g><g class="mark-group role-axis"><g transform="translate(0.5,200.5)"><path class="background" d="M0,0h0v0h0Z" style="pointer-events: none; fill: none;"></path><g><g class="mark-rule role-axis-tick" style="pointer-events: none;"><line transform="translate(0,0)" x2="0" y2="5" style="fill: none; stroke: #888; stroke-width: 1; opacity: 1;"></line><line transform="translate(43,0)" x2="0" y2="5" style="fill: none; stroke: #888; stroke-width: 1; opacity: 1;"></line><line transform="translate(87,0)" x2="0" y2="5" style="fill: none; stroke: #888; stroke-width: 1; opacity: 1;"></line><line transform="translate(131,0)" x2="0" y2="5" style="fill: none; stroke: #888; stroke-width: 1; opacity: 1;"></line><line transform="translate(175,0)" x2="0" y2="5" style="fill: none; stroke: #888; stroke-width: 1; opacity: 1;"></line><line transform="translate(218,0)" x2="0" y2="5" style="fill: none; stroke: #888; stroke-width: 1; opacity: 1;"></line><line transform="translate(262,0)" x2="0" y2="5" style="fill: none; stroke: #888; stroke-width: 1; opacity: 1;"></line><line transform="translate(306,0)" x2="0" y2="5" style="fill: none; stroke: #888; stroke-width: 1; opacity: 1;"></line></g><g class="mark-text role-axis-label" style="pointer-events: none;"><text text-anchor="start" transform="translate(0,15)" style="font-family: sans-serif; font-size: 10px; fill: #000; opacity: 1;">2018</text><text text-anchor="middle" transform="translate(43.18987197073617,15)" style="font-family: sans-serif; font-size: 10px; fill: #000; opacity: 1;">April</text><text text-anchor="middle" transform="translate(86.87985825331505,15)" style="font-family: sans-serif; font-size: 10px; fill: #000; opacity: 1;">July</text><text text-anchor="middle" transform="translate(131.0499542752629,15)" style="font-family: sans-serif; font-size: 10px; fill: #000; opacity: 1;">October</text><text text-anchor="middle" transform="translate(175.24005486968449,15)" style="font-family: sans-serif; font-size: 10px; fill: #000; opacity: 1;">2019</text><text text-anchor="middle" transform="translate(218.42992684042065,15)" style="font-family: sans-serif; font-size: 10px; fill: #000; opacity: 1;">April</text><text text-anchor="middle" transform="translate(262.11991312299955,15)" style="font-family: sans-serif; font-size: 10px; fill: #000; opacity: 1;">July</text><text text-anchor="middle" transform="translate(306.2900091449474,15)" style="font-family: sans-serif; font-size: 10px; fill: #000; opacity: 1;">October</text></g><g class="mark-rule role-axis-domain" style="pointer-events: none;"><line transform="translate(0,0)" x2="350" y2="0" style="fill: none; stroke: #888; stroke-width: 1; opacity: 1;"></line></g></g></g></g><g class="mark-group role-axis"><g transform="translate(0.5,0.5)"><path class="background" d="M0,0h0v0h0Z" style="pointer-events: none; fill: none;"></path><g><g class="mark-rule role-axis-tick" style="pointer-events: none;"><line transform="translate(0,200)" x2="-5" y2="0" style="fill: none; stroke: #888; stroke-width: 1; opacity: 1;"></line><line transform="translate(0,160)" x2="-5" y2="0" style="fill: none; stroke: #888; stroke-width: 1; opacity: 1;"></line><line transform="translate(0,120)" x2="-5" y2="0" style="fill: none; stroke: #888; stroke-width: 1; opacity: 1;"></line><line transform="translate(0,80)" x2="-5" y2="0" style="fill: none; stroke: #888; stroke-width: 1; opacity: 1;"></line><line transform="translate(0,40)" x2="-5" y2="0" style="fill: none; stroke: #888; stroke-width: 1; opacity: 1;"></line><line transform="translate(0,0)" x2="-5" y2="0" style="fill: none; stroke: #888; stroke-width: 1; opacity: 1;"></line></g><g class="mark-text role-axis-label" style="pointer-events: none;"><text text-anchor="end" transform="translate(-7,203)" style="font-family: sans-serif; font-size: 10px; fill: #000; opacity: 1;">0%</text><text text-anchor="end" transform="translate(-7,163)" style="font-family: sans-serif; font-size: 10px; fill: #000; opacity: 1;">20%</text><text text-anchor="end" transform="translate(-7,123)" style="font-family: sans-serif; font-size: 10px; fill: #000; opacity: 1;">40%</text><text text-anchor="end" transform="translate(-7,83)" style="font-family: sans-serif; font-size: 10px; fill: #000; opacity: 1;">60%</text><text text-anchor="end" transform="translate(-7,43)" style="font-family: sans-serif; font-size: 10px; fill: #000; opacity: 1;">80%</text><text text-anchor="end" transform="translate(-7,3)" style="font-family: sans-serif; font-size: 10px; fill: #000; opacity: 1;">100%</text></g><g class="mark-rule role-axis-domain" style="pointer-events: none;"><line transform="translate(0,200)" x2="0" y2="-200" style="fill: none; stroke: #888; stroke-width: 1; opacity: 1;"></line></g></g></g></g></g></g></g></g></svg>