<svg class="marks" width="397" height="234" viewBox="0 0 397 234" version="1.1" xmlns="http://www.w3.org/2000/svg" xmlns:xlink="http://www.w3.org/1999/xlink"><g transform="translate(41,11)"><g class="mark-group role-frame root"><g transform="translate(0,0)"><path class="background" d="M0.5,0.5h350v200h-350Z" style="fill: none; stroke: #ddd;"></path><g><g class="mark-group role-axis"><g transform="translate(0.5,200.5)"><path class="background" d="M0,0h0v0h0Z" style="pointer-events: none; fill: none;"></path><g><g class="mark-rule role-axis-grid" style="pointer-events: none;"><line transform="translate(0,-200)" x2="0" y2="200" style="fill: none; stroke: #ddd; stroke-width: 1; opacity: 1;"></line><line transform="translate(43,-200)" x2="0" y2="200" style="fill: none; stroke: #ddd; stroke-width: 1; opacity: 1;"></line><line transform="translate(87,-200)" x2="0" y2="200" style="fill: none; stroke: #ddd; stroke-width: 1; opacity: 1;"></line><line transform="translate(131,-200)" x2="0" y2="200" style="fill: none; stroke: #ddd; stroke-width: 1; opacity: 1;"></line><line transform="translate(175,-200)" x2="0" y2="200" style="fill: none; stroke: #ddd; stroke-width: 1; opacity: 1;"></line><line transform="translate(218,-200)" x2="0" y2="200" style="fill: none; stroke: #ddd; stroke-width: 1; opacity: 1;"></line><line transform="translate(262,-200)" x2="0" y2="200" style="fill: none; stroke: #ddd; stroke-width: 1; opacity: 1;"></line><line transform="translate(306,-200)" x2="0" y2="200" style="fill: none; stroke: #ddd; stroke-width: 1; opacity: 1;"></line></g></g></g></g><g class="mark-group role-axis"><g transform="translate(0.5,0.5)"><path class="background" d="M0,0h0v0h0Z" style="pointer-events: none; fill: none;"></path><g><g class="mark-rule role-axis-grid" style="pointer-events: none;"><line transform="translate(0,200)" x2="350" y2="0" style="fill: none; stroke: #ddd; stroke-width: 1; opacity: 1;"></line><line transform="translate(0,160)" x2="350" y2="0" style="fill: none; stroke: #ddd; stroke-width: 1; opacity: 1;"></line><line transform="translate(0,120)" x2="350" y2="0" style="fill: none; stroke: #ddd; stroke-width: 1; opacity: 1;"></line><line transform="translate(0,80)" x2="350" y2="0" style="fill: none; stroke: #ddd; stroke-width: 1; opacity: 1;"></line><line transform="translate(0,40)" x2="350" y2="0" style="fill: none; stroke: #ddd; stroke-width: 1; opacity: 1;"></line><line transform="translate(0,0)" x2="350" y2="0" style="fill: none; stroke: #ddd; stroke-width: 1; opacity: 1;"></line></g></g></g></g><g class="mark-line role-mark layer_0_marks"><path d="M231.8729995427526,46.70000000000002L228.51223136716965,46.74000000000001L225.15146319158666,46.78L221.79069501600364,46.84L218.42992684042065,46.920000000000016L215.0691586648377,47.03999999999999L211.7083904892547,47.01999999999998L208.34762231367168,47.19999999999999L205.0068587105624,47.22L198.28532235939645,47.30000000000001L191.56378600823044,47.41999999999999L184.84224965706449,47.74000000000001L178.1207133058985,47.620000000000005L171.3991769547325,47.379999999999995L164.67764060356652,47.599999999999994L157.95610425240054,48L151.23456790123456,47.94L144.4930269775949,48.079999999999984L137.77149062642889,48.120000000000005L131.0499542752629,48.22L124.32841792409694,48.22L120.96764974851395,48.22L114.24611339734797,48.28L107.52457704618199,48.16L100.80304069501601,48.10000000000002L94.08150434385003,48.16L87.35996799268403,48.25999999999999L80.63843164151805,48.81999999999999L74.39700502972107,48.97999999999999L67.19535893918611,49.16L60.47382258802012,49.30000000000001L53.75228623685414,49.45999999999998L47.03074988568815,49.66L40.30921353452218,49.900000000000006L33.58767718335619,50.140000000000015L26.886145404663925,50.18000000000001L20.164609053497944,50.140000000000015L13.443072702331962,50.66L6.721536351165981,50.400000000000006L0,50.28" style="fill: none; stroke: #aec7e8; stroke-width: 2;"></path></g><g class="mark-line role-mark layer_1_marks"><path d="M231.8729995427526,57.94L228.51223136716965,57.80000000000001L225.15146319158666,58.420000000000016L221.79069501600364,58.24000000000001L218.42992684042065,58.18000000000001L215.0691586648377,58.80000000000001L211.7083904892547,58.69999999999999L208.34762231367168,58.73999999999998L205.0068587105624,58.5L198.28532235939645,58.359999999999985L191.56378600823044,58.139999999999986L184.84224965706449,58.03999999999999L178.1207133058985,56.80000000000001L171.3991769547325,56.56L164.67764060356652,56.420000000000016L157.95610425240054,56.68000000000001L151.23456790123456,57.28L144.4930269775949,57.24000000000001L137.77149062642889,57.20000000000002L131.0499542752629,56.80000000000001L124.32841792409694,56.31999999999999L120.96764974851395,56.18000000000001L114.24611339734797,55.53999999999999L107.52457704618199,55.139999999999986L100.80304069501601,54.84L94.08150434385003,54.599999999999994L87.35996799268403,54.06L80.63843164151805,53.859999999999985L74.39700502972107,53.72L67.19535893918611,53.400000000000006L60.47382258802012,52.80000000000001L53.75228623685414,52.47999999999999L47.03074988568815,52.400000000000006L40.30921353452218,52.099999999999994L33.58767718335619,51.80000000000001L26.886145404663925,51.099999999999994L20.164609053497944,50.84L13.443072702331962,50.54000000000002L6.721536351165981,49.75999999999999L0,49.18000000000001" style="fill: none; stroke: #ffbb78; stroke-width: 2;"></path></g><g class="mark-line role-mark layer_2_marks"><path d="M231.8729995427526,45.360000000000014L228.51223136716965,45.01999999999998L225.15146319158666,45.19999999999999L221.79069501600364,44.84L218.42992684042065,44.379999999999995L215.0691586648377,44.79999999999998L211.7083904892547,44.81999999999999L208.34762231367168,44.879999999999995L205.0068587105624,44.70000000000002L198.28532235939645,44.81999999999999L191.56378600823044,44.48000000000002L184.84224965706449,43.97999999999999L178.1207133058985,43.46000000000001L171.3991769547325,43.53999999999999L164.67764060356652,43.94L157.95610425240054,44.16L151.23456790123456,45.06L144.4930269775949,45.56L137.77149062642889,45.5L131.0499542752629,45.66L124.32841792409694,45.81999999999999L120.96764974851395,45.56L114.24611339734797,45.41999999999999L107.52457704618199,45.08000000000001L100.80304069501601,45.16L94.08150434385003,45.120000000000005L87.35996799268403,44.96000000000001L80.63843164151805,45.22L74.39700502972107,45.379999999999995L67.19535893918611,45.01999999999998L60.47382258802012,44.06L53.75228623685414,43.860000000000014L47.03074988568815,43.28L40.30921353452218,42.900000000000006L33.58767718335619,42.66L26.886145404663925,42.22L20.164609053497944,42.26000000000002L13.443072702331962,42.839999999999975L6.721536351165981,42.74000000000001L0,43.08000000000001" style="fill: none; stroke: #9467bd; stroke-width: 4;"></path></g><g class="mark-rule role-mark layer_3_marks"><line transform="translate(0,40)" x2="350" y2="0" style="fill: none; stroke: #2ca02c; stroke-width: 1; stroke-dasharray: 4,2;"></line></g><g class="mark-text role-mark layer_4_marks"><text text-anchor="end" transform="translate(350,197)" style="font-family: sans-serif; font-size: 16px; fill: #2ca02c;">80.00%</text></g><g class="mark-text role-mark layer_5_marks"><text text-anchor="end" transform="translate(350,15)" style="font-family: sans-serif; font-size: 16px; fill: #9467bd;">77.32%</text></g><g class="mark-group role-axis"><g transform="translate(0.5,200.5)"><path class="background" d="M0,0h0v0h0Z" style="pointer-events: none; fill: none;"></path><g><g class="mark-rule role-axis-tick" style="pointer-events: none;"><line transform="translate(0,0)" x2="0" y2="5" style="fill: none; stroke: #888; stroke-width: 1; opacity: 1;"></line><line transform="translate(43,0)" x2="0" y2="5" style="fill: none; stroke: #888; stroke-width: 1; opacity: 1;"></line><line transform="translate(87,0)" x2="0" y2="5" style="fill: none; stroke: #888; stroke-width: 1; opacity: 1;"></line><line transform="translate(131,0)" x2="0" y2="5" style="fill: none; stroke: #888; stroke-width: 1; opacity: 1;"></line><line transform="translate(175,0)" x2="0" y2="5" style="fill: none; stroke: #888; stroke-width: 1; opacity: 1;"></line><line transform="translate(218,0)" x2="0" y2="5" style="fill: none; stroke: #888; stroke-width: 1; opacity: 1;"></line><line transform="translate(262,0)" x2="0" y2="5" style="fill: none; stroke: #888; stroke-width: 1; opacity: 1;"></line><line transform="translate(306,0)" x2="0" y2="5" style="fill: none; stroke: #888; stroke-width: 1; opacity: 1;"></line></g><g class="mark-text role-axis-label" style="pointer-events: none;"><text text-anchor="start" transform="translate(0,15)" style="font-family: sans-serif; font-size: 10px; fill: #000; opacity: 1;">2018</text><text text-anchor="middle" transform="translate(43.18987197073617,15)" style="font-family: sans-serif; font-size: 10px; fill: #000; opacity: 1;">April</text><text text-anchor="middle" transform="translate(86.87985825331505,15)" style="font-family: sans-serif; font-size: 10px; fill: #000; opacity: 1;">July</text><text text-anchor="middle" transform="translate(131.0499542752629,15)" style="font-family: sans-serif; font-size: 10px; fill: #000; opacity: 1;">October</text><text text-anchor="middle" transform="translate(175.24005486968449,15)" style="font-family: sans-serif; font-size: 10px; fill: #000; opacity: 1;">2019</text><text text-anchor="middle" transform="translate(218.42992684042065,15)" style="font-family: sans-serif; font-size: 10px; fill: #000; opacity: 1;">April</text><text text-anchor="middle" transform="translate(262.11991312299955,15)" style="font-family: sans-serif; font-size: 10px; fill: #000; opacity: 1;">July</text><text text-anchor="middle" transform="translate(306.2900091449474,15)" style="font-family: sans-serif; font-size: 10px; fill: #000; opacity: 1;">October</text></g><g class="mark-rule role-axis-domain" style="pointer-events: none;"><line transform="translate(0,0)" x2="350" y2="0" style="fill: none; stroke: #888; stroke-width: 1; opacity: 1;"></line></g></g></g></g><g class="mark-group role-axis"><g transform="translate(0.5,0.5)"><path class="background" d="M0,0h0v0h0Z" style="pointer-events: none; fill: none;"></path><g><g class="mark-rule role-axis-tick" style="pointer-events: none;"><line transform="translate(0,200)" x2="-5" y2="0" style="fill: none; stroke: #888; stroke-width: 1; opacity: 1;"></line><line transform="translate(0,160)" x2="-5" y2="0" style="fill: none; stroke: #888; stroke-width: 1; opacity: 1;"></line><line transform="translate(0,120)" x2="-5" y2="0" style="fill: none; stroke: #888; stroke-width: 1; opacity: 1;"></line><line transform="translate(0,80)" x2="-5" y2="0" style="fill: none; stroke: #888; stroke-width: 1; opacity: 1;"></line><line transform="translate(0,40)" x2="-5" y2="0" style="fill: none; stroke: #888; stroke-width: 1; opacity: 1;"></line><line transform="translate(0,0)" x2="-5" y2="0" style="fill: none; stroke: #888; stroke-width: 1; opacity: 1;"></line></g><g class="mark-text role-axis-label" style="pointer-events: none;"><text text-anchor="end" transform="translate(-7,203)" style="font-family: sans-serif; font-size: 10px; fill: #000; opacity: 1;">0%</text><text text-anchor="end" transform="translate(-7,163)" style="font-family: sans-serif; font-size: 10px; fill: #000; opacity: 1;">20%</text><text text-anchor="end" transform="translate(-7,123)" style="font-family: sans-serif; font-size: 10px; fill: #000; opacity: 1;">40%</text><text text-anchor="end" transform="translate(-7,83)" style="font-family: sans-serif; font-size: 10px; fill: #000; opacity: 1;">60%</text><text text-anchor="end" transform="translate(-7,43)" style="font-family: sans-serif; font-size: 10px; fill: #000; opacity: 1;">80%</text><text text-anchor="end" transform="translate(-7,3)" style="font-family: sans-serif; font-size: 10px; fill: #000; opacity: 1;">100%</text></g><g class="mark-rule role-axis-domain" style="pointer-events: none;"><line transform="translate(0,200)" x2="0" y2="-200" style="fill: none; stroke: #888; stroke-width: 1; opacity: 1;"></line></g></g></g></g></g></g></g></g></svg>