<svg class="marks" width="397" height="234" viewBox="0 0 397 234" version="1.1" xmlns="http://www.w3.org/2000/svg" xmlns:xlink="http://www.w3.org/1999/xlink"><g transform="translate(41,11)"><g class="mark-group role-frame root"><g transform="translate(0,0)"><path class="background" d="M0.5,0.5h350v200h-350Z" style="fill: none; stroke: #ddd;"></path><g><g class="mark-group role-axis"><g transform="translate(0.5,200.5)"><path class="background" d="M0,0h0v0h0Z" style="pointer-events: none; fill: none;"></path><g><g class="mark-rule role-axis-grid" style="pointer-events: none;"><line transform="translate(0,-200)" x2="0" y2="200" style="fill: none; stroke: #ddd; stroke-width: 1; opacity: 1;"></line><line transform="translate(43,-200)" x2="0" y2="200" style="fill: none; stroke: #ddd; stroke-width: 1; opacity: 1;"></line><line transform="translate(87,-200)" x2="0" y2="200" style="fill: none; stroke: #ddd; stroke-width: 1; opacity: 1;"></line><line transform="translate(131,-200)" x2="0" y2="200" style="fill: none; stroke: #ddd; stroke-width: 1; opacity: 1;"></line><line transform="translate(175,-200)" x2="0" y2="200" style="fill: none; stroke: #ddd; stroke-width: 1; opacity: 1;"></line><line transform="translate(218,-200)" x2="0" y2="200" style="fill: none; stroke: #ddd; stroke-width: 1; opacity: 1;"></line><line transform="translate(262,-200)" x2="0" y2="200" style="fill: none; stroke: #ddd; stroke-width: 1; opacity: 1;"></line><line transform="translate(306,-200)" x2="0" y2="200" style="fill: none; stroke: #ddd; stroke-width: 1; opacity: 1;"></line></g></g></g></g><g class="mark-group role-axis"><g transform="translate(0.5,0.5)"><path class="background" d="M0,0h0v0h0Z" style="pointer-events: none; fill: none;"></path><g><g class="mark-rule role-axis-grid" style="pointer-events: none;"><line transform="translate(0,200)" x2="350" y2="0" style="fill: none; stroke: #ddd; stroke-width: 1; opacity: 1;"></line><line transform="translate(0,160)" x2="350" y2="0" style="fill: none; stroke: #ddd; stroke-width: 1; opacity: 1;"></line><line transform="translate(0,120)" x2="350" y2="0" style="fill: none; stroke: #ddd; stroke-width: 1; opacity: 1;"></line><line transform="translate(0,80)" x2="350" y2="0" style="fill: none; stroke: #ddd; stroke-width: 1; opacity: 1;"></line><line transform="translate(0,40)" x2="350" y2="0" style="fill: none; stroke: #ddd; stroke-width: 1; opacity: 1;"></line><line transform="translate(0,0)" x2="350" y2="0" style="fill: none; stroke: #ddd; stroke-width: 1; opacity: 1;"></line></g></g></g></g><g class="mark-line role-mark layer_0_marks"><path d="M231.8729995427526,57.5L228.51223136716965,58.099999999999994L225.15146319158666,58.46000000000001L221.79069501600364,58.379999999999995L218.42992684042065,58.66L215.0691586648377,58.66L211.7083904892547,58.400000000000006L208.34762231367168,58.81999999999999L205.0068587105624,58.34L198.28532235939645,58.079999999999984L191.56378600823044,57.68000000000001L184.84224965706449,57.75999999999999L178.1207133058985,57.5L171.3991769547325,57.20000000000002L164.67764060356652,57.81999999999999L157.95610425240054,57.25999999999999L151.23456790123456,57.02000000000001L144.4930269775949,57.139999999999986L137.77149062642889,57.29999999999998L131.0499542752629,58.18000000000001L124.32841792409694,58.31999999999999L120.96764974851395,57.879999999999995L114.24611339734797,57.69999999999999L107.52457704618199,58.22L100.80304069501601,58.400000000000006L94.08150434385003,58.46000000000001L87.35996799268403,58.599999999999994L80.63843164151805,59.18000000000001L74.39700502972107,59.16L67.19535893918611,59.400000000000006L60.47382258802012,59.47999999999999L53.75228623685414,59.56L47.03074988568815,59.380000000000024L40.30921353452218,58.56L33.58767718335619,57.80000000000001L26.886145404663925,57.44L20.164609053497944,55.73999999999998L13.443072702331962,56.079999999999984L6.721536351165981,55.44L0,54.68000000000001" style="fill: none; stroke: #aec7e8; stroke-width: 2;"></path></g><g class="mark-line role-mark layer_1_marks"><path d="M231.8729995427526,56.20000000000002L228.51223136716965,56.69999999999999L225.15146319158666,56.599999999999994L221.79069501600364,55.96000000000001L218.42992684042065,56.69999999999999L215.0691586648377,56.400000000000006L211.7083904892547,57.68000000000001L208.34762231367168,57.75999999999999L205.0068587105624,57.420000000000016L198.28532235939645,56.56L191.56378600823044,56.46000000000001L184.84224965706449,53.68000000000001L178.1207133058985,55.03999999999999L171.3991769547325,55.72L164.67764060356652,57.5L157.95610425240054,56.20000000000002L151.23456790123456,55.91999999999999L144.4930269775949,55.339999999999975L137.77149062642889,55.5L131.0499542752629,56.079999999999984L124.32841792409694,55.51999999999998L120.96764974851395,54.78L114.24611339734797,54.66L107.52457704618199,53.72L100.80304069501601,53.78L94.08150434385003,55.120000000000005L87.35996799268403,55.31999999999999L80.63843164151805,57.80000000000001L74.39700502972107,57.139999999999986L67.19535893918611,54.34L60.47382258802012,53.69999999999999L53.75228623685414,55.620000000000005L47.03074988568815,53.360000000000014L40.30921353452218,52.599999999999994L33.58767718335619,52.51999999999998L26.886145404663925,52.84L20.164609053497944,52L13.443072702331962,56.53999999999999L6.721536351165981,52.5L0,50.06" style="fill: none; stroke: #ffbb78; stroke-width: 2;"></path></g><g class="mark-line role-mark layer_2_marks"><path d="M231.8729995427526,67.75999999999999L228.51223136716965,67.75999999999999L225.15146319158666,66.12L221.79069501600364,62.79999999999998L218.42992684042065,61.16L215.0691586648377,61.16L211.7083904892547,61.16L208.34762231367168,62.79999999999998L205.0068587105624,64.46000000000001L198.28532235939645,58.81999999999999L191.56378600823044,59.31999999999999L184.84224965706449,58.81999999999999L178.1207133058985,57.620000000000005L171.3991769547325,61.02000000000001L164.67764060356652,63.24000000000001L157.95610425240054,63.79999999999998L151.23456790123456,62.06L144.4930269775949,57.900000000000006L137.77149062642889,58.400000000000006L131.0499542752629,60.72L124.32841792409694,64.34L120.96764974851395,63.79999999999998L114.24611339734797,63.79999999999998L107.52457704618199,63.79999999999998L100.80304069501601,67.82L94.08150434385003,73.50000000000001L87.35996799268403,69.56L80.63843164151805,74.58L74.39700502972107,75L67.19535893918611,72.88L60.47382258802012,72.88L53.75228623685414,79L47.03074988568815,80L40.30921353452218,76.27999999999999L33.58767718335619,70.57999999999998L26.886145404663925,72.72000000000001L20.164609053497944,66.12L13.443072702331962,67.75999999999999L6.721536351165981,68.34L0,68.30000000000001" style="fill: none; stroke: #9467bd; stroke-width: 4;"></path></g><g class="mark-rule role-mark layer_3_marks"><line transform="translate(0,40)" x2="350" y2="0" style="fill: none; stroke: #2ca02c; stroke-width: 1; stroke-dasharray: 4,2;"></line></g><g class="mark-text role-mark layer_4_marks"><text text-anchor="end" transform="translate(350,197)" style="font-family: sans-serif; font-size: 16px; fill: #2ca02c;">80.00%</text></g><g class="mark-text role-mark layer_5_marks"><text text-anchor="end" transform="translate(350,15)" style="font-family: sans-serif; font-size: 16px; fill: #9467bd;">66.12%</text></g><g class="mark-group role-axis"><g transform="translate(0.5,200.5)"><path class="background" d="M0,0h0v0h0Z" style="pointer-events: none; fill: none;"></path><g><g class="mark-rule role-axis-tick" style="pointer-events: none;"><line transform="translate(0,0)" x2="0" y2="5" style="fill: none; stroke: #888; stroke-width: 1; opacity: 1;"></line><line transform="translate(43,0)" x2="0" y2="5" style="fill: none; stroke: #888; stroke-width: 1; opacity: 1;"></line><line transform="translate(87,0)" x2="0" y2="5" style="fill: none; stroke: #888; stroke-width: 1; opacity: 1;"></line><line transform="translate(131,0)" x2="0" y2="5" style="fill: none; stroke: #888; stroke-width: 1; opacity: 1;"></line><line transform="translate(175,0)" x2="0" y2="5" style="fill: none; stroke: #888; stroke-width: 1; opacity: 1;"></line><line transform="translate(218,0)" x2="0" y2="5" style="fill: none; stroke: #888; stroke-width: 1; opacity: 1;"></line><line transform="translate(262,0)" x2="0" y2="5" style="fill: none; stroke: #888; stroke-width: 1; opacity: 1;"></line><line transform="translate(306,0)" x2="0" y2="5" style="fill: none; stroke: #888; stroke-width: 1; opacity: 1;"></line></g><g class="mark-text role-axis-label" style="pointer-events: none;"><text text-anchor="start" transform="translate(0,15)" style="font-family: sans-serif; font-size: 10px; fill: #000; opacity: 1;">2018</text><text text-anchor="middle" transform="translate(43.18987197073617,15)" style="font-family: sans-serif; font-size: 10px; fill: #000; opacity: 1;">April</text><text text-anchor="middle" transform="translate(86.87985825331505,15)" style="font-family: sans-serif; font-size: 10px; fill: #000; opacity: 1;">July</text><text text-anchor="middle" transform="translate(131.0499542752629,15)" style="font-family: sans-serif; font-size: 10px; fill: #000; opacity: 1;">October</text><text text-anchor="middle" transform="translate(175.24005486968449,15)" style="font-family: sans-serif; font-size: 10px; fill: #000; opacity: 1;">2019</text><text text-anchor="middle" transform="translate(218.42992684042065,15)" style="font-family: sans-serif; font-size: 10px; fill: #000; opacity: 1;">April</text><text text-anchor="middle" transform="translate(262.11991312299955,15)" style="font-family: sans-serif; font-size: 10px; fill: #000; opacity: 1;">July</text><text text-anchor="middle" transform="translate(306.2900091449474,15)" style="font-family: sans-serif; font-size: 10px; fill: #000; opacity: 1;">October</text></g><g class="mark-rule role-axis-domain" style="pointer-events: none;"><line transform="translate(0,0)" x2="350" y2="0" style="fill: none; stroke: #888; stroke-width: 1; opacity: 1;"></line></g></g></g></g><g class="mark-group role-axis"><g transform="translate(0.5,0.5)"><path class="background" d="M0,0h0v0h0Z" style="pointer-events: none; fill: none;"></path><g><g class="mark-rule role-axis-tick" style="pointer-events: none;"><line transform="translate(0,200)" x2="-5" y2="0" style="fill: none; stroke: #888; stroke-width: 1; opacity: 1;"></line><line transform="translate(0,160)" x2="-5" y2="0" style="fill: none; stroke: #888; stroke-width: 1; opacity: 1;"></line><line transform="translate(0,120)" x2="-5" y2="0" style="fill: none; stroke: #888; stroke-width: 1; opacity: 1;"></line><line transform="translate(0,80)" x2="-5" y2="0" style="fill: none; stroke: #888; stroke-width: 1; opacity: 1;"></line><line transform="translate(0,40)" x2="-5" y2="0" style="fill: none; stroke: #888; stroke-width: 1; opacity: 1;"></line><line transform="translate(0,0)" x2="-5" y2="0" style="fill: none; stroke: #888; stroke-width: 1; opacity: 1;"></line></g><g class="mark-text role-axis-label" style="pointer-events: none;"><text text-anchor="end" transform="translate(-7,203)" style="font-family: sans-serif; font-size: 10px; fill: #000; opacity: 1;">0%</text><text text-anchor="end" transform="translate(-7,163)" style="font-family: sans-serif; font-size: 10px; fill: #000; opacity: 1;">20%</text><text text-anchor="end" transform="translate(-7,123)" style="font-family: sans-serif; font-size: 10px; fill: #000; opacity: 1;">40%</text><text text-anchor="end" transform="translate(-7,83)" style="font-family: sans-serif; font-size: 10px; fill: #000; opacity: 1;">60%</text><text text-anchor="end" transform="translate(-7,43)" style="font-family: sans-serif; font-size: 10px; fill: #000; opacity: 1;">80%</text><text text-anchor="end" transform="translate(-7,3)" style="font-family: sans-serif; font-size: 10px; fill: #000; opacity: 1;">100%</text></g><g class="mark-rule role-axis-domain" style="pointer-events: none;"><line transform="translate(0,200)" x2="0" y2="-200" style="fill: none; stroke: #888; stroke-width: 1; opacity: 1;"></line></g></g></g></g></g></g></g></g></svg>